<?xml version="1.0" encoding="utf-8"?>
<!-- Generator: Adobe Illustrator 22.1.0, SVG Export Plug-In . SVG Version: 6.00 Build 0)  -->
<svg version="1.0" id="Calque_1" xmlns="http://www.w3.org/2000/svg" xmlns:xlink="http://www.w3.org/1999/xlink" x="0px" y="0px"
	 viewBox="0 0 40 40" style="enable-background:new 0 0 40 40;" xml:space="preserve">
<style type="text/css">
	.st0{fill:#231F20;}
</style>
<path class="st0" d="M36.7,31.1l-2.8-1.3l-4.7-9.1l7.5-3.5c0.4-0.2,0.6-0.6,0.4-1c-0.2-0.4-0.6-0.5-1-0.4l-7.5,3.5l-7.8-15
	c-0.3-0.5-1.1-0.5-1.4,0l-7.8,15L4,15.9c-0.4-0.2-0.8,0-1,0.4c-0.2,0.4,0,0.8,0.4,1l7.5,3.5l-4.7,9.1l-2.8,1.3
	c-0.4,0.2-0.6,0.6-0.4,1c0.1,0.3,0.4,0.4,0.7,0.4c0.1,0,0.2,0,0.3-0.1l1-0.4l-1.5,2.8c-0.1,0.2-0.1,0.5,0,0.8
	C3.6,35.9,3.9,36,4.2,36h31.7c0.3,0,0.5-0.1,0.7-0.4c0.1-0.2,0.1-0.5,0-0.8l-1.5-2.8l1,0.4c0.1,0,0.2,0.1,0.3,0.1
	c0.3,0,0.6-0.2,0.7-0.4C37.2,31.8,37.1,31.3,36.7,31.1z M31.6,28.8l-9.8-4.6l6-2.8L31.6,28.8z M20,6.4L27.1,20L20,23.3L12.9,20
	L20,6.4z M12.2,21.4l6,2.8l-9.8,4.6L12.2,21.4z M34.6,34.5H5.4L7.2,31L20,25l12.8,6L34.6,34.5z"/>
</svg>
