<?xml version="1.0" encoding="utf-8"?>
<!-- Generator: Adobe Illustrator 23.0.1, SVG Export Plug-In . SVG Version: 6.00 Build 0)  -->
<svg version="1.1" id="Calque_1" xmlns="http://www.w3.org/2000/svg" xmlns:xlink="http://www.w3.org/1999/xlink" x="0px" y="0px"
	 viewBox="0 0 80 80" style="enable-background:new 0 0 80 80;" xml:space="preserve">
<style type="text/css">
	.st0{opacity:0.2;fill:#FFFFFF;}
	.st1{fill:#FFFFFF;}
</style>
<path class="st0" d="M34.3,30.2c0-0.1,0.1-0.1,0.1-0.2c0.1,0,0.1-0.1,0.2-0.1c0.1,0,0.1,0,0.2,0c0.1,0,0.1,0,0.2,0.1
	c0.1,0,0.1,0.1,0.2,0.2c0,0,0.1,0.1,0.1,0.2s0.1,0.1,0.1,0.2l-0.2,0.1c0,0,0-0.1-0.1-0.1c0-0.1-0.1-0.1-0.1-0.2
	c-0.1-0.1-0.1-0.1-0.2-0.1c-0.1,0-0.1,0-0.2,0l-0.1,0.1c0,0.1,0,0.1,0,0.2s0,0.1,0.1,0.2c0,0.1,0,0.1,0.1,0.2c0,0.1,0,0.1,0,0.2
	s-0.1,0.1-0.1,0.2s-0.1,0.1-0.2,0.1c-0.1,0-0.1,0-0.2,0c-0.1,0-0.1,0-0.2-0.1c-0.1,0-0.1-0.1-0.2-0.2c0-0.1-0.1-0.1-0.1-0.2
	s-0.1-0.1-0.1-0.2l0.2-0.1c0,0,0,0.1,0.1,0.2c0,0.1,0.1,0.1,0.1,0.2l0.1,0.1c0,0,0.1,0,0.1,0.1h0.1c0,0,0.1,0,0.1-0.1l0.1-0.1
	c0-0.1,0-0.1,0-0.2s0-0.1-0.1-0.2c0-0.1,0-0.1-0.1-0.2C34.3,30.3,34.3,30.2,34.3,30.2z M28.3,28.3c0.1,0.1,0.1,0.1,0.2,0.2
	c0.1,0,0.1,0.1,0.2,0.1l0.1-0.2c-0.1,0-0.1-0.1-0.2-0.1c0,0-0.1-0.1-0.2-0.1c-0.1-0.1-0.1-0.1-0.1-0.2s0-0.2,0-0.2s0-0.2,0.1-0.2
	c0-0.1,0.1-0.2,0.2-0.2c0.1-0.1,0.1-0.1,0.2-0.1s0.1,0,0.2,0s0.1,0,0.2,0s0.1,0.1,0.2,0.1c0.1,0.1,0.1,0.1,0.1,0.2s0.1,0.1,0.1,0.2
	l0.2-0.1v-0.1v-0.1c0,0,0-0.1-0.1-0.1l-0.1-0.1c-0.1-0.1-0.2-0.2-0.3-0.2c-0.1,0-0.2-0.1-0.3-0.1c-0.1,0-0.2,0-0.3,0.1
	c-0.1,0-0.2,0.1-0.3,0.2c-0.1,0.1-0.2,0.2-0.2,0.3c-0.1,0.1-0.1,0.2-0.1,0.3c0,0.1,0,0.2,0,0.3C28.2,28.1,28.2,28.2,28.3,28.3z
	 M29.7,28.1c0.1,0,0.2-0.1,0.3-0.1c0.1,0,0.2,0,0.3,0.1c0.1,0,0.2,0.1,0.3,0.2c0.1,0.1,0.1,0.2,0.2,0.3c0,0.1,0,0.2,0,0.3
	c0,0.1,0,0.2-0.1,0.3c-0.1,0.1-0.1,0.2-0.2,0.3c-0.1,0.1-0.2,0.1-0.3,0.2c-0.1,0-0.2,0.1-0.3,0.1c-0.1,0-0.2,0-0.3-0.1
	c-0.1,0-0.2-0.1-0.3-0.2c-0.1-0.1-0.1-0.2-0.2-0.3c0-0.1,0-0.2,0-0.3c0-0.1,0-0.2,0.1-0.3c0.1-0.1,0.1-0.2,0.2-0.3
	C29.5,28.2,29.6,28.1,29.7,28.1z M29.9,28.3c-0.1,0-0.1,0.1-0.2,0.1c-0.2,0.1-0.3,0.3-0.3,0.5s0,0.3,0.1,0.4s0.1,0.1,0.2,0.1
	s0.1,0,0.2,0s0.1,0,0.2-0.1c0.1,0,0.1-0.1,0.2-0.1c0.1-0.1,0.1-0.1,0.2-0.2c0-0.1,0.1-0.1,0.1-0.2s0-0.2,0-0.2
	c0-0.1-0.1-0.2-0.1-0.2c-0.1-0.1-0.1-0.1-0.2-0.1s-0.1,0-0.2,0C30,28.2,29.9,28.3,29.9,28.3z M30.9,30c0,0.1,0,0.1,0.1,0.2
	c0,0.1,0,0.1,0,0.2s0,0.1-0.1,0.1l-0.1,0.1h-0.1c0,0-0.1,0-0.1-0.1l-0.1-0.1c0,0-0.1-0.1-0.1-0.2s-0.1-0.1-0.1-0.2l-0.2,0.1
	c0,0,0,0.1,0.1,0.2c0,0.1,0.1,0.1,0.1,0.2c0.1,0.1,0.1,0.1,0.2,0.2c0.1,0,0.1,0.1,0.2,0.1s0.1,0,0.2,0s0.1-0.1,0.2-0.1
	c0.1-0.1,0.1-0.1,0.1-0.2s0-0.1,0-0.2s0-0.1-0.1-0.2c0-0.1,0-0.1-0.1-0.2c0-0.1,0-0.1,0-0.2s0-0.1,0.1-0.1c0.1-0.1,0.1-0.1,0.2,0
	c0.1,0,0.1,0.1,0.2,0.1c0,0.1,0.1,0.1,0.1,0.2s0.1,0.1,0.1,0.1l0.2-0.1c0-0.1-0.1-0.1-0.1-0.2s-0.1-0.1-0.1-0.2
	c-0.1-0.1-0.1-0.1-0.2-0.2c-0.1,0-0.1-0.1-0.2-0.1s-0.1,0-0.2,0s-0.1,0.1-0.2,0.1c-0.1,0.1-0.1,0.1-0.1,0.2s0,0.1,0,0.2
	C30.9,29.9,30.9,29.9,30.9,30z M31.3,31.5l0.2,0.2l1.1-1l0.3,0.4L33,31l-0.8-0.9L32,30.2l0.3,0.4L31.3,31.5z M32.3,32.4l0.4-0.4
	l0.4,0.4l0.2-0.1l-0.4-0.5l0.4-0.3l0.4,0.5l0.2-0.1l-0.6-0.7L32,32.3l0.6,0.7l0.2-0.1L32.3,32.4z M25.8,29l-0.2-0.2l1.7-0.7l0.2,0.2
	L26.6,30l-0.2-0.2l0.2-0.4l-0.5-0.5L25.8,29z M26.4,28.8l0.4,0.4l0.4-0.7l0,0L26.4,28.8z M28,31.5l0.1-0.9l0,0l-0.5,0.5l-0.2-0.2
	l1.2-1.1l0.3,0.4c0.1,0.1,0.1,0.1,0.1,0.2s0,0.1,0,0.2s0,0.1,0,0.2s-0.1,0.1-0.1,0.1S28.8,31,28.7,31s-0.1,0-0.2,0s-0.1,0-0.2,0
	s-0.1-0.1-0.2-0.1L28,31.8L28,31.5z M28.3,30.5l0.1,0.1l0.1,0.1h0.1h0.1c0,0,0.1,0,0.1-0.1c0,0,0-0.1,0.1-0.1v-0.1v-0.1
	c0,0,0-0.1-0.1-0.1l-0.1-0.1L28.3,30.5z M30.3,31.5l-1.2,1.1l0.2,0.2l1.2-1.1L30.3,31.5z M31.8,33.6l0.2-0.1c0-0.1-0.1-0.1-0.1-0.2
	c0-0.1-0.1-0.1-0.1-0.2c-0.1-0.1-0.1-0.1-0.2-0.2s-0.1-0.1-0.2-0.1s-0.1,0-0.2,0s-0.1,0.1-0.2,0.1c-0.1,0.1-0.1,0.1-0.1,0.2
	c0,0.1,0,0.1,0,0.2c0,0.1,0,0.1,0.1,0.2c0,0.1,0,0.1,0.1,0.2c0,0.1,0,0.1,0,0.2c0,0.1,0,0.1-0.1,0.1l-0.1,0.1h-0.1
	c0,0-0.1,0-0.1-0.1l-0.1-0.1c0,0-0.1-0.1-0.1-0.2c0-0.1-0.1-0.1-0.1-0.2l-0.2,0.1c0,0,0,0.1,0.1,0.2c0,0.1,0.1,0.1,0.1,0.2
	c0.1,0.1,0.1,0.1,0.2,0.2c0.1,0,0.1,0.1,0.2,0.1s0.1,0,0.2,0s0.1-0.1,0.2-0.1c0.1-0.1,0.1-0.1,0.1-0.2c0-0.1,0-0.1,0-0.2
	c0-0.1,0-0.1-0.1-0.2c0-0.1,0-0.1-0.1-0.2c0-0.1,0-0.1,0-0.2c0-0.1,0-0.1,0.1-0.1c0.1-0.1,0.1-0.1,0.2,0c0.1,0,0.1,0.1,0.2,0.1
	c0,0.1,0.1,0.1,0.1,0.2C31.8,33.5,31.8,33.6,31.8,33.6z M23.4,29.7l-0.2-0.2l1.7-0.7l0.2,0.2l-0.8,1.6l-0.2-0.2l0.2-0.4l-0.5-0.5
	L23.4,29.7z M24.1,29.4l0.4,0.4l0.4-0.7l0,0L24.1,29.4z M24.8,30.4c-0.1,0.1-0.1,0.2-0.1,0.3c0,0.1,0,0.2,0,0.3
	c0,0.1,0.1,0.2,0.2,0.3c0.1,0.1,0.1,0.1,0.2,0.2c0.1,0,0.1,0.1,0.2,0.1l0.1-0.2c-0.1,0-0.1-0.1-0.2-0.1c0,0-0.1-0.1-0.2-0.1
	c0.1,0,0-0.1,0-0.2s0-0.2,0-0.2s0-0.2,0.1-0.2c0-0.1,0.1-0.2,0.2-0.2c0.1-0.1,0.1-0.1,0.2-0.1s0.1,0,0.2,0s0.1,0,0.2,0
	s0.1,0.1,0.2,0.1c0.1,0.1,0.1,0.1,0.1,0.2s0.1,0.1,0.1,0.2l0.2-0.1v-0.1v-0.1c0,0,0-0.1-0.1-0.1l-0.1-0.1c-0.1-0.1-0.2-0.2-0.3-0.2
	c-0.1,0-0.2-0.1-0.3-0.1c-0.1,0-0.2,0-0.3,0.1c-0.1,0-0.2,0.1-0.3,0.2C25,30.3,24.9,30.3,24.8,30.4z M27.4,31.6c0,0.1,0,0.2,0,0.3
	c0,0.1,0,0.2-0.1,0.3c-0.1,0.1-0.1,0.2-0.2,0.3s-0.2,0.1-0.3,0.2c-0.1,0-0.2,0.1-0.3,0.1c-0.1,0-0.2,0-0.3-0.1
	c-0.1,0-0.2-0.1-0.3-0.2c-0.1-0.1-0.1-0.2-0.2-0.3c0-0.1,0-0.2,0-0.3c0-0.1,0-0.2,0.1-0.3c0.1-0.1,0.1-0.2,0.2-0.3
	c0.1-0.1,0.2-0.1,0.3-0.2c0.1,0,0.2-0.1,0.3-0.1c0.1,0,0.2,0,0.3,0.1c0.1,0,0.2,0.1,0.3,0.2C27.3,31.4,27.4,31.5,27.4,31.6z
	 M27.2,31.7c0-0.1-0.1-0.2-0.1-0.2c-0.1-0.1-0.1-0.1-0.2-0.1s-0.1,0-0.2,0s-0.1,0-0.2,0.1c-0.1,0-0.1,0.1-0.2,0.1
	c-0.2,0.1-0.3,0.3-0.3,0.5c0,0.2,0,0.3,0.1,0.4c0.1,0.1,0.1,0.1,0.2,0.1s0.1,0,0.2,0s0.1,0,0.2-0.1c0.1,0,0.1-0.1,0.2-0.1
	c0.1-0.1,0.1-0.1,0.2-0.2c0-0.1,0.1-0.1,0.1-0.2C27.2,31.9,27.2,31.8,27.2,31.7z M27.4,33.9c0.1,0,0.1,0,0.2,0s0.1-0.1,0.2-0.1
	c0.1-0.1,0.1-0.1,0.1-0.2c0-0.1,0-0.1,0-0.2c0-0.1,0-0.1-0.1-0.2c0-0.1,0-0.1-0.1-0.2c0-0.1,0-0.1,0-0.2c0-0.1,0-0.1,0.1-0.1
	c0.1-0.1,0.1-0.1,0.2,0c0.1,0,0.1,0.1,0.2,0.1c0,0.1,0.1,0.1,0.1,0.2c0,0.1,0.1,0.1,0.1,0.1l0.2-0.1c0-0.1-0.1-0.1-0.1-0.2
	c0-0.1-0.1-0.1-0.1-0.2c-0.1-0.1-0.1-0.1-0.2-0.2c-0.1,0-0.1-0.1-0.2-0.1s-0.1,0-0.2,0s-0.1,0.1-0.2,0.1c-0.1,0.1-0.1,0.1-0.1,0.2
	c0,0.1,0,0.1,0,0.2c0,0.1,0,0.1,0.1,0.2c0,0.1,0,0.1,0.1,0.2c0,0.1,0,0.1,0,0.2c0,0.1,0,0.1-0.1,0.1l-0.1,0.1h-0.1
	c0,0-0.1,0-0.1-0.1l-0.1-0.1c0,0-0.1-0.1-0.1-0.2c0-0.1-0.1-0.1-0.1-0.2l-0.2,0.1c0,0,0,0.1,0.1,0.2c0,0.1,0.1,0.1,0.1,0.2
	c0.1,0.1,0.1,0.1,0.2,0.2C27.2,33.8,27.3,33.9,27.4,33.9z M29.1,33.8l0.3,0.4l0.1-0.2l-0.8-0.9l-0.2,0.1l0.3,0.4l-1.1,1l0.2,0.2
	L29.1,33.8z M28.6,35.4l0.6,0.7l0.2-0.1l-0.5-0.5l0.4-0.4l0.4,0.4l0.2-0.1l-0.4-0.5l0.4-0.3l0.4,0.5l0.2-0.1l-0.6-0.7L28.6,35.4z
	 M22.4,32.1l-0.2-0.2l1.7-0.7l0.2,0.2L23.2,33L23,32.8l0.2-0.4l-0.5-0.5L22.4,32.1z M23,31.8l0.4,0.4l0.4-0.7l0,0L23,31.8z
	 M25.6,33.2c0.1,0.1,0.1,0.1,0.1,0.2c0,0.1,0,0.1,0,0.2s0,0.1,0,0.2c0,0.1-0.1,0.1-0.1,0.1L25.5,34c-0.1,0-0.1,0-0.2,0s-0.1,0-0.2,0
	s-0.1-0.1-0.2-0.1l-0.1,0.9l-0.2-0.2l0.1-0.9l0,0l-0.5,0.5L24,34l1.2-1.1L25.6,33.2z M25.5,33.5L25.5,33.5c0-0.1,0-0.2-0.1-0.2
	l-0.1-0.1l-0.4,0.4l0.1,0.1l0.1,0.1h0.1h0.1c0,0,0.1,0,0.1-0.1c0,0,0-0.1,0.1-0.1C25.5,33.6,25.5,33.6,25.5,33.5z M26.9,34.6
	l-1.2,1.1l0.2,0.2l1.2-1.1L26.9,34.6z M28.4,36.2c-0.1-0.1-0.1-0.1-0.2-0.2c-0.1,0-0.1,0-0.2,0s-0.1,0-0.2,0s-0.1,0.1-0.2,0.1
	c-0.1,0.1-0.1,0.1-0.1,0.2c0,0.1,0,0.1,0,0.2c0,0.1,0,0.1,0.1,0.2c0,0.1,0,0.1,0.1,0.2c0,0.1,0,0.1,0,0.2c0,0.1,0,0.1-0.1,0.1
	l-0.1,0.1h-0.1c0,0-0.1,0-0.1-0.1l-0.1-0.1c0,0-0.1-0.1-0.1-0.2c0-0.1-0.1-0.1-0.1-0.2l-0.2,0.1c0,0,0,0.1,0.1,0.2
	c0,0.1,0.1,0.1,0.1,0.2c0.1,0.1,0.1,0.1,0.2,0.2c0.1,0,0.1,0.1,0.2,0.1s0.1,0,0.2,0s0.1-0.1,0.2-0.1c0.1-0.1,0.1-0.1,0.1-0.2
	c0-0.1,0-0.1,0-0.2c0-0.1,0-0.1-0.1-0.2c0-0.1,0-0.1-0.1-0.2c0-0.1,0-0.1,0-0.2c0-0.1,0-0.1,0.1-0.1c0.1-0.1,0.1-0.1,0.2,0
	c0.1,0,0.1,0.1,0.2,0.1c0,0.1,0.1,0.1,0.1,0.2c0,0.1,0.1,0.1,0.1,0.1l0.2-0.1c0-0.1-0.1-0.1-0.1-0.2C28.5,36.3,28.4,36.2,28.4,36.2z
	 M19.9,32.3l-0.4-0.5l1.1-1l-0.2-0.2l-1.2,1.1l0.6,0.6H19.9z M19.9,32.5l1.7-0.7l0.2,0.2L21,33.6l-0.2-0.2L21,33l-0.5-0.5L20,32.7
	L19.9,32.5z M20.7,32.5l0.4,0.4l0.4-0.7l0,0L20.7,32.5z M21.4,33.5c-0.1,0.1-0.1,0.2-0.1,0.3s0,0.2,0,0.3s0.1,0.2,0.2,0.3
	s0.1,0.1,0.2,0.2c0.1,0,0.1,0.1,0.2,0.1l0.1-0.2c-0.1,0-0.1-0.1-0.2-0.1c0,0-0.1-0.1-0.2-0.1c-0.1-0.1-0.1-0.1-0.1-0.2
	c0-0.1,0-0.2,0-0.2c0-0.1,0-0.2,0.1-0.2c0-0.1,0.1-0.2,0.2-0.2c0.1-0.1,0.1-0.1,0.2-0.1s0.1,0,0.2,0s0.1,0,0.2,0s0.1,0.1,0.2,0.1
	c0.1,0.1,0.1,0.1,0.1,0.2c0,0.1,0.1,0.1,0.1,0.2l0.2-0.1v-0.1v-0.1c0,0,0-0.1-0.1-0.1l-0.1-0.1c-0.1-0.1-0.2-0.2-0.3-0.2
	c-0.1,0-0.2-0.1-0.3-0.1c-0.1,0-0.2,0-0.3,0.1c-0.1,0-0.2,0.1-0.3,0.2C21.6,33.3,21.5,33.4,21.4,33.5z M24,34.7c0,0.1,0,0.2,0,0.3
	s0,0.2-0.1,0.3s-0.1,0.2-0.2,0.3s-0.2,0.1-0.3,0.2c-0.1,0-0.2,0.1-0.3,0.1c-0.1,0-0.2,0-0.3-0.1c-0.1,0-0.2-0.1-0.3-0.2
	c-0.1-0.1-0.1-0.2-0.2-0.3c0-0.1,0-0.2,0-0.3s0-0.2,0.1-0.3s0.1-0.2,0.2-0.3s0.2-0.1,0.3-0.2c0.1,0,0.2-0.1,0.3-0.1
	c0.1,0,0.2,0,0.3,0.1c0.1,0,0.2,0.1,0.3,0.2C23.9,34.5,24,34.6,24,34.7z M23.8,34.8c0-0.1-0.1-0.2-0.1-0.2c-0.1-0.1-0.1-0.1-0.2-0.1
	s-0.1,0-0.2,0s-0.1,0-0.2,0.1c-0.1,0-0.1,0.1-0.2,0.1c-0.2,0.1-0.3,0.3-0.3,0.5s0,0.3,0.1,0.4c0.1,0.1,0.1,0.1,0.2,0.1s0.1,0,0.2,0
	s0.1,0,0.2-0.1c0.1,0,0.1-0.1,0.2-0.1c0.1-0.1,0.1-0.1,0.2-0.2c0-0.1,0.1-0.1,0.1-0.2C23.8,34.9,23.8,34.8,23.8,34.8z M24,36.9
	c0.1,0,0.1,0,0.2,0s0.1-0.1,0.2-0.1c0.1-0.1,0.1-0.1,0.1-0.2c0-0.1,0-0.1,0-0.2c0-0.1,0-0.1-0.1-0.2c0-0.1,0-0.1-0.1-0.2
	c0-0.1,0-0.1,0-0.2c0-0.1,0-0.1,0.1-0.1c0.1-0.1,0.1-0.1,0.2,0c0.1,0,0.1,0.1,0.2,0.1c0,0.1,0.1,0.1,0.1,0.2c0,0.1,0.1,0.1,0.1,0.1
	l0.2-0.1c0-0.1-0.1-0.1-0.1-0.2c0-0.1-0.1-0.1-0.1-0.2c-0.1-0.1-0.1-0.1-0.2-0.2c-0.1,0-0.1-0.1-0.2-0.1s-0.1,0-0.2,0
	s-0.1,0.1-0.2,0.1c-0.1,0.1-0.1,0.1-0.1,0.2c0,0.1,0,0.1,0,0.2c0,0.1,0,0.1,0.1,0.2c0,0.1,0,0.1,0.1,0.2c0,0.1,0,0.1,0,0.2
	c0,0.1,0,0.1-0.1,0.1l-0.1,0.1H24c0,0-0.1,0-0.1-0.1l-0.1-0.1c0,0-0.1-0.1-0.1-0.2c0-0.1-0.1-0.1-0.1-0.2l-0.2,0.1
	c0,0,0,0.1,0.1,0.2c0,0.1,0.1,0.1,0.1,0.2c0.1,0.1,0.1,0.1,0.2,0.2C23.8,36.9,23.9,36.9,24,36.9z M25.7,36.9l0.3,0.4l0.1-0.2
	l-0.8-0.9l-0.2,0.1l0.3,0.4l-1.1,1l0.2,0.2L25.7,36.9z M25.2,38.4l0.6,0.7L26,39l-0.5-0.5l0.4-0.4l0.4,0.4l0.2-0.1L26.1,38l0.4-0.3
	l0.4,0.5L27,38l-0.6-0.7L25.2,38.4z M17.6,33.6l-0.2-0.2l1.2-1.1l0.3,0.4c0.1,0.1,0.1,0.1,0.1,0.2c0,0.1,0,0.1,0,0.2
	c0,0.1,0,0.1,0,0.2c0,0.1-0.1,0.1-0.1,0.1c-0.1,0.1-0.1,0.1-0.2,0.1s-0.1,0-0.2,0s-0.1,0-0.2-0.1c-0.1,0-0.1-0.1-0.2-0.1L18,33.2
	c0,0,0-0.1-0.1-0.1L17.6,33.6z M18.3,33c0,0.1,0.1,0.1,0.1,0.2l0.1,0.1h0.1h0.1c0,0,0.1,0,0.1-0.1c0,0,0-0.1,0.1-0.1V33v-0.1
	c0,0,0-0.1-0.1-0.1l-0.2-0.2L18.3,33z M20.5,34.3l0.2,0.2l-0.8,1.6l-0.2-0.2l0.2-0.4L19.4,35L19,35.1L18.8,35L20.5,34.3z M20.4,34.6
	L20.4,34.6l-0.8,0.3l0.4,0.4L20.4,34.6z M22.2,36.2c0.1,0.1,0.1,0.1,0.1,0.2c0,0.1,0,0.1,0,0.2s0,0.1,0,0.2c0,0.1-0.1,0.1-0.1,0.1
	S22.1,37,22,37s-0.1,0-0.2,0s-0.1,0-0.2,0s-0.1-0.1-0.2-0.1l-0.1,0.9l-0.2-0.2l0.1-0.9l0,0l-0.5,0.5l0-0.2l1.2-1.1L22.2,36.2z
	 M22.1,36.6L22.1,36.6c0-0.1,0-0.2-0.1-0.2l-0.1-0.1l-0.4,0.4l0.1,0.1l0.1,0.1h0.1h0.1c0,0,0.1,0,0.1-0.1c0,0,0-0.1,0.1-0.1
	C22.1,36.7,22.1,36.6,22.1,36.6z M23.5,37.7l-1.2,1.1l0.2,0.2l1.2-1.1L23.5,37.7z M25,39.3c-0.1-0.1-0.1-0.1-0.2-0.2
	c-0.1,0-0.1-0.1-0.2-0.1s-0.1,0-0.2,0s-0.1,0.1-0.2,0.1c-0.1,0.1-0.1,0.1-0.1,0.2c0,0.1,0,0.1,0,0.2c0,0.1,0,0.1,0.1,0.2
	c0,0.1,0,0.1,0.1,0.2c0,0.1,0,0.1,0,0.2c0,0.1,0,0.1-0.1,0.1l-0.1,0.1H24c0,0-0.1,0-0.1-0.1l-0.1-0.1c0,0-0.1-0.1-0.1-0.2
	c0-0.1-0.1-0.1-0.1-0.2l-0.2,0.1c0,0,0,0.1,0.1,0.2c0,0.1,0.1,0.1,0.1,0.2c0.1,0.1,0.1,0.1,0.2,0.2c0.1,0,0.1,0.1,0.2,0.1
	s0.1,0,0.2,0s0.1-0.1,0.2-0.1s0.1-0.1,0.1-0.2c0-0.1,0-0.1,0-0.2c0-0.1,0-0.1-0.1-0.2c0-0.1,0-0.1-0.1-0.2c0-0.1,0-0.1,0-0.2
	c0-0.1,0-0.1,0.1-0.1c0.1-0.1,0.1-0.1,0.2,0c0.1,0,0.1,0.1,0.2,0.1c0,0.1,0.1,0.1,0.1,0.2c0,0.1,0.1,0.1,0.1,0.1l0.2-0.1
	c0-0.1-0.1-0.1-0.1-0.2C25.1,39.4,25,39.3,25,39.3z M16.6,35.4l-0.4-0.5l1.1-1L17,33.7l-1.2,1.1l0.6,0.6L16.6,35.4z M18.1,35
	l0.2,0.2l-0.8,1.6l-0.2-0.2l0.2-0.4L17,35.7l-0.4,0.2l-0.2-0.2L18.1,35z M18,35.2L18,35.2l-0.8,0.3l0.4,0.4L18,35.2z M18.3,36.3
	c-0.1,0.1-0.2,0.2-0.2,0.3C18,36.7,18,36.8,18,36.9s0,0.2,0,0.3s0.1,0.2,0.2,0.3s0.1,0.1,0.2,0.2c0.1,0,0.1,0.1,0.2,0.1l0.1-0.2
	c-0.1,0-0.1-0.1-0.2-0.1c0,0-0.1-0.1-0.2-0.1c-0.1-0.1-0.1-0.1-0.1-0.2c0-0.1,0-0.2,0-0.2c0-0.1,0-0.2,0.1-0.2
	c0-0.1,0.1-0.2,0.2-0.2c0.1-0.1,0.1-0.1,0.2-0.1s0.1,0,0.2,0s0.1,0,0.2,0s0.1,0.1,0.2,0.1c0.1,0.1,0.1,0.1,0.1,0.2
	c0,0.1,0.1,0.1,0.1,0.2l0.2-0.1v-0.1v-0.1c0,0,0-0.1-0.1-0.1l-0.1-0.1c-0.1-0.1-0.2-0.2-0.3-0.2c-0.1,0-0.2-0.1-0.3-0.1
	c-0.1,0-0.2,0-0.3,0.1C18.4,36.2,18.3,36.2,18.3,36.3z M19.1,38.6c-0.1-0.1-0.1-0.2-0.2-0.3c0-0.1,0-0.2,0-0.3s0-0.2,0.1-0.3
	s0.1-0.2,0.2-0.3s0.2-0.1,0.3-0.2c0.1,0,0.2-0.1,0.3-0.1c0.1,0,0.2,0,0.3,0.1c0.1,0,0.2,0.1,0.3,0.2c0.1,0.1,0.1,0.2,0.2,0.3
	c0,0.1,0,0.2,0,0.3s0,0.2-0.1,0.3s-0.1,0.2-0.2,0.3s-0.2,0.1-0.3,0.2c-0.1,0-0.2,0.1-0.3,0.1c-0.1,0-0.2,0-0.3-0.1
	C19.3,38.8,19.2,38.7,19.1,38.6z M19.3,38.5c0.1,0.1,0.1,0.1,0.2,0.1s0.1,0,0.2,0s0.1,0,0.2-0.1c0.1,0,0.1-0.1,0.2-0.1
	c0.1-0.1,0.1-0.1,0.2-0.2c0-0.1,0.1-0.1,0.1-0.2c0-0.1,0-0.2,0-0.2c0-0.1-0.1-0.2-0.1-0.2c-0.1-0.1-0.1-0.1-0.2-0.1s-0.1,0-0.2,0
	s-0.1,0-0.2,0.1c-0.1,0-0.1,0.1-0.2,0.1c-0.2,0.1-0.3,0.3-0.3,0.5C19.2,38.2,19.2,38.4,19.3,38.5z M20.6,40c0.1,0,0.1,0,0.2,0
	s0.1-0.1,0.2-0.1c0.1-0.1,0.1-0.1,0.1-0.2c0-0.1,0-0.1,0-0.2c0-0.1,0-0.1-0.1-0.2c0-0.1,0-0.1-0.1-0.2c0-0.1,0-0.1,0-0.2
	c0-0.1,0-0.1,0.1-0.1c0.1-0.1,0.1-0.1,0.2,0c0.1,0,0.1,0.1,0.2,0.1c0,0.1,0.1,0.1,0.1,0.2c0,0.1,0.1,0.1,0.1,0.1l0.2-0.1
	c0-0.1-0.1-0.1-0.1-0.2c0-0.1-0.1-0.1-0.1-0.2c-0.1-0.1-0.1-0.1-0.2-0.2c-0.1,0-0.1-0.1-0.2-0.1s-0.1,0-0.2,0s-0.1,0.1-0.2,0.1
	c-0.1,0.1-0.1,0.1-0.1,0.2c0,0.1,0,0.1,0,0.2c0,0.1,0,0.1,0.1,0.2c0,0.1,0,0.1,0.1,0.2c0,0.1,0,0.1,0,0.2c0,0.1,0,0.1-0.1,0.1
	l-0.1,0.1h-0.1c0,0-0.1,0-0.1-0.1l-0.1-0.1c0,0-0.1-0.1-0.1-0.2c0-0.1-0.1-0.1-0.1-0.2L20,39.4c0,0,0,0.1,0.1,0.2
	c0,0.1,0.1,0.1,0.1,0.2c0.1,0.1,0.1,0.1,0.2,0.2C20.4,40,20.5,40,20.6,40z M22.3,39.9l0.3,0.4l0.1-0.2L22,39.3l-0.2,0.1l0.3,0.4
	l-1.1,1l0.2,0.2L22.3,39.9z M21.8,41.5l0.6,0.7l0.2-0.1l-0.5-0.5l0.4-0.4l0.4,0.4l0.2-0.1L22.7,41l0.4-0.3l0.4,0.5l0.2-0.1L23,40.4
	L21.8,41.5z M14,36.5l1.2-1.1l0.3,0.4c0.1,0.1,0.1,0.1,0.1,0.2c0,0.1,0,0.1,0,0.2c0,0.1,0,0.1,0,0.2c0,0.1-0.1,0.1-0.1,0.1
	c-0.1,0.1-0.1,0.1-0.2,0.1c-0.1,0-0.1,0-0.2,0c-0.1,0-0.1,0-0.2-0.1c-0.1,0-0.1-0.1-0.2-0.1l-0.1-0.1c0,0,0-0.1-0.1-0.1L14,36.6
	V36.5z M14.9,36.1c0,0.1,0.1,0.1,0.1,0.2l0.1,0.1h0.1h0.1c0,0,0.1,0,0.1-0.1c0,0,0-0.1,0.1-0.1v-0.1V36c0,0,0-0.1-0.1-0.1l-0.2-0.2
	L14.9,36.1z M15.4,38l1.7-0.7l0.2,0.2l-0.8,1.6l-0.2-0.2l0.2-0.4L16,38l-0.4,0.2L15.4,38z M16.2,37.9l0.4,0.4l0.4-0.7l0,0L16.2,37.9
	z M17.8,40.7l0.1-0.9l0,0l-0.5,0.5l-0.2-0.2l1.2-1.1l0.3,0.4c0.1,0.1,0.1,0.1,0.1,0.2c0,0.1,0,0.1,0,0.2c0,0.1,0,0.1,0,0.2
	c0,0.1-0.1,0.1-0.1,0.1s-0.1,0.1-0.2,0.1s-0.1,0-0.2,0s-0.1,0-0.2,0s-0.1-0.1-0.2-0.1l0.1,0.8L17.8,40.7z M18.1,39.7l0.1,0.1
	l0.1,0.1h0.1h0.1c0,0,0.1,0,0.1-0.1c0,0,0-0.1,0.1-0.1v-0.1v-0.1c0,0,0-0.1-0.1-0.1l-0.1-0.1L18.1,39.7z M20.1,40.7l-1.2,1.1L19,42
	l1.2-1.1L20.1,40.7z M21.6,42.3c-0.1-0.1-0.1-0.1-0.2-0.2c-0.1,0-0.1-0.1-0.2-0.1s-0.1,0-0.2,0s-0.1,0.1-0.2,0.1
	c-0.1,0.1-0.1,0.1-0.1,0.2c0,0.1,0,0.1,0,0.2c0,0.1,0,0.1,0.1,0.2c0,0.1,0,0.1,0.1,0.2c0,0.1,0,0.1,0,0.2c0,0.1,0,0.1-0.1,0.1
	l-0.1,0.1h-0.1c0,0-0.1,0-0.1-0.1l-0.1-0.1c0,0-0.1-0.1-0.1-0.2c0-0.1-0.1-0.1-0.1-0.2L20,43c0,0,0,0.1,0.1,0.2
	c0,0.1,0.1,0.1,0.1,0.2c0.1,0.1,0.1,0.1,0.2,0.2c0.1,0,0.1,0.1,0.2,0.1s0.1,0,0.2,0s0.1-0.1,0.2-0.1c0.1-0.1,0.1-0.1,0.1-0.2
	c0-0.1,0-0.1,0-0.2c0-0.1,0-0.1-0.1-0.2c0-0.1,0-0.1-0.1-0.2c0-0.1,0-0.1,0-0.2c0-0.1,0-0.1,0.1-0.1c0.1-0.1,0.1-0.1,0.2,0
	c0.1,0,0.1,0.1,0.2,0.1c0,0.1,0.1,0.1,0.1,0.2c0,0.1,0.1,0.1,0.1,0.1l0.2-0.1c0-0.1-0.1-0.1-0.1-0.2C21.7,42.4,21.6,42.4,21.6,42.3z
	 M13.7,36.8l-1.2,1.1l0.6,0.6l0.2-0.1L12.7,38l1.1-1L13.7,36.8z M14.7,38l0.2,0.2l-0.8,1.6l-0.2-0.2l0.2-0.4l-0.5-0.5l-0.4,0.2
	L13,38.7L14.7,38z M14.6,38.3L14.6,38.3l-0.8,0.3l0.4,0.4L14.6,38.3z M14.9,39.4c-0.1,0.1-0.2,0.2-0.2,0.3c-0.1,0.1-0.1,0.2-0.1,0.3
	s0,0.2,0,0.3s0.1,0.2,0.2,0.3c0.1,0.1,0.1,0.1,0.2,0.2c0.1,0,0.1,0.1,0.2,0.1l0.1-0.2c-0.1,0-0.1-0.1-0.2-0.1c0,0-0.1-0.1-0.2-0.1
	c-0.1-0.1-0.1-0.1-0.1-0.2c0-0.1,0-0.2,0-0.2c0-0.1,0-0.2,0.1-0.2c0-0.1,0.1-0.2,0.2-0.2c0.1-0.1,0.1-0.1,0.2-0.1c0.1,0,0.1,0,0.2,0
	c0.1,0,0.1,0,0.2,0c0.1,0,0.1,0.1,0.2,0.1c0.1,0.1,0.1,0.1,0.1,0.2c0,0.1,0.1,0.1,0.1,0.2l0.2-0.1v-0.1v-0.1c0,0,0-0.1-0.1-0.1
	l-0.1-0.1c-0.1-0.1-0.2-0.2-0.3-0.2s-0.2-0.1-0.3-0.1s-0.2,0-0.3,0.1C15.1,39.2,15,39.3,14.9,39.4z M17.2,40.8c0,0.1,0,0.2,0,0.3
	s0,0.2-0.1,0.3s-0.1,0.2-0.2,0.3s-0.2,0.1-0.3,0.2c-0.1,0-0.2,0.1-0.3,0.1c-0.1,0-0.2,0-0.3-0.1c-0.1,0-0.2-0.1-0.3-0.2
	c-0.1-0.1-0.1-0.2-0.2-0.3c0-0.1,0-0.2,0-0.3s0-0.2,0.1-0.3s0.1-0.2,0.2-0.3c0.1-0.1,0.2-0.1,0.3-0.2c0.1,0,0.2-0.1,0.3-0.1
	c0.1,0,0.2,0,0.3,0.1c0.1,0,0.2,0.1,0.3,0.2C17.1,40.6,17.2,40.7,17.2,40.8z M17,40.9c0-0.1-0.1-0.2-0.1-0.2
	c-0.1-0.1-0.1-0.1-0.2-0.1s-0.1,0-0.2,0s-0.1,0-0.2,0.1c-0.1,0-0.1,0.1-0.2,0.1c-0.2,0.1-0.3,0.3-0.3,0.5s0,0.3,0.1,0.4
	c0.1,0.1,0.1,0.1,0.2,0.1c0.1,0,0.1,0,0.2,0s0.1,0,0.2-0.1c0.1,0,0.1-0.1,0.2-0.1c0.1-0.1,0.1-0.1,0.2-0.2c0-0.1,0.1-0.1,0.1-0.2
	C17,41,17,41,17,40.9z M17.2,43.1c0.1,0,0.1,0,0.2,0s0.1-0.1,0.2-0.1c0.1-0.1,0.1-0.1,0.1-0.2c0-0.1,0-0.1,0-0.2
	c0-0.1,0-0.1-0.1-0.2c0-0.1,0-0.1-0.1-0.2c0-0.1,0-0.1,0-0.2c0-0.1,0-0.1,0.1-0.1c0.1-0.1,0.1-0.1,0.2,0c0.1,0,0.1,0.1,0.2,0.1
	c0,0.1,0.1,0.1,0.1,0.2c0,0.1,0.1,0.1,0.1,0.1l0.2-0.1c0-0.1-0.1-0.1-0.1-0.2c0-0.1-0.1-0.1-0.1-0.2c-0.1-0.1-0.1-0.1-0.2-0.2
	c-0.1,0-0.1-0.1-0.2-0.1s-0.1,0-0.2,0s-0.1,0.1-0.2,0.1c-0.1,0.1-0.1,0.1-0.1,0.2c0,0.1,0,0.1,0,0.2c0,0.1,0,0.1,0.1,0.2
	c0,0.1,0,0.1,0.1,0.2c0,0.1,0,0.1,0,0.2c0,0.1,0,0.1-0.1,0.1l-0.1,0.1h-0.1c0,0-0.1,0-0.1-0.1L17,42.6c0,0-0.1-0.1-0.1-0.2
	c0-0.1-0.1-0.1-0.1-0.2l-0.2,0.1c0,0,0,0.1,0.1,0.2c0,0.1,0.1,0.1,0.1,0.2c0.1,0.1,0.1,0.1,0.2,0.2C17,43,17.1,43,17.2,43.1z
	 M18.9,43l0.3,0.4l0.1-0.2l-0.8-0.9l-0.2,0.1l0.3,0.4l-1.1,1l0.2,0.2L18.9,43z M18.4,44.6l0.6,0.7l0.2-0.1l-0.5-0.5l0.4-0.4l0.4,0.4
	l0.2-0.1l-0.4-0.5l0.4-0.3l0.4,0.5l0.2-0.1l-0.6-0.7L18.4,44.6z M10.8,39.7l-0.2-0.2l1.2-1.1l0.3,0.4c0.1,0.1,0.1,0.1,0.1,0.2
	c0,0.1,0,0.1,0,0.2c0,0.1,0,0.1,0,0.2c0,0.1-0.1,0.1-0.1,0.1c-0.1,0.1-0.1,0.1-0.2,0.1c-0.1,0-0.1,0-0.2,0c-0.1,0-0.1,0-0.2-0.1
	c-0.1,0-0.1-0.1-0.2-0.1l-0.1-0.1c0,0,0-0.1-0.1-0.1L10.8,39.7z M11.5,39.1c0,0.1,0.1,0.1,0.1,0.2l0.1,0.1h0.1h0.1
	c0,0,0.1,0,0.1-0.1c0,0,0-0.1,0.1-0.1v-0.1V39c0,0,0-0.1-0.1-0.1l-0.2-0.2L11.5,39.1z M13,42.2L12.9,42l0.2-0.4l-0.5-0.5l-0.4,0.2
	L12,41.1l1.7-0.7l0.2,0.2L13,42.2z M13.2,41.4l0.4-0.7l0,0L12.8,41L13.2,41.4z M14.4,43.7l0.1-0.9l0,0L14,43.3l-0.2-0.2L15,42
	l0.3,0.4c0.1,0.1,0.1,0.1,0.1,0.2c0,0.1,0,0.1,0,0.2s0,0.1,0,0.2c0,0.1-0.1,0.1-0.1,0.1s-0.1,0.1-0.2,0.1c-0.1,0-0.1,0-0.2,0
	c-0.1,0-0.1,0-0.2,0c-0.1,0-0.1-0.1-0.2-0.1l0.1,0.9L14.4,43.7z M14.7,42.7l0.1,0.1l0.1,0.1H15h0.1c0,0,0.1,0,0.1-0.1
	c0,0,0-0.1,0.1-0.1v-0.1v-0.1c0,0,0-0.1-0.1-0.1l-0.1-0.1L14.7,42.7z M16.9,44l-0.2-0.2l-1.2,1.1l0.2,0.2L16.9,44z M18.2,45.4
	c-0.1-0.1-0.1-0.1-0.2-0.2c-0.1,0-0.1-0.1-0.2-0.1s-0.1,0-0.2,0s-0.1,0.1-0.2,0.1c-0.1,0.1-0.1,0.1-0.1,0.2c0,0.1,0,0.1,0,0.2
	c0,0.1,0,0.1,0.1,0.2c0,0.1,0,0.1,0.1,0.2c0,0.1,0,0.1,0,0.2c0,0.1,0,0.1-0.1,0.1l-0.1,0.1h-0.1c0,0-0.1,0-0.1-0.1L17,46.2
	c0,0-0.1-0.1-0.1-0.2c0-0.1-0.1-0.1-0.1-0.2l-0.2,0.1c0,0,0,0.1,0.1,0.2c0,0.1,0.1,0.1,0.1,0.2c0.1,0.1,0.1,0.1,0.2,0.2
	c0.1,0,0.1,0.1,0.2,0.1s0.1,0,0.2,0s0.1-0.1,0.2-0.1c0.1-0.1,0.1-0.1,0.1-0.2c0-0.1,0-0.1,0-0.2c0-0.1,0-0.1-0.1-0.2
	c0-0.1,0-0.1-0.1-0.2c0-0.1,0-0.1,0-0.2c0-0.1,0-0.1,0.1-0.1c0.1-0.1,0.1-0.1,0.2,0c0.1,0,0.1,0.1,0.2,0.1c0,0.1,0.1,0.1,0.1,0.2
	c0,0.1,0.1,0.1,0.1,0.1l0.2-0.1c0-0.1-0.1-0.1-0.1-0.2C18.3,45.5,18.2,45.4,18.2,45.4z M9.8,41.5L9.3,41l1.1-1l-0.2-0.2L9,41
	l0.6,0.6L9.8,41.5z M10.5,42.7l0.2-0.4l-0.5-0.5L9.8,42l-0.2-0.2l1.7-0.7l0.2,0.2l-0.8,1.6L10.5,42.7z M10.8,42.1l0.4-0.7l0,0
	l-0.8,0.3L10.8,42.1z M11.5,42.8c0-0.1,0.1-0.2,0.2-0.2c0.1-0.1,0.1-0.1,0.2-0.1c0.1,0,0.1,0,0.2,0c0.1,0,0.1,0,0.2,0
	c0.1,0,0.1,0.1,0.2,0.1c0.1,0.1,0.1,0.1,0.1,0.2c0,0.1,0.1,0.1,0.1,0.2l0.2-0.1v-0.1v-0.1c0,0,0-0.1-0.1-0.1l-0.1-0.1
	c-0.1-0.1-0.2-0.2-0.3-0.2s-0.2-0.1-0.3-0.1s-0.2,0-0.3,0.1c-0.1,0-0.2,0.1-0.3,0.2c-0.1,0.1-0.2,0.2-0.2,0.3
	c-0.1,0.1-0.1,0.2-0.1,0.3s0,0.2,0,0.3s0.1,0.2,0.2,0.3c0.1,0.1,0.1,0.1,0.2,0.2c0.1,0,0.1,0.1,0.2,0.1l0.1-0.2
	c-0.1,0-0.1-0.1-0.2-0.1c0,0-0.1-0.1-0.2-0.1c-0.1-0.1-0.1-0.1-0.1-0.2c0-0.1,0-0.2,0-0.2C11.4,43,11.4,42.9,11.5,42.8z M13.2,45
	c-0.1,0-0.2,0-0.3,0s-0.2,0-0.3-0.1c-0.1,0-0.2-0.1-0.3-0.2c-0.1-0.1-0.1-0.2-0.2-0.3c0-0.1,0-0.2,0-0.3s0-0.2,0.1-0.3
	s0.1-0.2,0.2-0.3c0.1-0.1,0.2-0.1,0.3-0.2c0.1,0,0.2-0.1,0.3-0.1s0.2,0,0.3,0.1c0.1,0,0.2,0.1,0.3,0.2c0.1,0.1,0.1,0.2,0.2,0.3
	c0,0.1,0,0.2,0,0.3s0,0.2-0.1,0.3s-0.1,0.2-0.2,0.3C13.5,44.8,13.4,44.9,13.2,45z M13.2,44.7c0.1,0,0.1-0.1,0.2-0.1
	c0.1-0.1,0.1-0.1,0.2-0.2c0-0.1,0.1-0.1,0.1-0.2c0-0.1,0-0.2,0-0.2c0-0.1-0.1-0.2-0.1-0.2c-0.1-0.1-0.1-0.1-0.2-0.1
	c-0.1,0-0.1,0-0.2,0c-0.1,0-0.1,0-0.2,0.1c-0.1,0-0.1,0.1-0.2,0.1c-0.2,0.1-0.3,0.3-0.3,0.5s0,0.3,0.1,0.4c0.1,0.1,0.1,0.1,0.2,0.1
	c0.1,0,0.1,0,0.2,0C13,44.8,13.1,44.8,13.2,44.7z M14.3,45.6c0-0.1,0-0.1-0.1-0.2c0-0.1,0-0.1-0.1-0.2c0-0.1,0-0.1,0-0.2
	c0-0.1,0-0.1,0.1-0.1c0.1-0.1,0.1-0.1,0.2,0c0.1,0,0.1,0.1,0.2,0.1c0,0.1,0.1,0.1,0.1,0.2c0,0.1,0.1,0.1,0.1,0.1l0.2-0.1
	c0-0.1-0.1-0.1-0.1-0.2c0-0.1-0.1-0.1-0.1-0.2c-0.1-0.1-0.1-0.1-0.2-0.2c-0.1,0-0.1-0.1-0.2-0.1c-0.1,0-0.1,0-0.2,0
	c-0.1,0-0.1,0.1-0.2,0.1c-0.1,0.1-0.1,0.1-0.1,0.2c0,0.1,0,0.1,0,0.2c0,0.1,0,0.1,0.1,0.2c0,0.1,0,0.1,0.1,0.2c0,0.1,0,0.1,0,0.2
	c0,0.1,0,0.1-0.1,0.1l-0.1,0.1h-0.1c0,0-0.1,0-0.1-0.1l-0.1-0.1c0,0-0.1-0.1-0.1-0.2c0-0.1-0.1-0.1-0.1-0.2l-0.2,0.1
	c0,0,0,0.1,0.1,0.2c0,0.1,0.1,0.1,0.1,0.2c0.1,0.1,0.1,0.1,0.2,0.2c0.1,0,0.1,0.1,0.2,0.1c0.1,0,0.1,0,0.2,0c0.1,0,0.1-0.1,0.2-0.1
	C14.3,45.8,14.3,45.8,14.3,45.6C14.3,45.7,14.3,45.7,14.3,45.6z M15.9,46.4l0.1-0.2l-0.8-0.9L15,45.4l0.3,0.4l-1.1,1l0.2,0.2l1.1-1
	L15.9,46.4z M15,47.6l0.6,0.4l0.2-0.1l-0.5-0.2l0.4-0.4l0.4,0.4l0.2-0.1l-0.4-0.5l0.4-0.3l0.4,0.5l0.2-0.1l-0.6-0.7L15,47.6z
	 M7.4,42.8l-0.2-0.2l1.2-1.1l0.3,0.4c0.2,0,0.2,0.1,0.3,0.2c0,0.1,0,0.1,0,0.2c0,0.1,0,0.1,0,0.2c0,0.1-0.1,0.1-0.1,0.1
	c-0.1,0.1-0.1,0.1-0.2,0.1c-0.1,0-0.1,0-0.2,0c-0.1,0-0.1,0-0.2-0.1c-0.1,0-0.1-0.1-0.2-0.1L8,42.4c0,0,0-0.1-0.1-0.1L7.4,42.8z
	 M8.1,42.2c0,0.1,0.1,0.1,0.1,0.2l0.1,0.1h0.1h0.1c0,0,0.1,0,0.1-0.1c0,0,0-0.1,0.1-0.1v-0.1v-0.1c0,0,0-0.1-0.1-0.1l-0.2-0.2
	L8.1,42.2z M10.5,43.7l-0.8,1.6l-0.2-0.2l0.2-0.4l-0.5-0.5l-0.4,0.2l-0.2-0.2l1.7-0.7L10.5,43.7z M10.2,43.8L10.2,43.8l-0.8,0.3
	l0.4,0.4L10.2,43.8z M12.2,45.6c0,0.1,0,0.1,0,0.2s0,0.1,0,0.2c0,0.1-0.1,0.1-0.1,0.1s-0.1,0.1-0.2,0.1c-0.1,0-0.1,0-0.2,0
	c-0.1,0-0.1,0-0.2,0c-0.1,0-0.1-0.1-0.2-0.1L11.2,47L11,46.8l0.1-0.9l0,0l-0.5,0.5l-0.2-0.2l1.2-1.1l0.3,0.4
	C12.1,45.5,12.1,45.6,12.2,45.6z M12,45.8L12,45.8c0-0.1,0-0.2-0.1-0.2l-0.1-0.1l-0.4,0.4l0.1,0.1l0.1,0.1h0.1h0.1
	c0,0,0.1,0,0.1-0.1c0,0,0-0.1,0.1-0.1C11.9,45.9,12,45.8,12,45.8z M5.9,44.1l1.1-1l-0.2-0.2L5.6,44l0.6,0.6l0.2-0.1L5.9,44.1z
	 M8.1,44.3l-0.8,1.6l-0.2-0.2l0.2-0.4l-0.5-0.5L6.5,45l-0.2-0.2L8,44.1L8.1,44.3z M7.9,44.4L7.9,44.4l-0.8,0.3l0.4,0.4L7.9,44.4z
	 M9.4,45.8c0,0,0-0.1-0.1-0.1l-0.1-0.1c-0.1-0.1-0.2-0.2-0.3-0.2s-0.2-0.1-0.3-0.1s-0.2,0-0.3,0.1c-0.1,0-0.2,0.1-0.3,0.2
	c-0.1,0.1-0.2,0.2-0.2,0.3c-0.1,0.1-0.1,0.2-0.1,0.3s0,0.2,0,0.3s0.1-0.4,0.2-0.3l0,0l0,0C8,46,8,46,8.1,45.9c0-0.1,0.1-0.2,0.2-0.2
	c0.1-0.1,0.1-0.1,0.2-0.1c0.1,0,0.1,0,0.2,0c0.1,0,0.1,0,0.2,0c0.1,0,0.1,0.1,0.2,0.1c0.1,0.1,0.1,0.1,0.1,0.2
	c0,0.1,0.1,0.1,0.1,0.2L9.5,46v-0.1C9.4,45.8,9.4,45.8,9.4,45.8z M8,46.4c0,0.1,0.1,0.2,0.1,0.2s0.1-0.1,0.1-0.2c0,0-0.1,0-0.1-0.1
	c-0.1,0-0.1-0.1-0.2-0.1C8,46.2,8,46.3,8,46.4z M8.5,46.3c-0.1,0-0.1-0.1-0.2-0.1c0,0,0,0.1-0.1,0.2c0,0,0.1,0,0.1,0.1L8.5,46.3z
	 M4.7,45.3L4.7,45.3c0,0.1,0.1,0.2,0.1,0.2l0.1,0.1c0,0,0-0.1,0.1-0.1H4.9C4.8,45.3,4.7,45.3,4.7,45.3z M5.4,44.9l-0.3-0.4l-0.9,0.8
	L4,45.5h0.5c0,0,0,0.1,0.1,0.1c0,0,0-0.3,0.1-0.3l0,0l0.4-0.4l0.2,0.2l0.1,0.1v0.1v0.1c0,0,0,0.1-0.1,0.1l-0.1-0.3H5.1
	c0,0,0,0.1-0.1,0.2h0.1c0.1,0,0.1,0.4,0.2,0.4s0.1-0.1,0.2-0.1l0.1-0.1c0-0.1,0-0.1,0-0.2c0-0.1,0-0.1,0-0.2
	C5.5,45.1,5.5,45,5.4,44.9z M12.5,34.9c0.1,0.1,0.1,0.1,0.2,0.2c0.1,0,0.1,0.1,0.2,0.1c0.1,0,0.1,0,0.2,0c0.1,0,0.1-0.1,0.2-0.1
	c0.1-0.1,0.1-0.1,0.1-0.2c0-0.1,0-0.1,0-0.2c0-0.1,0-0.1-0.1-0.2c0-0.1,0-0.1-0.1-0.2c0-0.1,0-0.1,0-0.2c0-0.1,0-0.1,0.1-0.1
	c0.1-0.1,0.1-0.1,0.2,0c0.1,0,0.1,0.1,0.2,0.1c0,0.1,0.1,0.1,0.1,0.2c0,0.1,0.1,0.1,0.1,0.1l0.2-0.1c0-0.1-0.1-0.1-0.1-0.2
	c0-0.1-0.1-0.1-0.1-0.2c-0.1-0.1-0.1,0-0.2,0c-0.1,0-0.1-0.1-0.2-0.1c-0.1,0-0.1,0-0.2,0c-0.1,0-0.1,0.1-0.2,0.1
	c-0.1,0.1-0.1,0-0.1,0c0,0.1,0,0.1,0,0.2c0,0.1,0,0.1,0.1,0.2c0,0.1,0,0.1,0.1,0.2c0,0.1,0,0.1,0,0.2c0,0.1,0,0.1-0.1,0.1L13,34.9
	h-0.1c0,0-0.1,0-0.1-0.1l-0.1-0.1c0,0-0.1-0.1-0.1-0.2c0-0.1-0.1-0.1-0.1-0.2l-0.2,0.1c0,0,0,0.1,0.1,0.2
	C12.4,34.8,12.5,34.8,12.5,34.9z M5.5,30l-0.4-0.5l1.1-1L6,28.3l-1.2,1.1L5.5,30L5.5,30z M5.4,30.2l1.7-0.7l0.2,0.2l-0.8,1.6
	l-0.2-0.2l0.2-0.4L6,30.2l-0.4,0.2L5.4,30.2z M6.2,30.1l0.4,0.4L7,29.8l0,0L6.2,30.1z M7.2,30.9c0.1-0.1,0.2-0.1,0.3-0.2
	c0.1,0,0.2-0.1,0.3-0.1c0.1,0-0.3,0-0.2,0.1c0.1,0,0.2,0.1,0.3,0.2C7.9,31,7.9,31,8,31c0,0,0,0.1,0.1,0.1v0.1v0.1l-0.2,0.1
	c0-0.1,0-0.1-0.1-0.2c0-0.1-0.1-0.1-0.1-0.2s-0.1-0.1-0.2-0.1c0,0.1,0,0.1-0.1,0.1c-0.1,0.1-0.1,0.1-0.2,0.2c0,0.1-0.1,0.2-0.1,0.2
	c0,0.1,0,0.2,0,0.2c0,0.1,0.1,0.2,0.1,0.2c0.1,0.1,0.1,0.1,0.2,0.1c0,0,0.1,0.1,0.2,0.1l-0.1,0.2c-0.1,0-0.1-0.1-0.2-0.1
	S7.2,32,7.1,31.9C7,32,7,31.9,6.9,31.8c0-0.1,0-0.2,0-0.3c0-0.1,0-0.2,0.1-0.3C7,31,7.1,31,7.2,30.9z M7.8,30.9L7.8,30.9L7.8,30.9z
	 M8,32.3c0-0.1,0.1-0.2,0.2-0.3c0.1-0.1,0.2-0.1,0.3-0.2c0.1,0,0,0.2,0.1,0.2s0.2,0,0.3,0.1c0.1,0,0.2,0.1,0.3,0.2
	c0.1,0.1,0.1,0.2,0.2,0.3c0,0.1,0,0.2,0,0.3s0.2-0.1,0.1,0c-0.1,0.1-0.1,0.2-0.2,0.3c-0.1,0.1-0.2,0.1-0.3,0.2
	c-0.1,0-0.2,0.1-0.3,0.1s-0.2,0-0.3-0.1c-0.1,0-0.2-0.1-0.3-0.2C8,33.1,8,33,7.9,32.9c0-0.1,0-0.2,0-0.3C7.9,32.5,7.9,32.4,8,32.3z
	 M8.3,33c0.1,0.1,0.1,0.1,0.2,0.1c0.1,0,0.1,0,0.2,0c0.1,0,0.1,0,0.2-0.1C9,33,9,32.9,9.1,32.9c0,0,0-0.1,0.1-0.1c0-0.1,0-0.2,0-0.2
	c0-0.1-0.1-0.2-0.1-0.2C9,32.3,9,32.3,8.9,32.3c-0.1,0-0.1,0-0.2,0c-0.1,0-0.1,0-0.2,0.1c-0.1,0,0.1-0.2,0-0.1
	c-0.2,0.1-0.3,0.3-0.3,0.5C8.1,32.8,8.2,32.9,8.3,33z M9.4,34.3C9.3,34.2,9.3,34.2,9.4,34.3c-0.1-0.1-0.2-0.2-0.2-0.2
	c0-0.1-0.1-0.1-0.1-0.2L8.9,34c0,0,0,0.1,0.1,0.2c0,0.1,0.1,0.1,0.1,0.2c0.1,0.1,0.1,0.1,0.2,0.2c0.1,0,0.1,0.1,0.2,0.1
	c0.1,0,0.1,0,0.2,0c0.1,0,0.1-0.1,0.2-0.1c0.1-0.1,0.1-0.1,0.1-0.2c0-0.1,0-0.1,0-0.2c0-0.1,0-0.1-0.1-0.2c0-0.1,0-0.1-0.1-0.2
	c0-0.1,0-0.1,0-0.2c0-0.1,0-0.1,0.1-0.1c0.1-0.1,0.1-0.1,0.2,0c0.1,0,0.1,0.1,0.2,0.1c0,0.1,0.1,0.1,0.1,0.2c0,0.1,0.1,0.1,0.1,0.1
	l0.2-0.1c0-0.1-0.1-0.1-0.1-0.2c0-0.1-0.1-0.1-0.1-0.2c-0.1-0.1-0.1-0.1-0.2-0.2c-0.1,0-0.1-0.1-0.2-0.1c-0.1,0-0.1,0-0.2,0
	c-0.1,0-0.1,0.1-0.2,0.1c-0.1,0.1-0.1,0.1-0.1,0.2c0,0.1,0,0.1,0,0.2c0,0.1,0,0.1,0.1,0.2c0,0.1,0,0.1,0.1,0.2c0,0.1,0,0.1,0,0.2
	c0,0.1,0,0.1-0.1,0.1l-0.1,0.1L9.4,34.3C9.4,34.3,9.4,34.3,9.4,34.3z M10,35.3l0.2,0.2l1.1-1l0.3,0.4l0.1-0.2L11,33.8L10.8,34
	l0.3,0.4L10,35.3z M11.3,36.7l0.2-0.1L11,36.1l0.4-0.4l0.4,0.4L12,36l-0.4-0.5l0.4-0.3l0.4,0.5l0.2-0.1L12,35l-1.2,1.1L11.3,36.7z
	 M3.7,31.2l-0.1-0.4L3.5,31L3.7,31.2z M3.7,30.9L3.7,30.9l0.5-1l0.3,0.4c0.1,0.1,0.1,0.1,0.1,0.2s0,0.1,0,0.2s0,0.1,0,0.2
	S4.5,31,4.5,31c-0.1,0.1-0.1,0.1-0.2,0.1s-0.1,0-0.2,0S4,31.1,3.9,31C3.8,31,3.8,30.9,3.7,30.9C3.7,31,3.7,31,3.7,30.9z M3.8,30.7
	c0,0.1,0.1,0.1,0.1,0.2C4,30.9,4,30.9,4,31h0.1h0.1c0,0,0.1,0,0.1-0.1c0,0,0-0.1,0.1-0.1v-0.1v-0.1c0,0,0-0.1-0.1-0.1l-0.2-0.2
	L3.8,30.7z M3.6,30.8L3.6,30.8L3.6,30.8C3.7,30.8,3.7,30.8,3.6,30.8z M5.2,33.5l0.2-0.4L5,32.6l-0.4,0.2l-0.2-0.2L6,31.9l0.2,0.2
	l-0.8,1.6L5.2,33.5z M5.5,32.9l0.4-0.7l0,0l-0.8,0.3L5.5,32.9z M7.9,34.1c0,0.1,0,0.1,0,0.2c0,0.1,0,0.1,0,0.2
	c0,0.1-0.1,0.1-0.1,0.1s-0.1,0.1-0.2,0.1s-0.1,0-0.2,0s-0.1,0-0.2,0S7.1,34.6,7,34.6l0,0.9l-0.2-0.2l0.1-0.9l0,0l-0.5,0.5l-0.2-0.2
	l1.2-1.1L7.7,34C7.8,33.9,7.9,34,7.9,34.1z M7.7,34.2L7.7,34.2c0-0.1,0-0.2-0.1-0.2l-0.1-0.1L7,34.2l0.1,0.1l0.1,0.1h0.1h0.1
	c0,0,0.1,0,0.1-0.1c0,0,0-0.1,0.1-0.1C7.7,34.3,7.7,34.3,7.7,34.2z M7.8,36.4L8,36.6l1.2-1.1L9,35.3L7.8,36.4z M9.6,37.9H9.5
	c0,0-0.1,0-0.1-0.1l-0.1-0.1c0,0-0.1-0.1-0.1-0.2c0-0.1-0.1-0.1-0.1-0.2l-0.2,0.1c0,0,0,0.1,0.1,0.2c0,0.1,0.1,0.1,0.1,0.2
	c0.1,0.1,0.1,0.1,0.2,0.2c0.1,0,0.1,0.1,0.2,0.1c0.1,0,0.1,0,0.2,0c0.1,0,0.1-0.1,0.2-0.1c0.1-0.1,0.1-0.1,0.1-0.2
	c0-0.1,0-0.1,0-0.2c0-0.1,0-0.1-0.1-0.2c0-0.1,0-0.1-0.1-0.2c0-0.1,0-0.1,0-0.2c0-0.1,0-0.1,0.1-0.1c0.1-0.1,0.1-0.1,0.2,0
	c0.1,0,0.1,0.1,0.2,0.1c0,0.1,0.1,0.1,0.1,0.2c0,0.1,0.1,0.1,0.1,0.1l0.2-0.1c0-0.1-0.1-0.1-0.1-0.2c0-0.1-0.1-0.1-0.1-0.2
	c-0.1-0.1-0.1-0.1-0.2-0.2c-0.1,0-0.1-0.1-0.2-0.1c-0.1,0-0.1,0-0.2,0c-0.1,0-0.1,0.1-0.2,0.1c-0.1,0.1-0.1,0.1-0.1,0.2
	c0,0.1,0,0.1,0,0.2c0,0.1,0,0.1,0.1,0.2c0,0.1,0,0.1,0.1,0.2c0,0.1,0,0.1,0,0.2c0,0.1,0,0.1-0.1,0.1C9.7,37.9,9.7,37.9,9.6,37.9z
	 M3.7,35.1c0.1,0.1,0.1,0.1,0.2,0.2c0.1,0,0.1,0.1,0.2,0.1l0.1-0.2c-0.1,0-0.1-0.1-0.2-0.1C4,35.1,3.9,35,3.7,35.1
	c0-0.2,0-0.2,0-0.3c0-0.1,0-0.2,0-0.2c0-0.1,0-0.2,0.1-0.2c0-0.1,0.1-0.2,0.2-0.2C4.1,34.1,4.1,34,4.2,34s0.1,0,0.2,0s0.1,0,0.2,0
	s0.1,0.1,0.2,0.1c0.1,0.1,0.1,0.1,0.1,0.2C5,34.3,5,34.4,5,34.5l0.2-0.1v-0.1v-0.1c0,0,0-0.1-0.1-0.1C5.1,34.1,5,34,5,34
	c-0.1-0.1-0.2-0.2-0.3-0.2c-0.1,0-0.2-0.1-0.3-0.1c-0.1,0-0.2,0-0.3,0.1c-0.1,0-0.2,0.1-0.3,0.2c-0.1,0.1-0.2,0.2-0.2,0.3
	c-0.1,0.1-0.1,0.2-0.1,0.3s0,0.2,0,0.3C3.6,34.9,3.6,35,3.7,35.1z M5.1,34.9c0.1,0,0.2-0.1,0.3-0.1c0.1,0,0.2,0,0.3,0.1
	C5.8,35,5.9,35,6,35.1s0.1,0.2,0.2,0.3c0,0.1,0,0.2,0,0.3s0,0.2-0.1,0.3S6,36.2,5.9,36.3s-0.2,0.1-0.3,0.2c-0.1,0-0.2,0.1-0.3,0.1
	c-0.1,0-0.2,0-0.3-0.1c-0.1,0-0.2-0.1-0.3-0.2c-0.1-0.1-0.1-0.2-0.2-0.3c0-0.1,0-0.2,0-0.3s0-0.2,0.1-0.3s0.1-0.2,0.2-0.3
	C4.9,35,5,34.9,5.1,34.9z M5.2,35.1c-0.1,0-0.1,0.1-0.2,0.1c-0.2,0.1-0.3,0.3-0.3,0.5s0,0.3,0.1,0.4c0.1,0.1,0.1,0.1,0.2,0.1
	s0.1,0,0.2,0s0.1,0,0.2-0.1c0.1,0,0.1-0.1,0.2-0.1c0.2,0,0.2,0,0.3-0.1c0-0.1,0.1-0.1,0.1-0.2c0-0.1,0-0.2,0-0.2
	c0-0.1-0.1-0.2-0.1-0.2c-0.1-0.1-0.1-0.1-0.2-0.1s-0.1,0-0.2,0C5.4,35.1,5.3,35.1,5.2,35.1z M6.2,37.4L6.2,37.4
	c-0.1,0-0.2,0-0.2-0.1l-0.1-0.1c0,0-0.1-0.1-0.1-0.2c0-0.1-0.1-0.1-0.1-0.2L5.5,37c0,0,0,0.1,0.1,0.2c0,0.1,0.1,0.1,0.1,0.2
	c0.1,0.1,0.1,0.1,0.2,0.2c0.1,0,0.1,0.1,0.2,0.1s0.1,0,0.2,0s0.1-0.1,0.2-0.1c0.1-0.1,0.1-0.1,0.1-0.2c0-0.1,0-0.1,0-0.2
	c0-0.1,0-0.1-0.1-0.2c0-0.1,0-0.1-0.1-0.2c0-0.1,0-0.1,0-0.2c0-0.1,0-0.1,0.1-0.1c0.1-0.1,0.1-0.1,0.2,0c0.1,0,0.1,0.1,0.2,0.1
	c0,0.1,0.1,0.1,0.1,0.2c0,0.1,0.1,0.1,0.1,0.1l0.2-0.1c0-0.1-0.1-0.1-0.1-0.2c0-0.1-0.1-0.1-0.1-0.2C7,36.3,7,36.3,6.9,36.2
	c-0.1,0-0.1-0.1-0.2-0.1s-0.1,0-0.2,0s-0.1,0.1-0.2,0.1c-0.1,0.1-0.1,0.1-0.1,0.2c0,0.1,0,0.1,0,0.2c0,0.1,0,0.1,0.1,0.2
	c0,0.1,0,0.1,0.1,0.2c0,0.1,0,0.1,0,0.2c0,0.1,0,0.1-0.1,0.1C6.3,37.4,6.3,37.4,6.2,37.4z M7.9,37.6L8.2,38l0.1-0.2l-0.8-0.9L7.4,37
	l0.3,0.4l-1.1,1l0.2,0.2L7.9,37.6z M9.2,38.7L8.6,38l-1.2,1.1L8,39.8l0.2-0.1l-0.5-0.5l0.4-0.4l0.4,0.4l0.2-0.1l-0.4-0.5l0.4-0.3
	L9,38.8L9.2,38.7z M3,37.9l-0.2-0.2L4,36.6L4.3,37c0.1,0.1,0.1,0.1,0.1,0.2c0,0.1,0,0.1,0,0.2c0,0.1,0,0.1,0,0.2
	c0,0.1-0.1,0.1-0.1,0.1s-0.1,0.1-0.2,0.1s-0.1,0-0.2,0c-0.1,0-0.1,0-0.2,0c-0.1,0-0.1-0.1-0.2-0.1l-0.1,0.9l-0.2-0.2l0.1-0.9l0,0
	L3,37.9z M3.6,37.3L3.6,37.3l0.2,0.2h0.1H4c0,0,0.1,0,0.1-0.1c0,0,0-0.1,0.1-0.1v-0.1v-0.1c0,0,0-0.1-0.1-0.1L4,36.9L3.6,37.3z
	 M4.6,39.7l1.2-1.1l-0.2-0.2l-1.2,1.1L4.6,39.7z M6.8,40c0.1,0,0.1,0,0.2,0.1c0,0.1,0.1,0.1,0.1,0.2c0,0.1,0.1,0.1,0.1,0.1l0.2-0.1
	c0-0.1-0.1-0.1-0.1-0.2c0-0.1-0.1-0.1-0.1-0.2c-0.1,0-0.2-0.1-0.2-0.1s-0.1-0.1-0.2-0.1s-0.1,0-0.2,0s-0.1,0.1-0.2,0.1
	C6.3,39.9,6.3,40,6.3,40c0,0.1,0,0.1,0,0.2c0,0.1,0,0.1,0.1,0.2c0,0.1,0,0.1,0.1,0.2c0,0.1,0,0.1,0,0.2c0,0.1,0,0.1-0.1,0.1L6.3,41
	H6.2c0,0-0.1,0-0.1-0.1L6,40.8c0,0-0.1-0.1-0.1-0.2c0-0.1-0.1-0.1-0.1-0.2l-0.2,0.1c0,0,0,0.1,0.1,0.2c0,0.1,0.1,0.1,0.1,0.2
	C5.9,41,5.9,41,6,41.1c0.1,0,0.1,0.1,0.2,0.1s0.1,0,0.2,0s0.1-0.1,0.2-0.1C6.7,41,6.7,41,6.7,40.9c0-0.1,0-0.1,0-0.2
	c0-0.1,0-0.1-0.1-0.2c0-0.1,0-0.1-0.1-0.2c0-0.1,0-0.1,0-0.2c0-0.1,0-0.1,0.1-0.1C6.6,40,6.7,40,6.8,40z M2.6,40.4
	c0.1,0.1,0.1,0.1,0.2,0.2c0.1,0-0.1,0.1-0.1,0.1c0.1,0,0.1,0,0.2,0c0.1,0,0.1-0.1,0.2-0.1c0.1-0.1,0.1-0.1,0.1-0.2
	c0-0.1,0-0.1,0-0.2c0-0.1,0-0.1-0.1-0.2c0-0.1,0-0.1-0.1-0.2c0-0.1,0-0.1,0-0.2c0-0.1,0-0.1,0.1-0.1c0.1-0.1,0.1-0.1,0.2,0
	c0.1,0,0.1,0.1,0.2,0.1c0,0.1,0.1,0.1,0.1,0.2c0,0.1,0.1,0.1,0.1,0.1L4,39.7c0-0.1-0.1-0.1-0.1-0.2c0-0.1-0.1-0.1-0.1-0.2
	c-0.1-0.1-0.1-0.1-0.2-0.2c-0.1,0-0.1-0.1-0.2-0.1c-0.1,0-0.1,0-0.2,0c-0.1,0-0.1,0.1-0.2,0.1c-0.1,0.1-0.1,0.1-0.1,0.2
	c0,0.1,0,0.1,0,0.2c0,0.1,0,0.1,0.1,0.2c0,0.1,0,0.1,0.1,0.2c0,0.1,0,0.1,0,0.2c0,0.1,0,0.1-0.1,0.1l-0.1,0.1
	C2.8,40.5,2.7,40.5,2.6,40.4c0,0,0.3,0,0.3-0.1l-0.1-0.1c0,0-0.1-0.1-0.1-0.2c0-0.1-0.1-0.1-0.1-0.2l-0.2,0.1c0,0,0,0.1,0.1,0.2
	C2.5,40.3,2.6,40.4,2.6,40.4z M3.4,41.6l1.1-1L4.8,41L5,40.8L4.2,40L4,40.1l0.3,0.4l-1.1,1L3.4,41.6z M5.6,41.9l0.2-0.1l-0.6-0.7
	L4,42.2l0.6,0.7l0.2-0.1l-0.5-0.5l0.4-0.4l0.4,0.4l0.2-0.1l-0.4-0.5l0.4-0.3L5.6,41.9z M3.8,43c-0.1-0.1-0.1-0.1-0.2-0.2
	c-0.1,0-0.1-0.1-0.2-0.1c-0.1,0-0.1,0-0.2,0c-0.1,0-0.1,0.1-0.2,0.1C2.9,43,2.9,43,2.9,43.1s0,0.1,0,0.2c0,0.1,0,0.1,0.1,0.2
	c0,0.1,0,0.1,0.1,0.2c0,0.1,0,0.1,0,0.2C3,43.9,3,44,3,44l-0.1,0.1H2.8c0,0-0.1,0-0.1-0.1l-0.1-0.1c0,0-0.1-0.1-0.1-0.2
	c0-0.1-0.1-0.1-0.1-0.2l-0.2,0.1c0,0,0,0.1,0.1,0.2c0,0.1,0.1,0.1,0.1,0.2c0.1,0.1,0.1,0.1,0.2,0.2c0.1,0,0.1,0.1,0.2,0.1
	c0.1,0,0.1,0,0.2,0c0.1,0,0.1-0.1,0.2-0.1c0.1-0.1,0.1-0.1,0.1-0.2c0-0.1,0-0.1,0-0.2c0-0.1,0-0.1-0.1-0.2c0-0.1,0-0.1-0.1-0.2
	c0-0.1,0-0.1,0-0.2c0-0.1,0-0.1,0.1-0.1C3.3,43,3.3,43,3.4,43c0.1,0,0.1,0.1,0.2,0.1c0,0.1,0.1,0.1,0.1,0.2c0,0.1,0.1,0.1,0.1,0.1
	l0.2,0c0-0.1-0.1-0.1-0.1-0.2C3.8,43.1,3.8,43.1,3.8,43z M54,46.6l1.2-1.1l0.3,0.4c0.1,0.1,0.1,0.1,0.1,0.2c0,0.1,0,0.1,0,0.2
	c0,0.1,0,0.1,0,0.2c0,0.1-0.1,0.1-0.1,0.1c-0.1,0.1-0.1,0.1-0.2,0.1c-0.1,0-0.1,0-0.2,0c-0.1,0-0.1,0-0.2-0.1
	c-0.1,0-0.1-0.1-0.2-0.1l-0.1-0.1c0,0,0-0.1-0.1-0.1L54,46.7V46.6z M54.8,46.2c0,0.1,0.1,0.1,0.1,0.2l0.1,0.1h0.1h0.1
	c0,0,0.1,0,0.1-0.1c0,0,0-0.1,0.1-0.1v-0.1v-0.1c0,0,0-0.1-0.1-0.1l-0.2-0.2L54.8,46.2z M56.4,49.3l-0.2-0.2l0.2-0.4L56,48.2
	l-0.4,0.2l-0.2-0.2l1.7-0.7v0.2L56.4,49.3z M56.5,48.5l0.4-0.7l0,0l-0.8,0.3L56.5,48.5z M53.1,48.6l-0.4-0.5l1.1-1L53.6,47l-1.2,1.1
	l0.6,0.6L53.1,48.6z M53.9,49.7l0.2-0.4l-0.5-0.5L53.2,49L53,48.8l1.7-0.7l0.2,0.2L54,50L53.9,49.7z M54.2,49.2l0.4-0.7l0,0
	l-0.8,0.3L54.2,49.2z M54.8,49.9c0-0.1,0.1-0.2,0.2-0.2c0.1-0.1,0.1-0.1,0.2-0.1c0.1,0,0.1,0,0.2,0c0.1,0,0.1,0,0.2,0
	c0.1,0,0.1,0.1,0.2,0.1c0.1,0.1,0.1,0.1,0.1,0.2c0,0.1,0.1,0.1,0.1,0.2l0.2-0.1v-0.1v-0.1c0,0,0-0.1-0.1-0.1L56,49.6
	c-0.1-0.1-0.2-0.2-0.3-0.2s-0.2-0.1-0.3-0.1s-0.2,0-0.3,0.1s-0.2,0.1-0.3,0.2c-0.1,0.1-0.2,0.2-0.2,0.3c-0.1,0.1-0.1,0.2-0.1,0.3
	s0,0.2,0,0.3s0.1,0.2,0.2,0.3c0.1,0.1,0.1,0.1,0.2,0.2c0.1,0,0.1,0.1,0.2,0.1l0.1-0.2c-0.1,0-0.1-0.1-0.2-0.1c0,0-0.1-0.1-0.2-0.1
	c-0.1-0.1-0.1-0.1-0.1-0.2c0-0.1,0-0.2,0-0.2C54.7,50.1,54.8,50,54.8,49.9z M57.2,51.3c0,0.1,0,0.2-0.1,0.3s-0.1,0.2-0.2,0.3
	c-0.1,0.1-0.2,0.1-0.3,0.2c-0.1,0-0.2,0.1-0.3,0.1s-0.2,0-0.3-0.1c-0.1,0-0.2-0.1-0.3-0.2c-0.1-0.1-0.1-0.2-0.2-0.3
	c0-0.1,0-0.2,0-0.3s0-0.2,0.1-0.3s0.1-0.2,0.2-0.3c0.1-0.1,0.2-0.1,0.3-0.2c0.1,0,0.2-0.1,0.3-0.1s0.2,0,0.3,0.1
	c0.1,0,0.2,0.1,0.3,0.2c0.1,0.1,0.1,0.2,0.2,0.3C57.2,51.1,57.2,51.2,57.2,51.3z M56.9,51c0-0.1-0.1-0.2-0.1-0.2
	c-0.1-0.1-0.1-0.1-0.2-0.1c-0.1,0-0.1,0-0.2,0c-0.1,0-0.1,0-0.2,0.1c-0.1,0-0.1,0.1-0.2,0.1c-0.2,0.1-0.3,0.3-0.3,0.5s0,0.3,0.1,0.4
	c0.1,0.1,0.1,0.1,0.2,0.1c0.1,0,0.1,0,0.2,0c0.1,0,0.1,0,0.2-0.1c0.1,0,0.1-0.1,0.2-0.1c0.1-0.1,0.1-0.1,0.2-0.2
	c0-0.1,0.1-0.1,0.1-0.2C57,51.2,57,51.1,56.9,51z M50.7,49.9l-0.2-0.2l1.2-1.1L52,49c0.1,0.1,0.1,0.1,0.1,0.2c0,0.1,0,0.1,0,0.2
	c0,0.1,0,0.1,0,0.2c0,0.1-0.1,0.1-0.1,0.1c-0.1,0.1-0.1,0.1-0.2,0.1c-0.1,0-0.1,0-0.2,0c-0.1,0-0.1,0-0.2-0.1
	c-0.1,0-0.1-0.1-0.2-0.1l-0.1-0.1c0,0,0-0.1-0.1-0.1L50.7,49.9z M51.4,49.3c0,0.1,0.1,0.1,0.1,0.2l0.1,0.1h0.1h0.1
	c0,0,0.1,0,0.1-0.1c0,0,0-0.1,0.1-0.1v-0.1v-0.1c0,0,0-0.1-0.1-0.1l-0.2-0.2L51.4,49.3z M53.8,50.8L53,52.4l-0.2-0.2l0.2-0.4
	l-0.5-0.5l-0.4,0.2L52,51.2l1.7-0.7L53.8,50.8z M53.5,50.8L53.5,50.8l-0.8,0.3l0.4,0.4L53.5,50.8z M55.5,52.7c0,0.1,0,0.1,0,0.2
	c0,0.1,0,0.1,0,0.2c0,0.1-0.1,0.1-0.1,0.1s-0.1,0.1-0.2,0.1c-0.1,0-0.1,0-0.2,0c-0.1,0-0.1,0-0.2,0c-0.1,0-0.1-0.1-0.2-0.1l-0.1,0.3
	l-0.2-0.2l0.1-0.2l0,0L54,53.5l-0.2-0.2l1.2-1.1l0.3,0.4C55.4,52.6,55.5,52.7,55.5,52.7z M55.3,52.9L55.3,52.9c0-0.1,0-0.2-0.1-0.2
	l-0.1-0.1L54.7,53l0.1,0.1l0.1,0.1H55h0.1c0,0,0.1,0,0.1-0.1c0,0,0-0.1,0.1-0.1C55.3,52.9,55.3,52.9,55.3,52.9z M49.3,51.2l1.1-1
	L50.2,50L49,51.1l0.6,0.6l0.2-0.1L49.3,51.2z M51.5,51.4L50.6,53l-0.2-0.2l0.2-0.4l-0.5-0.5l-0.4,0.2l-0.2-0.2l1.7-0.7L51.5,51.4z
	 M51.2,51.5L51.2,51.5l-0.8,0.3l0.4,0.4L51.2,51.5z M52.7,52.8C52.7,52.8,52.7,52.7,52.7,52.8l-0.2-0.2c-0.1-0.1-0.2-0.2-0.3-0.2
	s-0.2-0.1-0.3-0.1s-0.2,0-0.3,0.1c-0.1,0-0.2,0.1-0.3,0.2c-0.1,0.1-0.2,0.2-0.2,0.3C51,53,51,53.1,51,53.2s0,0.2,0,0.3
	s0.1-0.4,0.2-0.3l0,0l0,0c0-0.1,0-0.2,0.1-0.2c0-0.1,0.1-0.2,0.2-0.2c0.1-0.1,0.1-0.1,0.2-0.1c0.1,0,0.1,0,0.2,0c0.1,0,0.1,0,0.2,0
	c0.1,0,0.1,0.1,0.2,0.1c0.1,0.1,0.1,0.1,0.1,0.2c0,0.1,0.1,0.1,0.1,0.2l0.2-0.1V53C52.8,52.9,52.8,52.9,52.7,52.8z M51.4,53.4
	C51.4,53.4,51.4,53.4,51.4,53.4c0-0.1,0-0.1-0.1-0.2C51.3,53.3,51.3,53.4,51.4,53.4z M51.7,53.5l0.1-0.2c-0.1,0-0.1-0.1-0.2-0.1
	c0,0-0.1-0.1-0.2-0.1c0,0-0.1,0.1-0.1,0.2l0.1,0.1C51.6,53.4,51.6,53.5,51.7,53.5z M48.9,52.2c0,0.1,0,0.1,0,0.2s0,0.1,0,0.2
	c0,0.1-0.1,0.1-0.1,0.1c-0.1,0.1-0.1,0.1-0.2,0.1c-0.1,0-0.1,0-0.2,0c-0.1,0-0.1,0-0.2-0.1c-0.1,0-0.1-0.1-0.2-0.1l-0.1-0.1
	c0,0,0-0.1-0.1-0.1l-0.5,0.4l-0.2-0.2l1.2-1.1l0.3,0.4C48.8,52.1,48.9,52.2,48.9,52.2z M48.7,52.4L48.7,52.4c0-0.1,0-0.2-0.1-0.2
	L48.4,52L48,52.4c0,0.1,0.1,0.1,0.1,0.2l0.1,0.1h0.1h0.1c0,0,0.1,0,0.1-0.1c0,0,0-0.1,0.1-0.1C48.7,52.5,48.7,52.4,48.7,52.4z
	 M47.7,38.3c-0.1,0-0.1,0-0.2,0h-0.1c0,0.2,0,0.4,0.1,0.4h0.1c0,0,0.1,0,0.1-0.1c0,0,0-0.1,0.1-0.1l0,0
	C47.8,38.4,47.8,38.3,47.7,38.3z M47,37.9C47,37.9,47,38,47,37.9c0.1,0.1,0.1,0.2,0.2,0.2c0.1,0.1,0.1,0.1,0.2,0.1h0.1
	c0-0.1,0-0.2-0.1-0.3l-0.1-0.1c-0.1-0.1-0.1-0.1-0.1-0.2l0.4,0.2l0.2,0.2l0.1,0.1v0.1v0.1c0,0.1,0.1,0.3,0.1,0.3l0.1-0.1
	c0-0.1,0-0.1,0-0.2c0-0.1,0-0.1,0-0.2c0-0.1-0.1-0.1-0.1-0.2l-1-0.3l-0.7,0.6l0.2,0.2L47,37.9z M47.7,39.7l1.7-0.7l0.2,0.2l-0.8,1.6
	l-0.2-0.2l0.2-0.4l-0.5-0.5l-0.4,0.2L47.7,39.7z M48.5,39.6l0.4,0.4l0.4-0.7l0,0L48.5,39.6z M49.6,41.7l1.2-1.1l0.3,0.4
	c0.1,0.1,0.1,0.1,0.1,0.2c0,0.1,0,0.1,0,0.2c0,0.1,0,0.1,0,0.2c0,0.1-0.1,0.1-0.1,0.1s-0.1,0.1-0.2,0.1c-0.1,0-0.1,0-0.2,0
	c-0.1,0-0.1,0-0.2,0c-0.1,0-0.1-0.1-0.2-0.1l-0.1,0.9L50,42.4l0.1-0.9l0,0L49.6,42L49.6,41.7z M50.4,41.3L50.4,41.3l0.2,0.2h0.1h0.1
	c0,0,0.1,0,0.1-0.1c0,0,0-0.1,0.1-0.1v-0.1v-0.1c0,0,0-0.1-0.1-0.1l-0.1-0.1L50.4,41.3z M51.3,43.7l1.2-1.1l-0.2-0.2l-1.2,1.1
	L51.3,43.7z M52.4,44.5l-0.2,0.1c0,0,0,0.1,0.1,0.2c0,0.1,0.1,0.1,0.1,0.2c0.1,0.1,0.1,0.1,0.2,0.2c0.1,0,0.1,0.1,0.2,0.1
	c0.1,0,0.1,0,0.2,0c0.1,0,0.1-0.1,0.2-0.1c0.1-0.1,0.1-0.1,0.1-0.2c0-0.1,0-0.1,0-0.2c0-0.1,0-0.1-0.1-0.2c0-0.1,0-0.1-0.1-0.2
	c0-0.1,0-0.1,0-0.2c0-0.1,0-0.1,0.1-0.1c0.1-0.1,0.1-0.1,0.2,0c0.1,0,0.1,0.1,0.2,0.1c0,0.1,0.1,0.1,0.1,0.2c0,0.1,0.1,0.1,0.1,0.1
	l0.2-0.1c0-0.1-0.1-0.1-0.1-0.2c0-0.1-0.1-0.1-0.1-0.2c-0.1-0.1-0.1-0.1-0.2-0.2c-0.1,0-0.1-0.1-0.2-0.1c-0.1,0-0.1,0-0.2,0
	c-0.1,0-0.1,0.1-0.2,0.1c0.1,0.1,0,0.2,0,0.3s0,0.1,0,0.2c0,0.1,0,0.1,0.1,0.2c0,0.1,0,0.1,0.1,0.2c0,0.1,0,0.1,0,0.2
	c0,0.1,0,0.1-0.1,0.1S53,45,53,45h-0.1c0,0-0.1,0-0.1-0.1l-0.1-0.1c0,0-0.1-0.1-0.1-0.2C52.5,44.7,52.5,44.6,52.4,44.5z M45.4,40.1
	L45,39.6l1.1-1l-0.2-0.2l-1.2,1.1l0.6,0.6L45.4,40.1z M47,39.7l0.2,0.2l-0.8,1.6l-0.2-0.2l0.2-0.4L46,40.3l-0.4,0.2l-0.2-0.2
	L47,39.7z M46.9,39.9L46.9,39.9l-0.8,0.3l0.4,0.4L46.9,39.9z M48.5,41.3C48.5,41.3,48.5,41.2,48.5,41.3l-0.2-0.2
	c-0.1-0.1-0.2-0.2-0.3-0.2s-0.2-0.1-0.3-0.1s-0.2,0-0.3,0.1c-0.1,0-0.2,0.1-0.3,0.2c-0.1,0.1-0.2,0.2-0.2,0.3
	c-0.1,0.1-0.1,0.2-0.1,0.3s0,0.2,0,0.3s0.1,0.2,0.2,0.3c0.1,0.1,0.1,0.1,0.2,0.2c0.1,0,0.1,0.1,0.2,0.1l0.1-0.2
	c-0.1,0-0.1-0.1-0.2-0.1c0,0-0.1-0.1-0.2-0.1C47,42.1,47,42.1,47,42c0-0.1,0-0.2,0-0.2c0-0.1,0-0.2,0.1-0.2c0-0.1,0.1-0.2,0.2-0.2
	c0.1-0.1,0.1-0.1,0.2-0.1c0.1,0,0.1,0,0.2,0c0.1,0,0.1,0,0.2,0c0.1,0,0.1,0.1,0.2,0.1c0.1,0.1,0.1,0.1,0.1,0.2
	c0,0.1,0.1,0.1,0.1,0.2l0.2-0.1v-0.1C48.5,41.4,48.5,41.3,48.5,41.3z M49.5,42.5c0,0.1,0,0.2,0,0.3s0,0.2-0.1,0.3s-0.1,0.2-0.2,0.3
	c-0.1,0.1-0.2,0.1-0.3,0.2c-0.1,0-0.2,0.1-0.3,0.1s-0.2,0-0.3-0.1c-0.1,0-0.2-0.1-0.3-0.2c-0.1-0.1-0.1-0.2-0.2-0.3
	c0-0.1,0-0.2,0-0.3s0-0.2,0.1-0.3s0.1-0.2,0.2-0.3c0.1-0.1,0.2-0.1,0.3-0.2c0.1,0,0.2-0.1,0.3-0.1s0.2,0,0.3,0.1
	c0.1,0,0.2,0.1,0.3,0.2C49.4,42.3,49.5,42.4,49.5,42.5z M49.3,42.6c0-0.1-0.1-0.2-0.1-0.2c-0.1-0.1-0.1-0.1-0.2-0.1
	c-0.1,0-0.1,0-0.2,0c-0.1,0-0.1,0-0.2,0.1c-0.1,0-0.1,0.1-0.2,0.1c-0.2,0.1-0.3,0.3-0.3,0.5s0,0.3,0.1,0.4c0.1,0.1,0.1,0.1,0.2,0.1
	c0.1,0,0.1,0,0.2,0c0.1,0,0.1,0,0.2-0.1c0.1,0,0.1-0.1,0.2-0.1c0.1-0.1,0.1-0.1,0.2-0.2c0-0.1,0.1-0.1,0.1-0.2
	C49.3,42.7,49.3,42.6,49.3,42.6z M49.5,44.5L49.5,44.5c-0.1,0-0.2,0-0.2-0.1l-0.1-0.1c0,0-0.1-0.1-0.1-0.2c0-0.1-0.1-0.1-0.1-0.2
	L48.8,44c0,0,0,0.1,0.1,0.2c0,0.1,0.1,0.1,0.1,0.2c0.1,0.1,0.1,0.1,0.2,0.2c0.1,0,0.1,0.1,0.2,0.1c0.1,0,0.1,0,0.2,0
	c0.1,0,0.1-0.1,0.2-0.1c0.1-0.1,0.1-0.1,0.1-0.2c0-0.1,0-0.1,0-0.2c0-0.1,0-0.1-0.1-0.2c0-0.1,0-0.1-0.1-0.2c0-0.1,0-0.1,0-0.2
	c0-0.1,0-0.1,0.1-0.1c0.1-0.1,0.1-0.1,0.2,0c0.1,0,0.1,0.1,0.2,0.1c0,0.1,0.1,0.1,0.1,0.2c0,0.1,0.1,0.1,0.1,0.1l0.2-0.1
	c0-0.1-0.1-0.1-0.1-0.2c0-0.1-0.1-0.1-0.1-0.2c-0.1-0.1-0.1-0.1-0.2-0.2c-0.1,0-0.1-0.1-0.2-0.1c-0.1,0-0.1,0-0.2,0
	c-0.1,0-0.1,0.1-0.2,0.1c-0.1,0.1-0.1,0.1-0.1,0.2c0,0.1,0,0.1,0,0.2c0,0.1,0,0.1,0.1,0.2c0,0.1,0,0.1,0.1,0.2c0,0.1,0,0.1,0,0.2
	c0,0.1,0,0.1-0.1,0.1C49.6,44.4,49.6,44.5,49.5,44.5z M50.2,45.6l1.1-1l0.3,0.4l0.1-0.2L50.9,44l-0.2,0.1l0.3,0.4l-1.1,1L50.2,45.6z
	 M52.5,45.8l-0.6-0.7l-1.2,1.1l0.6,0.7l0.2-0.1L51,46.3l0.4-0.4l0.4,0.4l0.2-0.1l-0.4-0.5l0.4-0.3l0.4,0.5L52.5,45.8z M43.1,41.4
	l-0.2-0.2l1.2-1.1l0.3,0.4c0.1,0.1,0.1,0.1,0.1,0.2c0,0.1,0,0.1,0,0.2c0,0.1,0,0.1,0,0.2c0,0.1-0.1,0.1-0.1,0.1
	c-0.1,0.1-0.1,0.1-0.2,0.1c-0.1,0-0.1,0-0.2,0c-0.1,0-0.1,0-0.2-0.1c-0.1,0-0.1-0.1-0.2-0.1L43.5,41c0,0,0-0.1-0.1-0.1L43.1,41.4z
	 M43.7,40.8c0,0.1,0.1,0.1,0.1,0.2l0.1,0.1H44h0.1c0,0,0.1,0,0.1-0.1c0,0,0-0.1,0.1-0.1v-0.1v-0.1c0,0,0-0.1-0.1-0.1L44,40.4
	L43.7,40.8z M44.3,42.7L46,42l0.2,0.2l-0.8,1.6l-0.2-0.2l0.2-0.4l-0.5-0.5l-0.4,0.2L44.3,42.7z M45.1,42.7l0.4,0.4l0.4-0.7l0,0
	L45.1,42.7z M46.7,45.4l0.1-0.9l0,0L46.3,45l-0.2-0.2l1.2-1.1l0.3,0.4c0.1,0.1,0.1,0.1,0.1,0.2c0,0.1,0,0.1,0,0.2c0,0.1,0,0.1,0,0.2
	c0,0.1-0.1,0.1-0.1,0.1s-0.1,0.1-0.2,0.1c-0.1,0-0.1,0-0.2,0c-0.1,0-0.1,0-0.2,0c-0.1,0-0.1-0.1-0.2-0.1l-0.1,0.9L46.7,45.4z
	 M47,44.4L47,44.4l0.2,0.2h0.1h0.1c0,0,0.1,0,0.1-0.1c0,0,0-0.1,0.1-0.1v-0.1v-0.1c0,0,0-0.1-0.1-0.1L47.4,44L47,44.4z M49.2,45.6
	L49,45.5l-1.2,1.1l0.2,0.2L49.2,45.6z M50.1,47.1c0.1,0,0.1,0.1,0.2,0.1c0,0.1,0.1,0.1,0.1,0.2c0,0.1,0.1,0.1,0.1,0.1l0.2-0.1
	c0-0.1-0.1-0.1-0.1-0.2c0-0.1-0.1-0.1-0.1-0.2c-0.1-0.1-0.1-0.1-0.2-0.2c-0.1,0-0.1-0.1-0.2-0.1c-0.1,0-0.1,0-0.2,0
	c-0.1,0-0.1,0.1-0.2,0.1c-0.1,0.1-0.1,0.1-0.1,0.2c0,0.1,0,0.1,0,0.2c0,0.1,0,0.1,0.1,0.2c0,0.1,0,0.1,0.1,0.2c0,0.1,0,0.1,0,0.2
	c0,0.1,0,0.1-0.1,0.1L49.6,48h-0.1c0,0-0.1,0-0.1-0.1l-0.1-0.1c0,0-0.1-0.1-0.1-0.2c0-0.1-0.1-0.1-0.1-0.2l-0.2,0.1
	c0,0,0,0.1,0.1,0.2c0,0.1,0.1,0.1,0.1,0.2c0.1,0.1,0.1,0.1,0.2,0.2c0.1,0,0.1,0.1,0.2,0.1c0.1,0,0.1,0,0.2,0c0.1,0,0.1-0.1,0.2-0.1
	c0.1,0,0.1,0,0.1-0.1s0-0.1,0-0.2c0-0.1,0-0.1-0.1-0.2c0-0.1,0-0.1-0.1-0.2c0-0.1,0-0.1,0-0.2c0-0.1,0-0.1,0.1-0.1S50,47,50.1,47.1z
	 M42,43.2l-0.4-0.5l1.1-1l-0.2-0.2l-1.2,1.1l0.6,0.6L42,43.2z M43.6,42.7l0.2,0.2L43,44.5l-0.2-0.2l0.2-0.4l-0.5-0.5l-0.4,0.2
	L42,43.4L43.6,42.7z M43.5,43L43.5,43l-0.8,0.3l0.4,0.4L43.5,43z M43.7,44.1c-0.1,0.1-0.2,0.2-0.2,0.3c-0.1,0.1-0.1,0.2-0.1,0.3
	s0,0.2,0,0.3s0.1,0.2,0.2,0.3c0.1,0.1,0.1,0.1,0.2,0.2c0.1,0,0.1,0.1,0.2,0.1l0.1-0.2c-0.1,0-0.1-0.1-0.2-0.1c0,0-0.1-0.1-0.2-0.1
	c-0.1-0.1-0.1-0.1-0.1-0.2c0-0.1,0-0.2,0-0.2c0-0.1,0-0.2,0.1-0.2c0-0.1,0.1-0.2,0.2-0.2c0.1-0.1,0.1-0.1,0.2-0.1c0.1,0,0.1,0,0.2,0
	s0.1,0,0.2,0c0.1,0,0.1,0.1,0.2,0.1c0.1,0.1,0.1,0.1,0.1,0.2c0,0.1,0.1,0.1,0.1,0.2l0.2-0.1v-0.1v-0.1c0,0,0-0.1-0.1-0.1l-0.1-0.1
	c-0.1-0.1-0.2-0.2-0.3-0.2S44.4,44,44.3,44s-0.2,0-0.3,0.1C43.9,43.9,43.8,44,43.7,44.1z M46.1,45.6c0,0.1,0,0.2,0,0.3
	s0,0.2-0.1,0.3s-0.1,0.2-0.2,0.3c-0.1,0.1-0.2,0.1-0.3,0.2c-0.1,0-0.2,0.1-0.3,0.1s-0.2,0-0.3-0.1c-0.1,0-0.2-0.1-0.3-0.2
	c-0.1-0.1-0.1-0.2-0.2-0.3c0-0.1,0-0.2,0-0.3s0-0.2,0.1-0.3s0.1-0.2,0.2-0.3c0.1-0.1,0.2-0.1,0.3-0.2c0.1,0,0.2-0.1,0.3-0.1
	s0.2,0,0.3,0.1c0.1,0,0.2,0.1,0.3,0.2C46,45.4,46.1,45.5,46.1,45.6z M45.9,45.6c0-0.1-0.1-0.2-0.1-0.2c-0.1-0.1-0.1-0.1-0.2-0.1
	c-0.1,0-0.1,0-0.2,0c-0.1,0-0.1,0-0.2,0.1c-0.1,0-0.1,0.1-0.2,0.1c-0.2,0.1-0.3,0.3-0.3,0.5s0,0.3,0.1,0.4c0.1,0.1,0.1,0.1,0.2,0.1
	c0.1,0,0.1,0,0.2,0c0.1,0,0.1,0,0.2-0.1c0.1,0,0.1-0.1,0.2-0.1c0.1-0.1,0.1-0.1,0.2-0.2c0-0.1,0.1-0.1,0.1-0.2
	C45.9,45.8,45.9,45.7,45.9,45.6z M46.1,47.8c0.1,0,0.1,0,0.2,0c0.1,0,0.1-0.1,0.2-0.1c0.1-0.1,0.1-0.1,0.1-0.2c0-0.1,0-0.1,0-0.2
	c0-0.1,0-0.1-0.1-0.2c0-0.1,0-0.1-0.1-0.2c0-0.1,0-0.1,0-0.2c0-0.1,0-0.1,0.1-0.1c0.1-0.1,0.1-0.1,0.2,0c0.1,0,0.1,0.1,0.2,0.1
	c0,0.1,0.1,0.1,0.1,0.2c0,0.1,0.1,0.1,0.1,0.1l0.2-0.1c0-0.1-0.1-0.1-0.1-0.2c0-0.1-0.1-0.1-0.1-0.2c-0.1-0.1-0.1-0.1-0.2-0.2
	c-0.1,0-0.1-0.1-0.2-0.1c-0.1,0-0.1,0-0.2,0c-0.1,0-0.1,0.1-0.2,0.1c-0.1,0.1-0.1,0.1-0.1,0.2c0,0.1,0,0.1,0,0.2
	c0,0.1,0,0.1,0.1,0.2c0,0.1,0,0.1,0.1,0.2c0,0.1,0,0.1,0,0.2c0,0.1,0,0.1-0.1,0.1l-0.1,0.1h-0.1c0,0-0.1,0-0.1-0.1l-0.1-0.1
	c0,0-0.1-0.1-0.1-0.2c0-0.1-0.1-0.1-0.1-0.2L45.5,47c0,0,0,0.1,0.1,0.2c0,0.1,0.1,0.1,0.1,0.2c0.1,0.1,0.1,0.1,0.2,0.2
	C45.9,47.7,46,47.8,46.1,47.8z M47.8,47.7l0.3,0.4l0.1-0.2L47.4,47l-0.2,0.1l0.3,0.4l-1.1,1l0.2,0.2L47.8,47.7z M49,49l0.2-0.1
	l-0.6-0.7l-1.2,1.1L48,50l0.2-0.1l-0.5-0.5L48,49l0.4,0.4l0.2-0.1l-0.4-0.5l0.4-0.3L49,49z M39.7,44.5l-0.2-0.2l1.2-1.1l0.3,0.4
	c0.1,0.1,0.1,0.1,0.1,0.2c0,0.1,0,0.1,0,0.2c0,0.1,0,0.1,0,0.2c0,0.1-0.1,0.1-0.1,0.1c-0.1,0.1-0.1,0.1-0.2,0.1c-0.1,0-0.1,0-0.2,0
	c-0.1,0-0.1,0-0.2-0.1c-0.1,0-0.1-0.1-0.2-0.1l-0.1-0.1c0,0,0-0.1-0.1-0.1L39.7,44.5z M40.4,43.9c0,0.1,0.1,0.1,0.1,0.2l0.1,0.1h0.1
	h0.1c0,0,0.1,0,0.1-0.1c0,0,0-0.1,0.1-0.1v-0.1v-0.1c0,0,0-0.1-0.1-0.1l-0.2-0.2L40.4,43.9z M40.9,45.8l1.7-0.7l0.2,0.2L42,46.9
	l-0.2-0.2l0.2-0.4l-0.5-0.5L41.1,46L40.9,45.8z M41.7,45.7l0.4,0.4l0.4-0.7l0,0L41.7,45.7z M43.3,48.4l0.1-0.9l0,0L42.9,48l-0.2-0.2
	l1.2-1.1l0.3,0.4c0.1,0.1,0.1,0.1,0.1,0.2c0,0.1,0,0.1,0,0.2c0,0.1,0,0.1,0,0.2c0,0.1-0.1,0.1-0.1,0.1s-0.1,0.1-0.2,0.1
	c-0.1,0-0.1,0-0.2,0c-0.1,0-0.1,0-0.2,0c-0.1,0-0.1-0.1-0.2-0.1l-0.1,0.9V48.4z M43.6,47.5L43.6,47.5l0.2,0.2h0.1H44
	c0,0,0.1,0,0.1-0.1c0,0,0-0.1,0.1-0.1v-0.1v-0.1c0,0,0-0.1-0.1-0.1L44,47.1L43.6,47.5z M45.8,48.7l-0.2-0.2l-1.2,1.1l0.2,0.2
	L45.8,48.7z M47.2,50.3c0-0.1-0.1-0.1-0.1-0.2C47,50,47,50,46.9,50s-0.1-0.1-0.2-0.1c-0.1,0-0.1,0-0.2,0c-0.1,0-0.1,0.1-0.2,0.1
	c-0.1,0.1-0.1,0.1-0.1,0.2c0,0.1,0,0.1,0,0.2c0,0.1,0,0.1,0.1,0.2c0,0.1,0,0.1,0.1,0.2c0,0.1,0,0.1,0,0.2c0,0.1,0,0.1-0.1,0.1
	l-0.1,0.1h-0.1c0,0-0.1,0-0.1-0.1L45.9,51c0,0-0.1-0.1-0.1-0.2c0-0.1-0.1-0.1-0.1-0.2l-0.2,0.1c0,0,0,0.1,0.1,0.2
	c0,0.1,0.1,0.1,0.1,0.2c0.1,0.1,0.1,0.1,0.2,0.2c0.1,0,0.1,0.1,0.2,0.1c0.1,0,0.1,0,0.2,0c0.1,0,0.1-0.1,0.2-0.1
	c0.1-0.1,0.1-0.1,0.1-0.2c0-0.1,0-0.1,0-0.2c0-0.1,0-0.1-0.1-0.2c0-0.1,0-0.1-0.1-0.2c0-0.1,0-0.1,0-0.2c0-0.1,0-0.1,0.1-0.1
	c0.1-0.1,0.1-0.1,0.2,0c0.1,0,0.1,0.1,0.2,0.1c0,0.1,0.1,0.1,0.1,0.2c0,0.1,0.1,0.1,0.1,0.1l0.2-0.1C47.3,50.4,47.3,50.3,47.2,50.3z
	 M38.7,46.2l-0.4-0.5l1.1-1l-0.2-0.2L38,45.6l0.6,0.6L38.7,46.2z M39.4,47.4l0.2-0.4l-0.5-0.5l-0.4,0.2l-0.2-0.2l1.7-0.7l0.2,0.2
	l-0.8,1.6L39.4,47.4z M39.7,46.8l0.4-0.7l0,0l-0.8,0.3L39.7,46.8z M40.4,47.5c0-0.1,0.1-0.2,0.2-0.2c0.1-0.1,0.1-0.1,0.2-0.1
	c0.1,0,0.1,0,0.2,0c0.1,0,0.1,0,0.2,0c0.1,0,0.1,0.1,0.2,0.1c0.1,0.1,0.1,0.1,0.1,0.2c0,0.1,0.1,0.1,0.1,0.2l0.2-0.1v-0.1v-0.1
	c0,0,0-0.1-0.1-0.1l-0.1-0.1c-0.1-0.1-0.2-0.2-0.3-0.2s-0.2-0.1-0.3-0.1s-0.2,0-0.3,0.1c-0.1,0-0.2,0.1-0.3,0.2
	c-0.1,0.1-0.2,0.2-0.2,0.3c-0.1,0.1-0.1,0.2-0.1,0.3s0,0.2,0,0.3s0.1,0.2,0.2,0.3c0.1,0.1,0.1,0.1,0.2,0.2c0.1,0,0.1,0.1,0.2,0.1
	l0.1-0.2c-0.1,0-0.1-0.1-0.2-0.1c0,0-0.1-0.1-0.2-0.1c-0.1-0.1-0.1-0.1-0.1-0.2c0-0.1,0-0.2,0-0.2C40.3,47.7,40.3,47.6,40.4,47.5z
	 M41.1,49.2c0-0.1,0-0.2,0-0.3s0-0.2,0.1-0.3s0.1-0.2,0.2-0.3c0.1-0.1,0.2-0.1,0.3-0.2c0.1,0,0.2-0.1,0.3-0.1s0.2,0,0.3,0.1
	c0.1,0,0.2,0.1,0.3,0.2c0.1,0.1,0.1,0.2,0.2,0.3c0,0.1,0,0.2,0,0.3s0,0.2-0.1,0.3s-0.1,0.2-0.2,0.3c-0.1,0.1-0.2,0.1-0.3,0.2
	c-0.1,0-0.2,0.1-0.3,0.1s-0.2,0-0.3-0.1c-0.1,0-0.2-0.1-0.3-0.2C41.2,49.4,41.1,49.3,41.1,49.2z M41.4,49.3c0.1,0.1,0.1,0.1,0.2,0.1
	c0.1,0,0.1,0,0.2,0c0.1,0,0.1,0,0.2-0.1c0.1,0,0.1-0.1,0.2-0.1c0.1-0.1,0.1-0.1,0.2-0.2c0-0.1,0.1-0.1,0.1-0.2c0-0.1,0-0.2,0-0.2
	c0-0.1-0.1-0.2-0.1-0.2c-0.1-0.1-0.1-0.1-0.2-0.1c-0.1,0-0.1,0-0.2,0c-0.1,0-0.1,0-0.2,0.1c-0.1,0-0.1,0.1-0.2,0.1
	c-0.2,0.1-0.3,0.3-0.3,0.5C41.3,49.1,41.3,49.2,41.4,49.3z M43.2,50.3c0-0.1,0-0.1-0.1-0.2c0-0.1,0-0.1-0.1-0.2c0-0.1,0-0.1,0-0.2
	c0-0.1,0-0.1,0.1-0.1c0.1-0.1,0.1-0.1,0.2,0c0.1,0,0.1,0.1,0.2,0.1c0,0.1,0.1,0.1,0.1,0.2c0,0.1,0.1,0.1,0.1,0.1l0.2-0.1
	c0-0.1-0.1-0.1-0.1-0.2c0-0.1-0.1-0.1-0.1-0.2c-0.1-0.1-0.1-0.1-0.2-0.2c-0.1,0-0.1-0.1-0.2-0.1c-0.1,0-0.1,0-0.2,0
	c-0.1,0-0.1,0.1-0.2,0.1c-0.1,0.1-0.1,0.1-0.1,0.2c0,0.1,0,0.1,0,0.2c0,0.1,0,0.1,0.1,0.2c0,0.1,0,0.1,0.1,0.2c0,0.1,0,0.1,0,0.2
	c0,0.1,0,0.1-0.1,0.1l-0.1,0.1h-0.1c0,0-0.1,0-0.1-0.1l-0.1-0.1c0,0-0.1-0.1-0.1-0.2c0-0.1-0.1-0.1-0.1-0.2L42.1,50
	c0,0,0,0.1,0.1,0.2c0,0.1,0.1,0.1,0.1,0.2c0.1,0.1,0.1,0.1,0.2,0.2c0.1,0,0.1,0.1,0.2,0.1c0.1,0,0.1,0,0.2,0c0.1,0,0.1-0.1,0.2-0.1
	C43.2,50.5,43.2,50.5,43.2,50.3C43.2,50.5,43.2,50.4,43.2,50.3z M44.8,51.2l0.1-0.2l-0.8-0.9l-0.2,0.1l0.3,0.4l-1.1,1l0.2,0.2l1.1-1
	L44.8,51.2z M43.9,52.3l0.6,0.7l0.2-0.1l-0.5-0.5l0.4-0.4l0.4,0.4l0.2-0.1l-0.4-0.5l0.4-0.3l0.4,0.5l0.2-0.1l-0.6-0.7L43.9,52.3z
	 M36.3,47.5l-0.2-0.2l1.2-1.1l0.3,0.4c0.1,0.1,0.1,0.1,0.1,0.2c0,0.1,0,0.1,0,0.2c0,0.1,0,0.1,0,0.2c0,0.1-0.1,0.1-0.1,0.1
	c-0.1,0.1-0.1,0.1-0.2,0.1c-0.1,0-0.1,0-0.2,0c-0.1,0-0.1,0-0.2-0.1c-0.1,0-0.1-0.1-0.2-0.1l-0.1-0.1c0,0,0-0.1-0.1-0.1L36.3,47.5z
	 M37,46.9c0,0.1,0.1,0.1,0.1,0.2l0.1,0.1h0.1h0.1c0,0,0.1,0,0.1-0.1c0,0,0-0.1,0.1-0.1v-0.1v-0.1c0,0,0-0.1-0.1-0.1l-0.2-0.2
	L37,46.9z M38.4,49.8l0.2-0.4l-0.5-0.5l-0.4,0.2l-0.2-0.2l1.7-0.7l0.2,0.2L38.5,50L38.4,49.8z M38.7,49.2l0.4-0.7l0,0l-0.8,0.3
	L38.7,49.2z M40.9,50.9c0,0-0.1,0.1-0.2,0.1c-0.1,0-0.1,0-0.2,0c-0.1,0-0.1,0-0.2,0c-0.1,0-0.1-0.1-0.2-0.1L40,51.8l-0.2-0.2
	l0.1-0.9l0,0l-0.5,0.5L39.2,51l1.2-1.1l0.3,0.4c0.1,0.1,0.1,0.1,0.1,0.2c0,0.1,0,0.1,0,0.2c0,0.1,0,0.1,0,0.2
	C41,50.8,41,50.8,40.9,50.9z M40.8,50.5L40.8,50.5c0-0.1,0-0.2-0.1-0.2l-0.1-0.1l-0.4,0.4l0.1,0.1l0.1,0.1h0.1h0.1
	c0,0,0.1,0,0.1-0.1c0,0,0-0.1,0.1-0.1C40.8,50.6,40.8,50.5,40.8,50.5z M41,52.7l0.2,0.2l1.2-1.1l-0.2-0.2L41,52.7z M35.1,49.4
	l0.2-0.1l-0.4-0.5l1.1-1l-0.2-0.2l-1.2,1.1L35.1,49.4z M37,49.1l-0.8,1.6L36,50.4l0.2-0.4l-0.5-0.5l-0.4,0.2l-0.2-0.2l1.7-0.7
	L37,49.1z M36.7,49.1L36.7,49.1L36,49.4l0.4,0.4L36.7,49.1z M37,50.6c0-0.1,0.1-0.2,0.2-0.2c0.1-0.1,0.1-0.1,0.2-0.1
	c0.1,0,0.1,0,0.2,0c0.1,0,0.1,0,0.2,0c0.1,0,0.1,0.1,0.2,0.1c0.1,0.1,0.1,0.1,0.1,0.2c0,0.1,0.1,0.1,0.1,0.2l0.2-0.1v-0.1v-0.1
	c0,0,0-0.1-0.1-0.1l-0.1-0.1c-0.1-0.1-0.2-0.2-0.3-0.2S37.7,50,37.6,50s-0.2,0-0.3,0.1c-0.1,0-0.2,0.1-0.3,0.2
	c-0.1,0.1-0.2,0.2-0.2,0.3c-0.1,0.1-0.1,0.2-0.1,0.3s0,0.2,0,0.3s0.1,0.2,0.2,0.3c0.1,0.1,0.1,0.1,0.2,0.2c0.1,0,0.1,0.1,0.2,0.1
	l0.1-0.2c-0.1,0-0.1-0.1-0.2-0.1c0,0-0.1-0.1-0.2-0.1c-0.1-0.1-0.1-0.1-0.1-0.2c0-0.1,0-0.2,0-0.2C36.9,50.8,36.9,50.7,37,50.6z
	 M39.3,51.7c0,0.1,0,0.2,0,0.3s0,0.2-0.1,0.3s-0.1,0.2-0.2,0.3c-0.1,0.1-0.2,0.1-0.3,0.2c-0.1,0-0.2,0.1-0.3,0.1s-0.2,0-0.3-0.1
	c-0.1,0-0.2-0.1-0.3-0.2c-0.1-0.1-0.1-0.2-0.2-0.3c0-0.1,0-0.2,0-0.3s0-0.2,0.1-0.3s0.1-0.2,0.2-0.3c0.1-0.1,0.2-0.1,0.3-0.2
	c0.1,0,0.2-0.1,0.3-0.1s0.2,0,0.3,0.1c0.1,0,0.2,0.1,0.3,0.2C39.2,51.5,39.3,51.6,39.3,51.7z M39.1,51.7c0-0.1-0.1-0.2-0.1-0.2
	c-0.1-0.1-0.1-0.1-0.2-0.1c-0.1,0-0.1,0-0.2,0c-0.1,0-0.1,0-0.2,0.1c-0.1,0-0.1,0.1-0.2,0.1c-0.2,0.1-0.3,0.3-0.3,0.5s0,0.3,0.1,0.4
	c0.1,0.1,0.1,0.1,0.2,0.1c0.1,0,0.1,0,0.2,0c0.1,0,0.1,0,0.2-0.1c0.1,0,0.1-0.1,0.2-0.1c0.1-0.1,0.1-0.1,0.2-0.2
	c0-0.1,0.1-0.1,0.1-0.2C39.1,51.9,39.1,51.8,39.1,51.7z M34.1,50.5c-0.1,0-0.1,0-0.2,0c-0.1,0-0.1,0-0.2-0.1c-0.1,0-0.1-0.1-0.2-0.1
	l-0.1-0.1c0,0,0-0.1-0.1-0.1l-0.5,0.4l-0.2-0.2l1.2-1.1l0.3,0.4c0.1,0.1,0.1,0.1,0.1,0.2c0,0.1,0,0.1,0,0.2c0,0.1,0,0.1,0,0.2
	c0,0.1-0.1,0.1-0.1,0.1C34.3,50.5,34.2,50.5,34.1,50.5z M34,50.3C34,50.3,34.1,50.3,34,50.3c0.1-0.1,0.1-0.2,0.2-0.2V50v-0.1
	c0,0,0-0.1-0.1-0.1L34,49.6L33.6,50c0,0.1,0.1,0.1,0.1,0.2l0.1,0.1h0.1C34,50.3,34,50.3,34,50.3z M35.3,52.3l0.3-0.5L35,51.9
	L35.3,52.3z M34.1,51.9l0.2,0.2l0.4-0.2h0.2l0,0l0.8-0.3l0,0l-0.1,0.2l0,0l-0.2,0.4l0.2,0.2l0.4-0.9l-0.2-0.2L34.1,51.9z M32.4,50.7
	l-0.6,0.5l0.6,0.6l0.2-0.1l-0.4-0.5l0.5-0.4L32.4,50.7z M34.3,29.2L34.1,29l-1.2,1.1l0.2,0.2L34.3,29.2z"/>
<path class="st1" d="M37.2,34.3l0.5,0.5l-0.2,0.4l0.2,0.2l0.8-1.6l-0.2-0.2l-1.7,0.7l0.2,0.2L37.2,34.3z M38.2,33.9L38.2,33.9
	l-0.4,0.7l-0.4-0.4L38.2,33.9z M38.7,36.5l0.5-0.5l0,0L39,36.9l0.2,0.2l0.1-0.9c0.1,0.1,0.1,0.1,0.2,0.1c0.1,0,0.1,0,0.2,0
	c0.1,0,0.1,0,0.2,0c0.1,0,0.1-0.1,0.2-0.1l0.1-0.1c0-0.1,0-0.1,0-0.2c0-0.1,0-0.1,0-0.2c0-0.1-0.1-0.1-0.1-0.2l-0.3-0.4l-1.2,1.1
	L38.7,36.5z M39.8,35.5L39.8,35.5l0.2,0.2v0.1v0.1c0,0,0,0.1-0.1,0.1l-0.1,0.1h-0.1h-0.1L39.5,36l-0.1-0.1L39.8,35.5z M40.1,38.1
	l1.2-1.1l0.2,0.2l-1.2,1.1L40.1,38.1z M41.5,39.3c0,0.1,0.1,0.1,0.1,0.2l0.1,0.1c0,0,0.1,0,0.1,0.1h0.1c0,0,0.1,0,0.1-0.1l0.1-0.1
	c0-0.1,0-0.1,0-0.2c0-0.1,0-0.1-0.1-0.2c0-0.1,0-0.1-0.1-0.2c0-0.1,0-0.1,0-0.2c0-0.1,0.1-0.1,0.1-0.2c0.1,0,0.1-0.1,0.2-0.1
	c0.1,0,0.1,0,0.2,0c0.1,0,0.1,0,0.2,0.1c0.1,0,0.1,0.1,0.2,0.2c0,0,0.1,0.1,0.1,0.2c0,0.1,0.1,0.1,0.1,0.2L42.9,39
	c0,0,0-0.1-0.1-0.1c0-0.1-0.1-0.1-0.1-0.2c-0.1-0.1-0.1-0.1-0.2-0.1c-0.1,0-0.1,0-0.2,0l-0.1,0.1c0,0.1,0,0.1,0,0.2
	c0,0.1,0,0.1,0.1,0.2c0,0.1,0,0.1,0.1,0.2c0,0.1,0,0.1,0,0.2c0,0.1-0.1,0.1-0.1,0.2c-0.1,0.1-0.1,0.1-0.2,0.1c-0.1,0-0.1,0-0.2,0
	c-0.1,0-0.1,0-0.2-0.1c-0.1,0-0.1-0.1-0.2-0.2C41.5,39.4,41.4,39.4,41.5,39.3c-0.1-0.1-0.2-0.1-0.2-0.2l0.2-0.1
	C41.4,39.2,41.4,39.2,41.5,39.3z M34.2,34.8l-0.6-0.6l1.2-1.1l0.2,0.2l-1.1,1l0.4,0.5L34.2,34.8z M34.5,35.1l0.4-0.2l0.5,0.5
	l-0.2,0.4l0.2,0.2l0.8-1.6L36,34.3L34.3,35L34.5,35.1z M35.9,34.5L35.9,34.5l-0.4,0.7l-0.4-0.4L35.9,34.5z M36.1,35.6
	c0.1-0.1,0.2-0.1,0.3-0.2c0.1,0,0.2-0.1,0.3-0.1s0.2,0,0.3,0.1c0.1,0,0.2,0.1,0.3,0.2l0.1,0.1c0,0,0,0.1,0.1,0.1v0.1V36l-0.2,0.1
	c0-0.1,0-0.1-0.1-0.2c0-0.1-0.1-0.1-0.1-0.2c-0.1-0.1-0.1-0.1-0.2-0.1c-0.1,0-0.1,0-0.2,0c-0.1,0-0.1,0-0.2,0
	c-0.1,0-0.1,0.1-0.2,0.1c-0.1,0.1-0.1,0.1-0.2,0.2c0,0.1-0.1,0.2-0.1,0.2c0,0.1,0,0.2,0,0.2c0,0.1,0.1,0.2,0.1,0.2
	c0.1,0.1,0.1,0.1,0.2,0.1c0,0,0.1,0.1,0.2,0.1l-0.1,0.2c-0.1,0-0.1-0.1-0.2-0.1c-0.1,0-0.1-0.1-0.2-0.2c-0.1-0.1-0.1-0.2-0.2-0.3
	c0-0.1,0-0.2,0-0.3s0-0.2,0.1-0.3C35.9,35.8,36,35.7,36.1,35.6z M38.3,36.8c-0.1-0.1-0.2-0.2-0.3-0.2s-0.2-0.1-0.3-0.1
	s-0.2,0-0.3,0.1c-0.1,0-0.2,0.1-0.3,0.2c-0.1,0.1-0.2,0.2-0.2,0.3c-0.1,0.1-0.1,0.2-0.1,0.3s0,0.2,0,0.3s0.1,0.2,0.2,0.3
	c0.1,0.1,0.2,0.2,0.3,0.2s0.2,0.1,0.3,0.1s0.2,0,0.3-0.1c0.1,0,0.2-0.1,0.3-0.2c0.1-0.1,0.2-0.2,0.2-0.3c0.1-0.1,0.1-0.2,0.1-0.3
	s0-0.2,0-0.3C38.4,37,38.4,36.9,38.3,36.8z M38.2,37.4c0,0.1,0,0.1-0.1,0.2c0,0.1-0.1,0.1-0.2,0.2c-0.1,0.1-0.1,0.1-0.2,0.1
	c-0.1,0-0.1,0.1-0.2,0.1c-0.1,0-0.1,0-0.2,0c-0.1,0-0.1-0.1-0.2-0.1C37,37.7,37,37.5,37,37.4c0-0.2,0.1-0.3,0.3-0.5
	c0.1-0.1,0.1-0.1,0.2-0.1c0.1,0,0.1,0,0.2-0.1c0.1,0,0.1,0,0.2,0c0.1,0,0.1,0.1,0.2,0.1c0.1,0.1,0.1,0.1,0.1,0.2
	C38.3,37.2,38.3,37.3,38.2,37.4z M38.6,39L38.6,39c0.1-0.2,0.1-0.2,0.1-0.3c0-0.1,0-0.1-0.1-0.2c0-0.1,0-0.1-0.1-0.2
	c0-0.1,0-0.1,0-0.2c0-0.1,0.1-0.1,0.1-0.2c0.1,0,0.1-0.1,0.2-0.1c0.1,0,0.1,0,0.2,0c0.1,0,0.1,0,0.2,0.1c0.1,0,0.1,0.1,0.2,0.2
	c0,0,0.1,0.1,0.1,0.2c0,0.1,0.1,0.1,0.1,0.2l-0.2,0.1c0,0,0-0.1-0.1-0.1c0-0.1-0.1-0.1-0.1-0.2c0-0.2-0.1-0.3-0.2-0.3s-0.1,0-0.2,0
	l-0.1,0.1c0,0.1,0,0.1,0,0.2c0,0.1,0,0.1,0.1,0.2c0,0.1,0,0.1,0.1,0.2c0,0.1,0,0.1,0,0.2c0,0.1-0.1,0.1-0.1,0.2
	c-0.1,0.1-0.1,0.1-0.2,0.1c-0.1,0-0.1,0-0.2,0c-0.1,0-0.1,0-0.2-0.1c-0.1,0-0.1-0.1-0.2-0.2c0-0.1-0.1-0.1-0.1-0.2
	c0-0.1-0.1-0.1-0.1-0.2l0.2-0.1c0,0,0,0.1,0.1,0.2c0,0.1,0.1,0.1,0.1,0.2l0.1,0.1c0,0,0.1,0,0.1,0.1h0.1C38.5,39,38.6,39,38.6,39z
	 M38.9,40l1.1-1l-0.3-0.4l0.2-0.1l0.8,0.9l-0.1,0.2l-0.3-0.4l-1.1,1L38.9,40z M40.9,39.7l0.6,0.7l-0.2,0.1L40.9,40l-0.4,0.3l0.4,0.5
	l-0.2,0.1l-0.4-0.4L40,40.8l0.5,0.5l-0.2,0.1l-0.6-0.7L40.9,39.7z M32.5,35.5C32.5,35.5,32.5,35.6,32.5,35.5
	c0.1,0.1,0.1,0.2,0.2,0.2c0.1,0.1,0.1,0.1,0.2,0.1c0.1,0,0.1,0.1,0.2,0.1c0.1,0,0.1,0,0.2,0c0.1,0,0.1-0.1,0.2-0.1l0.1-0.1
	c0-0.1,0-0.1,0-0.2c0-0.1,0-0.1,0-0.2c0-0.1-0.1-0.1-0.1-0.2l-0.3-0.4L32,35.8V36L32.5,35.5z M33.1,35l0.2,0.2l0.1,0.1v0.1v0.1
	c0,0,0,0.1-0.1,0.1l-0.1,0.1h-0.1H33l-0.1-0.1c-0.1-0.1-0.1-0.1-0.1-0.2L33.1,35z M33.3,37.3l0.2,0.2l0.4-0.2l0.5,0.5l-0.2,0.4
	l0.2,0.2l0.8-1.6L35,36.6L33.3,37.3z M34.4,37.6L34,37.2l0.8-0.3l0,0L34.4,37.6z M36.3,38.2l-1.2,1.1l0.2,0.2l0.5-0.5l0,0l-0.2,1
	l0.2,0.2l0.1-0.9c0.1,0.1,0.1,0.1,0.2,0.1c0.1,0,0.1,0,0.2,0c0.1,0,0.1,0,0.2,0c0.1,0,0.1-0.1,0.2-0.1l0.1-0.1c0-0.1,0-0.1,0-0.2
	c0-0.1,0-0.1,0-0.2c0-0.1-0.1-0.1-0.1-0.2L36.3,38.2z M36.6,39.1C36.5,39.1,36.5,39.1,36.6,39.1c-0.1,0.1-0.1,0.1-0.2,0.2h-0.1h-0.1
	l-0.1-0.1L36,39.1l0.4-0.4l0.1,0.1l0.1,0.1V39C36.6,39,36.6,39,36.6,39.1z M38.1,40.2l-1.2,1.1l-0.2-0.2L38,40L38.1,40.2z
	 M39.6,41.8c0,0.1,0.1,0.1,0.1,0.2l-0.2,0.1c0,0,0-0.1-0.1-0.1c0-0.1-0.1-0.1-0.1-0.2c-0.1-0.1-0.1-0.1-0.2-0.1c-0.1,0-0.1,0-0.2,0
	l-0.1,0.1c0,0.1,0,0.1,0,0.2c0,0.1,0,0.1,0.1,0.2c0,0.1,0,0.1,0.1,0.2c0,0.1,0,0.1,0,0.2c0,0.1-0.1,0.1-0.1,0.2s-0.1,0.1-0.2,0.1
	c-0.1,0-0.1,0-0.2,0c-0.1,0-0.1,0-0.2-0.1c-0.1,0-0.1-0.1-0.2-0.2c0-0.1-0.1-0.1-0.1-0.2c0-0.1-0.1-0.1-0.1-0.2l0.2-0.1
	c0,0,0,0.1,0.1,0.2c0,0.1,0.1,0.1,0.1,0.2l0.1,0.1c0,0,0.1,0,0.1,0.1h0.1c0,0,0.1,0,0.1-0.1l0.1-0.1c0-0.1,0-0.1,0-0.2
	c0-0.1,0-0.1-0.1-0.2c0-0.1,0-0.1-0.1-0.2c0-0.1,0-0.1,0-0.2c0-0.1,0.1-0.1,0.1-0.2c0.1,0,0.1-0.1,0.2-0.1c0.1,0,0.1,0,0.2,0
	c0.1,0,0.1,0,0.2,0.1c0.1,0,0.1,0.1,0.2,0.2C39.5,41.7,39.5,41.7,39.6,41.8z M30.8,37.9l-0.6-0.6l1.2-1.1l0.2,0.2l-1.1,1l0.4,0.5
	L30.8,37.9z M30.9,38l0.2,0.2l0.4-0.2l0.5,0.5l-0.2,0.4l0.2,0.2l0.8-1.6l-0.2-0.2L30.9,38z M32.1,38.3l-0.4-0.4l0.8-0.3l0,0
	L32.1,38.3z M33,38.5c0.1,0,0.2-0.1,0.3-0.1s0.2,0,0.3,0.1c0.1,0,0.2,0.1,0.3,0.2l0.1,0.1c0,0,0,0.1,0.1,0.1V39v0.1l-0.2,0.1
	c0-0.1,0-0.1-0.1-0.2c0-0.1-0.1-0.1-0.1-0.2c-0.1-0.1-0.1-0.1-0.2-0.1c-0.1,0-0.1,0-0.2,0s-0.1,0-0.2,0c-0.1,0-0.1,0.1-0.2,0.1
	c-0.1,0.1-0.1,0.1-0.2,0.2c0,0.1-0.1,0.2-0.1,0.2c0,0.1,0,0.2,0,0.2c0,0.1,0.1,0.2,0.1,0.2c0.1,0.1,0.1,0.1,0.2,0.1
	c0,0,0.1,0.1,0.2,0.1L33,40.2c-0.1,0-0.1-0.1-0.2-0.1c-0.1,0-0.1-0.1-0.2-0.2c-0.1-0.1-0.1-0.2-0.2-0.3s0-0.2,0-0.3s0-0.2,0.1-0.3
	s0.1-0.2,0.2-0.3C32.8,38.6,32.9,38.5,33,38.5z M33.6,41c0.1,0.1,0.2,0.2,0.3,0.2s0.2,0.1,0.3,0.1s0.2,0,0.3-0.1
	c0.1,0,0.2-0.1,0.3-0.2c0.1-0.1,0.2-0.2,0.2-0.3c0.1-0.1,0.1-0.2,0.1-0.3s0-0.2,0-0.3s-0.1-0.2-0.2-0.3c-0.1-0.1-0.2-0.2-0.3-0.2
	s-0.2-0.1-0.3-0.1s-0.2,0-0.3,0.1c-0.1,0-0.2,0.1-0.3,0.2c-0.1,0.1-0.2,0.2-0.2,0.3c-0.1,0.1-0.1,0.2-0.1,0.3s0,0.2,0,0.3
	C33.4,40.8,33.5,40.9,33.6,41z M33.6,40.4c0-0.2,0.1-0.3,0.3-0.5c0.1-0.1,0.1-0.1,0.2-0.1c0.1,0,0.1,0,0.2-0.1c0.1,0,0.1,0,0.2,0
	c0.1,0,0.1,0.1,0.2,0.1c0.1,0.1,0.1,0.1,0.1,0.2c0,0.1,0,0.2,0,0.2c0,0.1,0,0.1-0.1,0.2c0,0.1-0.1,0.1-0.2,0.2
	c-0.1,0.1-0.1,0.1-0.2,0.1c-0.1,0-0.1,0.1-0.2,0.1c-0.1,0-0.1,0-0.2,0c-0.1,0-0.1-0.1-0.2-0.1C33.6,40.7,33.6,40.6,33.6,40.4z
	 M34.8,42.3c-0.1,0-0.1-0.1-0.2-0.2c0-0.1-0.1-0.1-0.1-0.2c0-0.1-0.1-0.1-0.1-0.2l0.2-0.1c0,0,0,0.1,0.1,0.2c0,0.1,0.1,0.1,0.1,0.2
	l0.1,0.1c0,0,0.1,0,0.1,0.1h0.1c0,0,0.1,0,0.1-0.1l0.1-0.1c0-0.1,0-0.1,0-0.2c0-0.1,0-0.1-0.1-0.2c0-0.1,0-0.1-0.1-0.2
	c0-0.1,0-0.1,0-0.2c0-0.1,0.1-0.1,0.1-0.2c0.1,0,0.1-0.1,0.2-0.1c0.1,0,0.1,0,0.2,0c0.1,0,0.1,0,0.2,0.1c0.1,0,0.1,0.1,0.2,0.2
	c0,0,0.1,0.1,0.1,0.2c0,0.1,0.1,0.1,0.1,0.2L36,41.7c0,0,0-0.1-0.1-0.1c0-0.1-0.1-0.1-0.1-0.2c-0.1-0.1-0.1-0.1-0.2-0.1
	c-0.1,0-0.1,0-0.2,0l-0.1,0.1c0,0.1,0,0.1,0,0.2c0,0.1,0,0.1,0.1,0.2c0,0.1,0,0.1,0.1,0.2c0,0.1,0,0.1,0,0.2c0,0.1-0.1,0.1-0.1,0.2
	c-0.1,0.1-0.1,0.1-0.2,0.1c-0.1,0-0.1,0-0.2,0C34.9,42.3,34.9,42.3,34.8,42.3z M35.7,43.3l-0.2-0.2l1.1-1l-0.3-0.4l0.2-0.1l0.8,0.9
	l-0.1,0.2l-0.3-0.4L35.7,43.3z M37.5,42.7l0.6,0.7l-0.2,0.1L37.5,43l-0.4,0.3l0.4,0.5L37.4,44L37,43.5l-0.4,0.4l0.5,0.5l-0.2,0.1
	l-0.6-0.7L37.5,42.7z M29.1,38.6c0,0,0,0.1,0.1,0.1c0,0,0,0.1,0.1,0.1c0.1,0.1,0.1,0.1,0.2,0.1s0.1,0.1,0.2,0.1s0.1,0,0.2,0
	s0.1-0.1,0.2-0.1l0.1-0.1c0-0.1,0-0.1,0-0.2c0-0.1,0-0.1,0-0.2c0-0.1-0.1-0.1-0.1-0.2l-0.3-0.4l-1.2,1.1l0.2,0.2L29.1,38.6z
	 M29.7,38.1l0.2,0.2l0.1,0.1v0.1v0.1c0,0,0,0.1-0.1,0.1l-0.1,0.1h-0.1h-0.1l-0.1-0.1c-0.1-0.1-0.1-0.1-0.1-0.2L29.7,38.1z M30,40.6
	l0.4-0.2l0.5,0.5l-0.2,0.4l0.2,0.2l0.8-1.6l-0.2-0.2l-1.7,0.7L30,40.6z M31.4,40L31.4,40L31,40.7l-0.4-0.4L31.4,40z M33,41.3
	l-1.2,1.1l0.2,0.2l0.5-0.5l0,0L32.2,43l0.2,0.2l0.1-0.9c0.1,0.1,0.1,0.1,0.2,0.1c0.1,0,0.1,0,0.2,0c0.1,0,0.1,0,0.2,0
	c0.1,0,0.1-0.1,0.2-0.1l0.1-0.1c0-0.1,0-0.1,0-0.2c0-0.1,0-0.1,0-0.2c0-0.1-0.1-0.1-0.1-0.2L33,41.3z M33.2,42.1
	C33.1,42.2,33.1,42.2,33.2,42.1c-0.1,0.1-0.1,0.1-0.2,0.2h-0.1h-0.1l-0.1-0.1l-0.1-0.1l0.4-0.4l0.1,0.1l0.1,0.1V42
	C33.2,42.1,33.2,42.1,33.2,42.1z M34.7,43.3l-1.2,1.1l-0.2-0.2l1.2-1.1L34.7,43.3z M36.2,44.8c0,0.1,0.1,0.1,0.1,0.2l-0.2,0.1
	c0,0,0-0.1-0.1-0.1c0-0.1-0.1-0.1-0.1-0.2c-0.1-0.1-0.1-0.1-0.2-0.1c-0.1,0-0.1,0-0.2,0l-0.1,0.1c0,0.1,0,0.1,0,0.2
	c0,0.1,0,0.1,0.1,0.2c0,0.1,0,0.1,0.1,0.2c0,0.1,0,0.1,0,0.2c0,0.1-0.1,0.1-0.1,0.2c-0.1,0.1-0.1,0.1-0.2,0.1c-0.1,0-0.1,0-0.2,0
	c-0.1,0-0.1,0-0.2-0.1c-0.1,0-0.1-0.1-0.2-0.2c0-0.1-0.1-0.1-0.1-0.2c0-0.1-0.1-0.1-0.1-0.2l0.2-0.1c0,0,0,0.1,0.1,0.2
	c0,0.1,0.1,0.1,0.1,0.2l0.1,0.1c0,0,0.1,0,0.1,0.1h0.1c0,0,0.1,0,0.1-0.1l0.1-0.1c0-0.1,0-0.1,0-0.2c0-0.1,0-0.1-0.1-0.2
	c0-0.1,0-0.1-0.1-0.2c0-0.1,0-0.1,0-0.2c0-0.1,0.1-0.1,0.1-0.2c0.1,0,0.1-0.1,0.2-0.1c0.1,0,0.1,0,0.2,0c0.1,0,0.1,0,0.2,0.1
	c0.1,0,0.1,0.1,0.2,0.2C36.1,44.7,36.1,44.8,36.2,44.8z M27.4,40.9l-0.6-0.6l1.2-1.1l0.2,0.2l-1.1,1l0.4,0.5L27.4,40.9z M27.5,41
	l0.2,0.2l0.4-0.2l0.5,0.5L28.4,42l0.2,0.2l0.8-1.6l-0.2-0.2L27.5,41z M28.7,41.4L28.3,41l0.8-0.3l0,0L28.7,41.4z M29.6,41.5
	c0.1,0,0.2-0.1,0.3-0.1c0.1,0,0.2,0,0.3,0.1c0.1,0,0.2,0.1,0.3,0.2l0.1,0.1c0,0,0,0.1,0.1,0.1V42v0.1l-0.2,0.1c0-0.1,0-0.1-0.1-0.2
	c0-0.1-0.1-0.1-0.1-0.2c-0.1-0.1-0.1-0.1-0.2-0.1s-0.1,0-0.2,0s-0.1,0-0.2,0s-0.1,0.1-0.2,0.1c-0.1,0.1-0.1,0.1-0.2,0.2
	c0,0.1-0.1,0.2-0.1,0.2c0,0.1,0,0.2,0,0.2c0,0.1,0.1,0.2,0.1,0.2c0.1,0.1,0.1,0.1,0.2,0.1c0,0,0.1,0.1,0.2,0.1L29.6,43
	c-0.1,0-0.1-0.1-0.2-0.1s-0.1-0.1-0.2-0.2c-0.1-0.1-0.1-0.2-0.2-0.3c0-0.1,0-0.2,0-0.3s0-0.2,0.1-0.3s0.1-0.2,0.2-0.3
	C29.4,41.6,29.5,41.6,29.6,41.5z M30.5,44.2c0.1,0,0.2,0.1,0.3,0.1c0.1,0,0.2,0,0.3-0.1c0.1,0,0.2-0.1,0.3-0.2
	c0.1-0.1,0.2-0.2,0.2-0.3c0.1-0.1,0.1-0.2,0.1-0.3s0-0.2,0-0.3s-0.1-0.2-0.2-0.3s-0.2-0.2-0.3-0.2c-0.1,0-0.2-0.1-0.3-0.1
	c-0.1,0-0.2,0-0.3,0.1c-0.1,0-0.2,0.1-0.3,0.2c-0.1,0.1-0.2,0.2-0.2,0.3C30,43.3,30,43.4,30,43.5s0,0.2,0,0.3s0.1,0.2,0.2,0.3
	C30.3,44.1,30.4,44.2,30.5,44.2z M30.2,43.5c0-0.2,0.1-0.3,0.3-0.5c0.1-0.1,0.1-0.1,0.2-0.1s0.1,0,0.2-0.1c0.1,0,0.1,0,0.2,0
	s0.1,0.1,0.2,0.1c0.1,0.1,0.1,0.1,0.1,0.2c0,0.1,0,0.2,0,0.2c0,0.1,0,0.1-0.1,0.2c0,0.1-0.1,0.1-0.2,0.2c0,0.2,0,0.3-0.1,0.3
	s-0.1,0.1-0.2,0.1s-0.1,0-0.2,0S30.5,44,30.4,44C30.3,43.8,30.2,43.6,30.2,43.5z M31.1,45c0-0.1-0.1-0.1-0.1-0.2l0.2-0.1
	c0,0,0,0.1,0.1,0.2c0,0.1,0.1,0.1,0.1,0.2l0.1,0.1c0,0,0.1,0,0.1,0.1h0.1c0,0,0.1,0,0.1-0.1l0.1-0.1c0-0.1,0-0.1,0-0.2
	c0-0.1,0-0.1-0.1-0.2c0-0.1,0-0.1-0.1-0.2c0-0.1,0-0.1,0-0.2c0-0.1,0.1-0.1,0.1-0.2c0.1,0,0.1-0.1,0.2-0.1c0.1,0,0.1,0,0.2,0
	c0.1,0,0.1,0,0.2,0.1c0.1,0,0.1,0.1,0.2,0.2c0,0,0.1,0.1,0.1,0.2c0,0.1,0.1,0.1,0.1,0.2l-0.2,0.1c0,0,0-0.1-0.1-0.1
	c0-0.1-0.1-0.1-0.1-0.2c-0.1-0.1-0.1-0.1-0.2-0.1c-0.1,0-0.1,0-0.2,0l-0.1,0.1c0,0.1,0,0.1,0,0.2c0,0.1,0,0.1,0.1,0.2
	c0,0.1,0,0.1,0.1,0.2c0,0.1,0,0.1,0,0.2c0,0.1-0.1,0.1-0.1,0.2c-0.1,0.1-0.1,0.1-0.2,0.1s-0.1,0-0.2,0s-0.1,0-0.2-0.1
	c-0.1,0-0.1-0.1-0.2-0.2C31.2,45.1,31.1,45.1,31.1,45z M32.3,46.3l-0.2-0.2l1.1-1l-0.3-0.4l0.2-0.1l0.8,0.9l-0.1,0.2l-0.3-0.4
	L32.3,46.3z M34.1,45.8l0.6,0.7l-0.2,0.1l-0.4-0.5l-0.4,0.3l0.4,0.5L34,47l-0.4-0.4L33.2,47l0.5,0.5l-0.2,0.1l-0.6-0.7L34.1,45.8z
	 M25.7,41.7c0,0,0,0.1,0.1,0.1c0,0,0,0.1,0.1,0.1C26,42,26,42,26.1,42s0.1,0.1,0.2,0.1s0.1,0,0.2,0s0.1-0.1,0.2-0.1l0.1-0.1
	c0-0.1,0-0.1,0-0.2c0-0.1,0-0.1,0-0.2c0-0.1-0.1-0.1-0.1-0.2l-0.3-0.4L25.2,42l0.2,0.2L25.7,41.7z M26.3,41.1l0.2,0.2l0.1,0.1v0.1
	v0.1c0,0,0,0.1-0.1,0.1l-0.1,0.1h-0.1h-0.1l-0.1-0.1C26,41.6,26,41.6,26,41.5L26.3,41.1z M26.6,43.6l0.4-0.2l0.5,0.5l-0.2,0.4
	l0.2,0.2l0.8-1.6l-0.2-0.2l-1.7,0.7L26.6,43.6z M28,43L28,43l-0.4,0.7l-0.4-0.4L28,43z M29.1,46.3l0.1-0.9c0.1,0.1,0.1,0.1,0.2,0.1
	s0.1,0,0.2,0s0.1,0,0.2,0s0.1-0.1,0.2-0.1l0.1-0.1c0-0.1,0-0.1,0-0.2s0-0.1,0-0.2c0-0.1-0.1-0.1-0.1-0.2l-0.3-0.4l-1.2,1.1l0.2,0.2
	l0.5-0.5l0,0L29.1,46L29.1,46.3z M29.6,44.7l0.1,0.1l0.1,0.1V45v0.1c0,0,0,0.1-0.1,0.1l-0.1,0.1h-0.1h-0.1l-0.1-0.1l-0.1-0.1
	L29.6,44.7z M31.3,46.3l-1.2,1.1l-0.2-0.2l1.2-1.1L31.3,46.3z M32.8,47.9c0,0.1,0.1,0.1,0.1,0.2l-0.2,0.1c0,0,0-0.1-0.1-0.1
	c0-0.1-0.1-0.1-0.1-0.2c-0.1-0.1-0.1-0.1-0.2-0.1c-0.1,0-0.1,0-0.2,0L32,47.9c0,0.1,0,0.1,0,0.2c0,0.1,0,0.1,0.1,0.2
	c0,0.1,0,0.1,0.1,0.2c0,0.1,0,0.1,0,0.2c0,0.1-0.1,0.1-0.1,0.2C32,49,31.9,49,31.9,49c-0.1,0-0.1,0-0.2,0s-0.1,0-0.2-0.1
	c-0.1,0-0.1-0.1-0.2-0.2c0-0.1-0.1-0.1-0.1-0.2c0-0.1-0.1-0.1-0.1-0.2l0.2-0.1c0,0,0,0.1,0.1,0.2c0,0.1,0.1,0.1,0.1,0.2l0.1,0.1
	c0,0,0.1,0,0.1,0.1h0.1c0,0,0.1,0,0.1-0.1l0.1-0.1c0-0.1,0-0.1,0-0.2c0-0.1,0-0.1-0.1-0.2c0-0.1,0-0.1-0.1-0.2c0-0.1,0-0.1,0-0.2
	c0-0.1,0.1-0.1,0.1-0.2c0.1,0,0.1-0.1,0.2-0.1s0.1,0,0.2,0c0.1,0,0.1,0,0.2,0.1c0.1,0,0.1,0.1,0.2,0.2
	C32.7,47.8,32.7,47.9,32.8,47.9z M24,44l-0.6-0.6l1.2-1.1l0.2,0.2l-1.1,1l0.4,0.5L24,44z M24.3,44.3l0.4-0.2l0.5,0.5L25,45l0.2,0.2
	l0.8-1.6l-0.2-0.2l-1.7,0.7L24.3,44.3z M25.7,43.7L25.7,43.7l-0.4,0.7L24.9,44L25.7,43.7z M26.7,44.8c-0.1,0-0.1,0-0.2,0
	s-0.1,0-0.2,0s-0.1,0.1-0.2,0.1C26,45,26,45.1,25.9,45.2c0,0.1-0.1,0.2-0.1,0.2c0,0.1,0,0.2,0,0.2c0,0.1,0.1,0.2,0.1,0.2
	c0.1,0.1,0.1,0.1,0.2,0.1c0,0,0.1,0.1,0.2,0.1l-0.1,0.2c-0.1,0-0.1-0.1-0.2-0.1s-0.1-0.1-0.2-0.2c-0.1-0.1-0.1-0.2-0.2-0.3
	c0-0.1,0-0.2,0-0.3s0-0.2,0.1-0.3s0.1-0.2,0.2-0.3s0.2-0.1,0.3-0.2c0.1,0,0.2-0.1,0.3-0.1c0.1,0,0.2,0,0.3,0.1
	c0.1,0,0.2,0.1,0.3,0.2l0.1,0.1c0,0,0,0.1,0.1,0.1V45v0.1l-0.2,0.1c0-0.1,0-0.1-0.1-0.2c0-0.1-0.1-0.1-0.1-0.2
	C26.9,44.9,26.8,44.9,26.7,44.8z M28,47.1c0.1-0.1,0.2-0.2,0.2-0.3c0.1-0.1,0.1-0.2,0.1-0.3s0-0.2,0-0.3s-0.1-0.2-0.2-0.3
	s-0.2-0.2-0.3-0.2c-0.1,0-0.2-0.1-0.3-0.1c-0.1,0-0.2,0-0.3,0.1c-0.1,0-0.2,0.1-0.3,0.2c-0.1,0.1-0.2,0.2-0.2,0.3
	c-0.1,0.1-0.1,0.2-0.1,0.3s0,0.2,0,0.3s0.1,0.2,0.2,0.3s0.2,0.2,0.3,0.2c0.1,0,0.2,0.1,0.3,0.1c0.1,0,0.2,0,0.3-0.1
	C27.8,47.3,27.9,47.2,28,47.1z M27.4,47.1c-0.1,0-0.1,0-0.2,0C27.1,47.1,27,47,27,47c-0.1-0.1-0.2-0.3-0.1-0.4
	c0-0.2,0.1-0.3,0.3-0.5c0.1-0.1,0.1-0.1,0.2-0.1s0.1,0,0.2-0.1c0.1,0,0.1,0,0.2,0S27.9,46,28,46c0.1,0.1,0.1,0.1,0.1,0.2
	c0,0.1,0,0.2,0,0.2c0,0.1,0,0.1-0.1,0.2c0,0.1-0.1,0.1-0.2,0.2c-0.1,0.1-0.1,0.1-0.2,0.1C27.5,47.1,27.4,47.1,27.4,47.1z M28.8,48.2
	c0,0.1-0.1,0.1-0.1,0.2c-0.1,0.1-0.1,0.1-0.2,0.1s-0.1,0-0.2,0s-0.1,0-0.2-0.1c-0.1,0-0.1-0.1-0.2-0.2c0-0.1-0.1-0.1-0.1-0.2
	c0-0.1-0.1-0.1-0.1-0.2l0.2-0.1c0,0,0,0.1,0.1,0.2c0,0.1,0.1,0.1,0.1,0.2l0.1,0.1c0,0,0.1,0,0.1,0.1h0.1c0,0,0.1,0,0.1-0.1l0.1-0.1
	c0-0.1,0-0.1,0-0.2c0-0.1,0-0.1-0.1-0.2c0-0.1,0-0.1-0.1-0.2c0-0.1,0-0.1,0-0.2c0-0.1,0.1-0.1,0.1-0.2c0.1,0,0.1-0.1,0.2-0.1
	s0.1,0,0.2,0s0.1,0,0.2,0.1c0.1,0,0.1,0.1,0.2,0.2c0,0,0.1,0.1,0.1,0.2c0,0.1,0.1,0.1,0.1,0.2l-0.2,0.1c0,0,0-0.1-0.1-0.1
	c0-0.1-0.1-0.1-0.1-0.2c-0.1-0.1-0.1-0.1-0.2-0.1s-0.1,0-0.2,0l-0.1,0.1c0,0.1,0,0.1,0,0.2c0,0.1,0,0.1,0.1,0.2
	C28.7,48,28.7,48,28.8,48.2C28.8,48,28.8,48.1,28.8,48.2z M29.7,47.8l0.8,0.9l-0.1,0.2L30,48.4l-1.1,1l-0.2-0.2l1.1-1l-0.3-0.4H29.7
	z M22.4,44.7c0,0,0,0.1,0.1,0.1c0,0,0,0.1,0.1,0.1c0.1,0.1,0.1,0.1,0.2,0.1s0.1,0.1,0.2,0.1s0.1,0,0.2,0s0.1-0.1,0.2-0.1l0.1-0.1
	c0-0.1,0-0.1,0-0.2c0-0.1,0-0.1,0-0.2c0-0.1-0.1-0.1-0.1-0.2l-0.3-0.4L21.7,45l0.2,0.2L22.4,44.7z M22.9,44.2l0.2,0.2l0.1,0.1v0.1
	v0.1c0,0,0,0.1-0.1,0.1L23,44.9h-0.1h-0.1l-0.1-0.1c-0.1-0.1-0.1-0.1-0.1-0.2L22.9,44.2z M23.1,46.5l0.2,0.2l0.4-0.2l0.5,0.5
	L24,47.4l0.2,0.2L25,46l-0.2-0.2L23.1,46.5z M24.2,46.8l-0.4-0.4l0.8-0.3l0,0L24.2,46.8z M20.6,47.1L20,46.5l1.2-1.1l0.2,0.2l-1.1,1
	l0.4,0.5L20.6,47.1z M76.6,47.4c-0.9-1.6-1.7-2.7-3.6-3.8c-1.7-1-4.4-2-10.1-3.8c-2.4-1.7-22-14-27.3-15.4c-0.8-0.5-1.7-1.1-2.4-1.6
	c-1.1-0.7-1.7-1.1-2-1.2h-0.1c-0.3-0.1-1.2-0.4-2.2-0.3c-1.3,0.1-2.6,0.7-3.7,1.8c-2.6,2.6-3.7,5.5-4,6.5c-0.5,0.5-1.3,1.1-1.6,1.1
	c-0.4,0-3-0.4-5-2.5c-1.8-1.8-3.2-2.9-4.6-3.2c0.2-0.5,0.5-1.1,0.6-1.8c0.3-1.1,0.3-1.8-0.2-2.2c-0.1-0.1-0.4-0.3-1.6-0.5
	c-0.6-0.1-1.4-0.1-1.9-0.1c-0.1,0-0.5,0.1-0.6,0.4S6,23.9,5.8,25.3c-0.7,0.5-2.8,2.6-3.4,9.5c-0.5,6.7-0.6,8.5-0.5,9.3
	c-0.3,0.2-0.5,0.5-0.7,1.4c-0.2,1-0.1,2.7,0.1,5.1l0,0c0.2,1.4,1.6,3.1,16.2,4.9c5.9,0.7,16.1,2.9,17,3.2c0.6,0.2,5.7,1,12.4,1
	c4.1,0,8.9-0.3,13.6-1.3C72,56.2,74.1,54.8,75,54.2c0.1-0.1,0.2-0.1,0.2-0.2c0.6-0.3,1.6-1.3,1.9-2.7C77.5,50,77.3,48.7,76.6,47.4z
	 M62.5,40.7L62.5,40.7C73,44,74,44.8,75.7,47.6c-2.2,1.4-4.9,2.4-8.4,3.3c-2.7,0.7-5.8,1.2-9.5,1.5c-0.2-2.9-0.7-5.5-1.6-7.4
	c-0.8-1.8-1.7-2.8-2.3-3.3c-0.2-0.1-0.4-0.3-0.8-0.6l4.8-3.4C60.2,39.1,61.9,40.2,62.5,40.7L62.5,40.7z M41,34.9L41,34.9
	c-0.1,0-0.2,0-0.2,0c-0.1,0-0.1-0.1-0.2-0.1c0-0.1-0.1-0.1-0.1-0.2C40.6,34.7,40.8,34.8,41,34.9z M39.9,33.2l3.5-0.4l-1.2,1.9
	C41.5,34.2,40.7,33.7,39.9,33.2z M36.8,32.4L36.8,32.4c0,0.1,0,0.2-0.1,0.2l-0.1,0.1h-0.1h-0.1l-0.1-0.1c-0.1-0.1-0.1-0.1-0.1-0.2
	l0.4-0.4l0.2,0.2l0.1,0.1C36.8,32.3,36.8,32.3,36.8,32.4z M36.4,30.7l4.2-0.3l-1.5,2.2C38.2,32,37.3,31.3,36.4,30.7z M41,27.8h-3.8
	l0.8-1.4C39,26.8,40,27.3,41,27.8z M44.5,29.7l-3.1,0.2l1-1.4C43,28.9,43.8,29.3,44.5,29.7z M48.2,31.8l-4,0.4l1.3-2
	C46.4,30.8,47.3,31.3,48.2,31.8z M51.2,33.6l-3,0.5l1.1-1.6C49.9,32.8,50.5,33.2,51.2,33.6z M54.6,35.6L51,36.2l1.1-2.1
	C53,34.7,53.8,35.2,54.6,35.6z M57.2,37.3l-2.6,0.6l0.9-1.6C56.1,36.6,56.7,36.9,57.2,37.3z M57.2,37.7l-4,2.9l1.2-2.2L57.2,37.7z
	 M54.1,38l-4.5,1l-0.1-0.1l1.2-2.2l4.4-0.7c0,0,0,0,0.1,0L54.1,38z M50.5,36.3L46.2,37l1.7-2.5l3.9-0.6l0,0L50.5,36.3z M47.6,34.1
	l-5,0.8c0,0,0,0-0.1,0l1.4-2.1l4.9-0.5c0,0,0.1,0,0.1,0.1L47.6,34.1z M43.7,32.3l-4.3,0.5l0,0l1.7-2.4l4.1-0.3l0,0L43.7,32.3z
	 M41.8,28.2c0.1,0,0.1,0.1,0.2,0.1L40.9,30l-5,0.3l0,0l1.2-2.1L41.8,28.2z M35.5,30.1c-0.4-0.3-0.8-0.6-1.1-0.9
	c-0.5-0.4-1-0.8-1.5-1.1h3.7L35.5,30.1z M43.1,35.2l4.2-0.6l-1.5,2.2C45.3,36.5,44.3,36,43.1,35.2z M50.2,36.7l-1.1,1.9
	c-1-0.6-1.9-1.1-2.5-1.4L50.2,36.7z M53.9,38.4l-1.3,2.3c-0.7-0.5-1.6-1-2.5-1.5L53.9,38.4z M25.8,23.8c1-1,2-1.5,3.1-1.6
	c0.9-0.1,1.6,0.2,1.9,0.3c0.1,0,0.1,0,0.1,0c0.2,0.1,1,0.6,1.7,1.1c0.8,0.5,1.7,1.1,2.5,1.6h0.1h0.1c0.6,0.2,1.4,0.5,2.4,0.9
	l-0.9,1.6h-4.7c-1.3-0.7-2.5-1-3.6-0.9c-1.6,0.1-2.8,0.8-4,1.5c-0.3,0.1-0.5,0.3-0.7,0.4c-0.3,0.1-0.6,0.3-0.9,0.5
	c-0.2,0.1-0.5,0.3-0.8,0.4c0.1-0.4,0.4-1.2,0.9-2.1C23.5,26.6,24.4,25.2,25.8,23.8z M14,28.9c1.6,1.7,3.5,2.4,4.7,2.6
	c-1.5,0.8-2.9,1.4-4,1.9c-2.3,0.8-4.9,1-7.4-4.1c-0.7-1.4-0.8-2.5-0.4-3s1.3-0.6,1.9-0.6l0,0l0.6,0.1C10.7,26,12.2,26.9,14,28.9z
	 M7.3,21.4c0.6-0.1,2.3,0.1,2.6,0.3l0,0c0,0,0.2,0.2-0.1,1.4c-0.2,0.7-0.5,1.3-0.7,1.8c-0.5-0.1-1.5-0.1-2.3,0.3
	C7.1,23.5,7.2,21.9,7.3,21.4z M3.5,34.9c0.3-3.9,1.2-6.1,1.8-7.3c0.1-0.3,0.3-0.5,0.4-0.7c0,0.7,0.2,1.6,0.7,2.7
	c1.2,2.5,2.6,4,4.2,4.6c1.3,0.5,2.6,0.5,4.2-0.1c2.3-0.8,5.8-2.8,8.4-4.2c0.3-0.2,0.6-0.3,0.9-0.5c0.3-0.1,0.5-0.3,0.8-0.4
	c1.1-0.6,2.3-1.3,3.6-1.4c1.6-0.1,3.3,0.6,5.3,2.2c0.8,0.6,1.7,1.3,2.5,1.9l-1.1,1l0.2,0.2l0.5-0.4c0,0,0,0.1,0.1,0.1
	c0,0,0,0.1,0.1,0.1c0.1,0.1,0.1,0.1,0.2,0.1c0.1,0,0.1,0.1,0.2,0.1c0.1,0,0.1,0,0.2,0c0.1,0,0.1-0.1,0.2-0.1l0.1-0.1
	c0-0.1,0-0.1,0-0.2c0-0.1,0-0.1,0-0.2l0,0c1.1,0.8,2.2,1.5,3.2,2.2c0,0.1,0,0.1,0,0.2c0,0.1,0.1,0.2,0.2,0.3
	c0.1,0.1,0.2,0.2,0.3,0.2s0.2,0.1,0.3,0.1s0.2,0,0.3-0.1c0.3,0.2,0.5,0.3,0.8,0.5c0,0,0,0,0,0.1s0,0.1,0,0.2c0,0.1,0,0.1-0.1,0.1
	l-0.1,0.1h-0.1c0,0-0.1,0-0.1-0.1L41.6,36c0,0-0.1-0.1-0.1-0.2c0-0.1-0.1-0.1-0.1-0.2l-0.2,0.1c0,0,0,0.1,0.1,0.2
	c0,0.1,0.1,0.1,0.1,0.2c0.1,0.1,0.1,0.1,0.2,0.2c0.1,0,0.1,0.1,0.2,0.1c0.1,0,0.1,0,0.2,0c0.1,0,0.1-0.1,0.2-0.1
	c0.1-0.1,0.1-0.1,0.1-0.2c0-0.1,0-0.1,0-0.2c0.3,0.2,0.5,0.3,0.8,0.5L42.3,37l0.2,0.2l0.9-0.8c0.2,0.2,0.5,0.3,0.7,0.4l-1,0.9
	l0.6,0.7l0.2-0.1l-0.5-0.5l0.4-0.4l0.4,0.4l0.2-0.1L44,37.2l0.4-0.3l0.4,0.5l0.2-0.1l0,0c0.4,0.2,0.7,0.4,0.9,0.5
	c0.8,0.4,6.4,3.6,7.6,4.6c1,0.8,3.2,3.4,3.6,10.2c-0.8,0.1-1.5,0.1-2.3,0.2c-10.8,0.8-21.4-1.4-23.4-1.9c-0.4-0.1-0.7-0.2-1.1-0.3
	l0,0L29.8,50l0.4-0.4l0.4,0.4l0.2-0.1l-0.4-0.5l0.4-0.3l0.4,0.5l0.2-0.1l-0.6-0.7L29.4,50l0.4,0.5c-0.4-0.1-0.7-0.3-1.1-0.4
	c-0.3-0.1-0.7-0.3-1.1-0.4l0.2-0.2l-0.2-0.2l-0.3,0.3c-0.5-0.2-1-0.3-1.7-0.5l0.1-0.6c0.1,0.1,0.1,0.1,0.2,0.1s0.1,0,0.2,0
	s0.1,0,0.2,0s0.1-0.1,0.2-0.1l0.1-0.1c0-0.1,0-0.1,0-0.2s0-0.1,0-0.2c0-0.1-0.1-0.1-0.1-0.2l-0.3-0.4L25,48.5l0.2,0.2l0.5-0.5l0,0
	L25.5,49c-0.8-0.2-1.8-0.4-3-0.6v-0.1c0-0.1,0.1-0.2,0.2-0.2c0.1-0.1,0.1-0.1,0.2-0.1s0.1,0,0.2,0s0.1,0,0.2,0s0.1,0.1,0.2,0.1
	c0.1,0.1,0.1,0.1,0.1,0.2c0,0.1,0.1,0.1,0.1,0.2l0.2-0.1v-0.1v-0.1c0,0,0-0.1-0.1-0.1L23.7,48c-0.1-0.1-0.2-0.2-0.3-0.2
	c-0.1,0-0.2-0.1-0.3-0.1c-0.1,0-0.2,0-0.3,0.1s-0.2,0.1-0.3,0.2c-0.1,0.1-0.2,0.2-0.2,0.3s-0.1,0.1-0.1,0.2c-0.1,0-0.3-0.1-0.4-0.1
	l0.8-1.5l-0.2-0.2l-1.7,0.7l0.2,0.2l0.4-0.2l0.5,0.5l-0.2,0.4l0.1,0.1c-0.5-0.1-1.1-0.2-1.7-0.3l0,0c0-0.1,0-0.1,0-0.2
	c0-0.1,0-0.1,0-0.2c0-0.1-0.1-0.1-0.1-0.2l-0.3-0.4l-0.9,0.8c-0.7-0.1-1.4-0.2-2.2-0.3c-5.9-0.8-9.3-1.7-11.1-2.3
	C3.9,44.6,3.2,44.2,3,44C3,43.2,3,41.4,3.5,34.9z M25.7,48.2l0.4-0.4l0.1,0.1l0.1,0.1v0.1v0.1c0,0,0,0.1-0.1,0.1l-0.1,0.1H26h-0.1
	L25.7,48.2C25.8,48.2,25.8,48.2,25.7,48.2z M21.9,47.5l-0.4-0.4l0.8-0.3l0,0L21.9,47.5z M19.1,47.6l0.4-0.4l0.2,0.2l0.1,0.1v0.1v0.1
	c0,0,0,0.1-0.1,0.1c-0.2,0-0.4-0.1-0.5-0.1C19.2,47.7,19.1,47.7,19.1,47.6z M76.4,51.1c-0.3,1.3-1.3,2-1.5,2.2
	c-0.1,0.1-0.2,0.1-0.3,0.2c-0.9,0.6-2.9,1.9-13.9,4.2c-6.5,1.3-12.9,1.4-17.2,1.2c-4.7-0.2-8.1-0.8-8.4-0.9
	c-0.9-0.3-11.3-2.5-17.2-3.2c-6.5-0.8-11-1.7-13.4-2.6c-1.9-0.7-2-1.3-2-1.5c-0.2-2.3-0.3-3.9-0.1-4.9C2.5,45.2,2.7,45,2.8,45
	c0.4,0.2,1,0.6,2.2,1c2.6,0.9,6.5,1.8,11.5,2.4c8.2,1.1,10.4,1.9,12.1,2.6c0.8,0.3,1.5,0.6,2.6,0.8c1.3,0.3,4.8,1,9.3,1.5
	c3.2,0.4,6.4,0.5,9.3,0.5c1.7,0,3.3-0.1,4.9-0.2c5.1-0.4,9.3-1,12.8-1.8s6.3-1.9,8.6-3.4C76.5,49.3,76.6,50.2,76.4,51.1z"/>
</svg>
