<?xml version="1.0" encoding="utf-8"?>
<!-- Generator: Adobe Illustrator 22.1.0, SVG Export Plug-In . SVG Version: 6.00 Build 0)  -->
<svg version="1.0" id="Calque_1" xmlns="http://www.w3.org/2000/svg" xmlns:xlink="http://www.w3.org/1999/xlink" x="0px" y="0px"
	 viewBox="0 0 40 40" style="enable-background:new 0 0 40 40;" xml:space="preserve">
<style type="text/css">
	.st0{fill:#231F20;}
</style>
<g>
	<path class="st0" d="M17.8,9c1.6-1.6,3.9-2.9,4.5-3c0.4-0.1,0.6-0.4,0.5-0.8c-0.1-0.4-0.4-0.6-0.8-0.5c-1.1,0.2-3.7,1.8-5.3,3.4
		c-0.5,0.5-1.3,1.6-2.1,2.8c0.4,0.2,0.8,0.4,1.2,0.6C16.6,10.4,17.3,9.5,17.8,9z"/>
	<path class="st0" d="M29,10.3c0.1-1,0.2-1.9,0.2-2.4c0-0.4-0.4-0.6-0.7-0.6c-0.4,0-0.6,0.4-0.6,0.7c0,0.4,0,1.2-0.2,2.3
		C28.1,10.3,28.6,10.3,29,10.3z"/>
	<path class="st0" d="M35.5,8.6c-0.4-0.1-0.7,0.2-0.8,0.6L34,13.5L31,12.4c-2.4-0.9-5.1-0.5-7.2,1c-2.3,1.6-5.3,1.6-7.6,0
		c-2.1-1.5-4.8-1.9-7.2-1l-3,1.1L5.3,9.2C5.2,8.8,4.9,8.6,4.5,8.6C4.1,8.7,3.9,9,3.9,9.4l4,25.4c0.1,0.3,0.3,0.6,0.7,0.6h22.8
		c0.3,0,0.6-0.2,0.7-0.6l4-25.4C36.1,9,35.9,8.7,35.5,8.6z M24.5,14.5c0.8-0.6,1.7-0.9,2.6-1.1c-0.4,1.7-0.8,3.4-1,4.3
		c-0.6,1.8-3.7,7.2-4.9,9c-0.3,0.5-0.5,0.6-0.6,0.6c0,0-0.2-0.2-0.2-0.4c0-0.1,0.1-0.1,0.1-0.2c1.1-2.3,2.1-5.2,2.1-5.3
		c0.1-0.3-0.1-0.7-0.4-0.8c-0.3-0.1-0.7,0.1-0.8,0.4c-0.7,1.7-1.6,4.1-2,5.1c-0.4,0.8-0.8,1.5-1.1,2c-0.3,0.4-0.5,0.3-0.6,0.3
		c-0.3-0.1-0.5-0.4-0.5-0.6c0.8-1.5,3.4-6.7,3.5-7c0.2-0.3,0-0.7-0.3-0.9c-0.3-0.2-0.7,0-0.9,0.3c0,0.1-3,6-3.4,6.8l-0.2,0.3
		c-0.7,1.4-1.1,1.7-1.2,1.7c-0.1-0.1-0.1-0.5,0.4-2c0-0.1,0.1-0.2,0.1-0.3c0.1-0.2,0.3-0.5,0.4-0.8c0.1-0.2,0.2-0.4,0.4-0.7
		c0.1-0.1,0.1-0.3,0.2-0.5c1-2.2,2.3-5.1,2.4-5.3c0.1-0.3,0-0.7-0.3-0.9c-0.3-0.1-0.7,0-0.9,0.3c0,0-1.5,3.3-2.4,5.3
		c-0.2,0.4-0.3,0.7-0.5,1c-0.6,0.9-1.2,1-1.3,0.9c0,0-0.1-0.2,0.1-1c0.2-0.7,2.6-6,4.1-9.4l0.1,0c0.8,0.3,1.7,0.5,2.6,0.5
		C21.6,16,23.2,15.5,24.5,14.5z M16.1,15c-0.1,0.1-0.2,0.2-0.4,0.4c-0.5,0.5-1.2,1.2-2.2,2.1c-0.3,0.2-0.6,0.4-0.9,0.3
		c-0.2-0.1-0.4-0.3-0.5-0.5c0.4-0.6,1.2-1.9,2.2-3.4c0.4,0.2,0.7,0.4,1.1,0.6C15.6,14.7,15.8,14.8,16.1,15z M30.8,34H9.2l-3-19.2
		l3.2-1.2c1.2-0.4,2.4-0.5,3.6-0.2c-1.1,1.8-2.1,3.3-2.2,3.5c-0.1,0.2-0.1,0.4-0.1,0.5c0,0.1,0.4,1.3,1.4,1.6c0.7,0.2,1.4,0,2.2-0.6
		c0.1-0.1,0.2-0.2,0.3-0.3c-1.2,2.6-2.6,5.8-2.8,6.5c-0.2,0.9-0.4,2,0.5,2.5c0.3,0.2,0.7,0.2,1,0.2c-0.3,1-0.4,2.2,0.6,2.7
		c0.2,0.1,0.4,0.1,0.6,0.1c0.7,0,1.3-0.6,1.8-1.3c0.2,0.2,0.5,0.4,0.8,0.6c0.8,0.3,1.5,0,2.1-0.7c0.1-0.2,0.3-0.4,0.4-0.6
		c0.2,0.2,0.4,0.3,0.6,0.3c0.5,0.1,1.3,0.1,2-1.1c1-1.5,4.4-7.2,5-9.3c0.3-0.9,0.8-2.8,1.1-4.8c0.7,0,1.4,0.1,2,0.4l3.3,1.2L30.8,34
		z"/>
</g>
</svg>
