<?xml version="1.0" encoding="utf-8"?>
<!-- Generator: Adobe Illustrator 22.1.0, SVG Export Plug-In . SVG Version: 6.00 Build 0)  -->
<svg version="1.0" id="Calque_1" xmlns="http://www.w3.org/2000/svg" xmlns:xlink="http://www.w3.org/1999/xlink" x="0px" y="0px"
	 viewBox="0 0 40 40" style="enable-background:new 0 0 40 40;" xml:space="preserve">
<style type="text/css">
	.st0{fill:#020203;}
</style>
<path class="st0" d="M8.7,32h22.7c0.3,0,0.6-0.2,0.7-0.6l4-25.3c0.1-0.4-0.2-0.7-0.6-0.8c-0.4-0.1-0.7,0.2-0.8,0.6L34,10.2l-3-1.1
	c-2.4-0.9-5.1-0.5-7.2,1c-2.3,1.6-5.3,1.6-7.6,0c-2.1-1.5-4.8-1.9-7.2-1l-3,1.1L5.3,5.9c0-0.4-0.4-0.6-0.7-0.6C4.2,5.4,4,5.7,4,6.1
	l4,25.3C8.1,31.8,8.3,32,8.7,32z M9.5,10.4c2-0.7,4.2-0.4,6,0.8c1.4,1,3,1.5,4.6,1.5s3.2-0.5,4.6-1.5c1.7-1.2,4-1.6,6-0.8l3.3,1.2
	l-3,19.1H9.2l-3-19.1L9.5,10.4z M32,33.3H8c-0.4,0-0.7,0.3-0.7,0.7s0.3,0.7,0.7,0.7h24c0.4,0,0.7-0.3,0.7-0.7S32.4,33.3,32,33.3z
	 M13.9,25.1c-0.7,0-1.4-0.3-2-0.6l-0.1,2.1c0.6,0.3,1.4,0.6,2.4,0.6c2.3,0,3.2-1.7,3.2-3.4c0-1.1-0.3-2-1.3-2.5
	c0.6-0.4,1.1-1.1,1.1-2.3c0-1.6-1-2.9-3-2.9c-0.9,0-1.6,0.2-2.3,0.6l0.2,1.9c0.6-0.3,1.1-0.4,1.9-0.4c0.7,0,1.1,0.3,1.1,1.2
	c0,1-0.4,1.3-1,1.3H13l-0.2,1.9h1.3c0.9,0,1.3,0.4,1.3,1.3S14.7,25.1,13.9,25.1z M21.3,27.2c2,0,3.2-1.7,3.2-5.5
	c0-3.9-1.2-5.5-3.2-5.5s-3.2,1.6-3.2,5.5C18.1,25.5,19.3,27.2,21.3,27.2z M21.3,18.1c0.8,0,0.9,1.5,0.9,3.5s-0.1,3.5-0.9,3.5
	s-1-1.5-1-3.5S20.5,18.1,21.3,18.1z M26.7,20.3c0.9,0,1.5-0.8,1.5-2.1s-0.6-2.1-1.5-2.1s-1.5,0.8-1.5,2.1S25.8,20.3,26.7,20.3z
	 M26.7,17c0.4,0,0.7,0.5,0.7,1.2s-0.2,1.2-0.7,1.2S26,18.9,26,18.2S26.3,17,26.7,17z"/>
</svg>
