<?xml version="1.0" encoding="utf-8"?>
<!-- Generator: Adobe Illustrator 23.0.1, SVG Export Plug-In . SVG Version: 6.00 Build 0)  -->
<svg version="1.1" id="Calque_1" xmlns="http://www.w3.org/2000/svg" xmlns:xlink="http://www.w3.org/1999/xlink" x="0px" y="0px"
	 viewBox="0 0 80 80" style="enable-background:new 0 0 80 80;" xml:space="preserve">
<style type="text/css">
	.st0{fill:#FFFFFF;}
</style>
<path class="st0" d="M77.9,52.7c-0.1-0.9-0.4-2.7-1.3-4c0-0.7-0.5-3.5-6-6.3l0,0l0,0c-2-0.8-3.8-1.4-5.3-2c-2.4-0.9-4.2-1.6-4.8-1.9
	c-0.3-0.3-1.3-0.9-5.5-3c-3.2-1.7-7.2-3.7-8-4.5c-0.6-0.6-1.7-1.7-3-2.9c-2.7-2.7-6-6-6.6-6.5l0,0l0,0c-0.9-0.5-2.4-0.8-3.7,0.2
	c-0.4-0.3-1-0.9-1.7-1.4c-1-0.9-1.7-1.5-2.1-1.7c-0.5-0.2-1.9-0.4-3.6,0.1C24.4,19.3,22,20.7,20,24l-0.1-0.1c-0.8-0.8-2-1.9-3.6-2.7
	c-1.9-0.9-3.7-1.1-5.6-0.5l0,0c-0.1,0-0.1,0-0.2,0.1c-0.6,0.2-1.4,0.5-2.2,1c-1.1,0.7-1.9,1.6-2.5,2.8c-0.8,1.5-1.2,3.3-1.2,5.6
	c-0.3,0.9-0.8,3.2-1.2,5.5C3,38,2.7,39.5,2.7,40.2l0,0c-0.3,0.3-0.5,1-0.6,2.1c-0.2,1.6-0.1,3.9,0.1,7v0.1v0.1v0.1
	c0.3,0.6,0.7,1.2,2.4,1.9c2,0.9,5.7,1.9,11.2,3.1c6.5,1.5,13.5,3.4,18.5,4.7c3.8,1,6.3,1.7,7,1.8c0.6,0.1,4,0.5,8.8,0.5
	c0.9,0,1.8,0,2.8,0c3.4-0.1,6.7-0.4,9.7-0.9c3.6-0.6,6.9-1.5,9.6-2.7c1.1-0.4,1.9-0.7,2.6-0.9c1.4-0.4,2.1-0.7,2.9-1.3h0.1v-0.1
	C78.1,55.1,78,53.5,77.9,52.7z M59.7,38.9L59.7,38.9l0.2,0.2c0.6,0.4,2.3,1,5.1,2.1c1.5,0.6,3.3,1.2,5.2,2c2.9,1.6,4.3,3,4.9,4
	c0.4,0.6,0.5,1.1,0.6,1.4c-2.9,1.5-6.8,2.6-10.4,3.4c0-1.5-0.4-3.1-1.2-4.6c-0.7-1.3-1.8-2.5-3.2-3.7c-1.2-1.1-2.5-1.9-3.3-2.4
	c-0.5-0.3-1-0.6-1.3-0.7C57.4,40.1,58.5,39.6,59.7,38.9L59.7,38.9z M55.8,36.8c1.4,0.7,2.7,1.4,3.5,1.9c-3.6,1.9-6.5,3-8.8,3.4
	c-1.7,0.3-3.1,0.2-4.3-0.3c-0.3-0.2-20.5-9.6-24.7-14.3c1.4-0.8,4.5-2.2,7.8-0.1c5.2,3.2,18.9,10.8,20.8,11.2c0.2,0,0.4,0.1,0.6,0.1
	C52.6,38.6,55.2,37.4,55.8,36.8z M31.8,27.9l4.9-0.1L35.3,30C34,29.2,32.8,28.5,31.8,27.9z M36.6,30.7l3.8,0.2l-1,1.4
	C38.5,31.8,37.6,31.2,36.6,30.7z M41,33.1l4.3,0.3l-0.4,1.7c-1.1-0.5-2.2-1.2-3.5-1.9C41.3,33.2,41.1,33.2,41,33.1z M46.3,35.9
	l3.5-0.1l-0.6,1.5C48.5,37,47.5,36.5,46.3,35.9z M54.6,36.2c0.1,0.1,0.2,0.1,0.4,0.2c-0.9,0.6-3.3,1.6-4.7,1.3h-0.1l4-1.7
	C54.3,36,54.4,36.1,54.6,36.2z M49.6,37.4l0.6-1.6l3.4-0.1L49.6,37.4z M53,35.3h-2.6l0.4-1.2C51.5,34.6,52.2,35,53,35.3z M50.4,34
	l-0.5,1.4l-4.4,0.1c-0.1,0-0.2-0.1-0.3-0.1l0.5-1.9l4.2,0.3C50.1,33.8,50.3,33.9,50.4,34z M46.4,31.6L46.4,31.6
	c0.4,0.4,1.4,1,2.8,1.7l-3.3-0.2l0.4-1.6C46.3,31.5,46.3,31.5,46.4,31.6z M45.9,31.1L45.4,33l-5.3-0.4c-0.1-0.1-0.2-0.1-0.3-0.2
	l1.1-1.6L45.9,31.1L45.9,31.1z M43.4,28.6c0.8,0.8,1.5,1.5,2.1,2.1l-4.3-0.2l1.6-2.4C43,28.3,43.2,28.5,43.4,28.6z M42.5,27.8
	l-1.8,2.7l-4.9-0.2c-0.1,0-0.2-0.1-0.2-0.1l1.5-2.4l5.2-0.1C42.4,27.7,42.5,27.7,42.5,27.8z M41.9,27.2l-4.6,0.1l1.8-2.8
	C40,25.3,41,26.3,41.9,27.2z M21,24.1C21,24,21,24,21,24.1L21,24.1c0.1-0.1,0.1-0.1,0.1-0.1c3.3-5.1,7.9-4.7,8.4-4.5
	c0.3,0.2,1.1,0.9,1.9,1.6c0.8,0.7,1.6,1.4,2,1.7l0.3,0.2l0.2-0.2c1.3-1.2,2.7-0.5,2.9-0.4c0.3,0.2,1.1,1,2.1,1.9l-2,3.1l-5.8,0.1
	c-0.5-0.3-1-0.6-1.4-0.9c-4.4-2.8-8.5,0-9.3,0.6l0,0l0,0c-0.1,0.1-0.2,0.1-0.3,0.2C20,26,20.8,24.3,21,24.1C21,24,21,24,21,24.1z
	 M20.9,27.9L20.9,27.9l-0.3-0.3L20.9,27.9z M8.6,22.7c0.1-0.1,0.2-0.1,0.3-0.2c0.7-0.4,1.4-0.7,2-0.9c0.1,0,0.1,0,0.2-0.1
	c1.7-0.5,3.3-0.4,5,0.5c1.4,0.7,2.5,1.8,3.4,2.5c0.1,0.1,0.2,0.2,0.3,0.3c0,0.1-0.1,0.1-0.1,0.2c-0.4,1.1-0.5,2-0.3,2.8
	c-1.5,0.9-3.3,1.8-4.8,2.5c-3.1,1.4-4,1.3-4.1,1.2c-0.5-0.2-1.4-1.1-1.7-4.8C8.5,25,8.6,23.4,8.6,22.7z M5.6,30.3L5.6,30.3v-0.1
	c0-3,0.7-5.3,2.1-6.7c0,0.8,0,2,0.1,3.3c0.2,1.9,0.5,3.4,1,4.3C8.4,31.5,7,33,6.3,33.8C6.1,33.9,6,34,5.8,33.9
	c-0.3-0.1-0.6-0.4-0.9-0.8C5.2,31.9,5.4,30.9,5.6,30.3z M4.8,33.7C5,34,5.3,34.2,5.7,34.3c0.1,0,0.1,0,0.2,0c0.3,0,0.5-0.1,0.7-0.3
	l0,0c0.6-0.7,1.9-2,2.4-2.5c0.3,0.4,0.7,0.7,1.1,0.9l0,0c0.1,0,0.2,0.1,0.5,0.1c0.6,0,1.7-0.2,4.3-1.3c2-0.9,4.3-2.1,6-3.1
	c0,0,0,0,0.1,0s0.2-0.1,0.3-0.2c1.7,2,6.4,5,13.9,9c5.7,3,11,5.5,11,5.5l0,0c0.7,0.3,1.5,0.5,2.7,0.5c1.6,0,3.9-0.5,7.2-1.9
	c0.4,0.2,2.7,1.4,4.8,3.2c1.3,1.2,2.3,2.4,3,3.6c0.8,1.4,1.2,2.9,1.2,4.4c-2,0.4-4,0.7-5.8,1l0,0c-11.3,1.9-20.2-0.3-23.5-1.1
	c-0.4-0.1-0.8-0.2-1-0.2c-1-0.2-2.6-0.8-4.9-1.7c-3-1.1-7.1-2.6-13-4.5l0,0c-5.4-1.2-9.2-2.3-11.3-3.4c-0.9-0.5-1.3-0.9-1.5-1.1
	L4,40.7C3.5,39.9,4.2,36.5,4.8,33.7z M77,55.1c-0.6,0.4-1.3,0.7-2.5,1.1c-0.7,0.2-1.6,0.5-2.7,0.9l0,0c-6,2.6-13.6,3.4-18.9,3.6
	c-6,0.2-10.7-0.3-11.4-0.4c-0.6-0.1-3.2-0.8-6.9-1.7c-5.1-1.3-12-3.2-18.5-4.7c-12.1-2.8-12.7-4-13-4.7l0,0c-0.3-4.6-0.1-6.7,0-7.6
	C4.5,43,9,44.7,16.3,46.2c5.9,2,10,3.4,13,4.5c2.4,0.9,4,1.5,5,1.7l0,0c0.2,0.1,0.6,0.1,1,0.2c2.4,0.6,7.7,1.9,14.7,1.9
	c2.8,0,5.9-0.2,9.1-0.8c7.3-1,13-2.5,16.8-4.5c0.7,1.1,1,2.5,1.1,3.3C77.2,53.9,77.1,54.8,77,55.1z M22.2,41.4
	c-0.1-0.4-0.2-0.8-0.1-0.9c0,0,0-0.1,0.1-0.2c0,0,0,0,0-0.1s0.1-0.1,0.2-0.2c0.3-0.4,0.8-0.8,1.6-0.7h0.2c0.8,0,0.9-0.1,1-0.1
	s0.2,0,0.3,0.1c0.1,0.1,0.1,0.3-0.3,0.6l0,0c-0.4,0.2-1,0.2-1.2,0.2c-0.1,0-0.3,0.2-0.3,0.2s0,0,0.2,0c0.1,0,0.1,0,0.2,0
	c0.5,0,1,0,1.3,0.5c0.1,0,0.2-0.1,0.3-0.1c0.1-0.1,0.2-0.1,0.3,0c0.2,0,0.5,0.1,0.6,0.2c0.1,0,0.2,0,0.3,0c0.6,0,0.8,0,0.8,0
	c0.1,0,0.1,0.2,0.1,0.3s-0.1,0.4-0.6,0.5l0,0c-0.2,0-0.5,0-0.6,0s-0.2,0-0.3,0c0.2,0.1,0.4,0.4,0.5,0.6c0.3,0.1,0.5,0.2,0.6,0.4
	c0.1,0.1,0.1,0.2,0,0.3c-0.1,0-0.2,0-0.3,0s-0.3,0-0.5-0.1s-0.4-0.1-0.6-0.2c-0.4-0.1-0.7-0.2-0.8-0.2c-0.1,0.1-0.3,0.2-0.4,0.2
	h-0.1c-0.1,0-0.4,0.1-0.6,0c-0.1,0-0.2-0.1-0.3-0.3l0,0v-0.1l0,0c-0.6-0.1-0.6-0.2-0.6-0.2s0-0.1,0.1-0.1c0,0,0,0,0.1,0
	s0.3,0.1,0.5,0.1c0-0.2,0.1-0.3,0.3-0.4c0.1,0,0.2,0,0.3,0.1v0.1h-0.1c-0.1-0.1-0.1-0.1-0.2-0.1S24,42,24,42.1l0,0l0,0l0,0v0.1
	c0,0.1,0.1,0.2,0.2,0.2c0.2,0.1,0.5,0,0.5-0.1h0.1l0,0c0,0,0.1,0,0.3-0.2l0,0c0.2-0.1,0.5,0,0.9,0.2c0.2,0.1,0.3,0.1,0.5,0.2
	c0.5,0.1,0.6,0.1,0.7,0c0,0,0-0.1,0-0.2c-0.1-0.2-0.3-0.3-0.6-0.3l0,0c-0.1-0.2-0.3-0.5-0.5-0.6l0,0l0,0c0.1-0.1,0.2-0.1,0.5-0.1
	c0.2,0,0.4,0,0.6,0c0.4-0.1,0.5-0.3,0.5-0.4c0-0.1,0-0.2-0.1-0.2l0,0c-0.1,0-0.5,0-0.8,0c-0.1,0-0.2,0-0.3,0l0,0
	c-0.1-0.1-0.3-0.2-0.6-0.2l0,0c-0.1,0-0.1,0-0.2,0s-0.2,0.1-0.4,0.1h-0.1c-0.2-0.5-0.7-0.5-1.2-0.4c-0.1,0-0.2,0-0.2,0
	c-0.1,0-0.3,0-0.3-0.1c0-0.2,0.2-0.3,0.4-0.4l0,0c0.2,0,0.8,0,1.2-0.2c0.3-0.3,0.3-0.4,0.2-0.4c0-0.1-0.1-0.1-0.2-0.1
	c-0.2,0.1-0.2,0.1-1.1,0.1h-0.2l0,0c-0.8,0-1.2,0.4-1.5,0.7l-0.1,0.1h0.3l0,0l0,0v0.5l0.3-0.1h0.1l0.2,0.3h0.4c0,0,0,0,0.1,0
	l0.1,0.3l0.2-0.2c0,0,0,0,0.1,0l0,0l0.1,0.3l0.3-0.1h0.1l0.1,0.3l0.3-0.2H25v0.1l-0.3,0.3l0,0l0,0l0,0L24.5,41l-0.4,0.2l0,0l0,0
	l-0.1,0l-0.2,0.2c0,0,0,0-0.1,0s0,0,0,0l-0.1-0.3h-0.4c0,0,0,0-0.1,0L23,40.7l-0.3,0.1c0,0,0,0-0.1,0l0,0l-0.1-0.5h-0.3
	c-0.1,0.1-0.1,0.2-0.1,0.2C22,40.7,22.1,41,22.2,41.4c0,0.1,0,0.1,0.1,0.2c0.1,0.4,0.3,0.4,0.5,0.5h0.1c0.1-0.2,0.2-0.3,0.2-0.4
	c0-0.2-0.2-0.3-0.3-0.3l0,0c0,0,0,0,0-0.1c0,0,0,0,0.1,0l0,0c0.1,0,0.3,0.2,0.4,0.4c0,0.2,0,0.4-0.2,0.6c0,0,0,0-0.1,0
	c0,0-0.1,0-0.2,0c-0.2,0-0.5,0-0.6-0.5C22.2,41.6,22.2,41.5,22.2,41.4z M25.7,41.4H26l0,0l0.2-0.2c0,0,0,0,0-0.1l0,0L26,41
	c0,0,0,0-0.1,0L25.7,41.4C25.7,41.3,25.7,41.3,25.7,41.4L25.7,41.4z M26,41.1L26,41.1L26,41.1l-0.1,0.1L26,41.1z"/>
</svg>
