<?xml version="1.0" encoding="utf-8"?>
<!-- Generator: Adobe Illustrator 23.0.1, SVG Export Plug-In . SVG Version: 6.00 Build 0)  -->
<svg version="1.1" id="Calque_1" xmlns="http://www.w3.org/2000/svg" xmlns:xlink="http://www.w3.org/1999/xlink" x="0px" y="0px"
	 viewBox="0 0 80 80" style="enable-background:new 0 0 80 80;" xml:space="preserve">
<style type="text/css">
	.st0{fill:#FFFFFF;}
</style>
<g>
	<path class="st0" d="M77.5,47.2c-0.1-0.4-0.3-0.7-0.6-0.8c-0.1,0-0.1,0-0.1,0c-0.1-0.6-0.3-1.4-1.9-2.5c-1.9-1.3-5.6-2.7-10.8-4.2
		c-1.9-1.3-10.7-7.1-18.1-11.5c0,0,0,0-0.1,0c-3.7-2.2-7.1-4-9.2-4.8h-0.1h-0.1c-1.1-0.1-1.4-0.2-2-0.4c-0.1,0-0.2-0.1-0.3-0.1l0,0
		c-0.3-0.1-0.6-0.5-1-0.8c-0.6-0.7-1.4-1.5-2.4-1.4c-0.7,0.1-6.5,0.7-8.9,4.7c-0.4,0.6-0.6,1.4-0.6,2.1c0,0.8,0.2,1.5,0.6,2.1
		c-0.1,0.1-0.2,0.2-0.4,0.3c-0.1,0.1-0.2,0.2-0.4,0.3c-0.9-0.2-4.4-1-6.8-3.7l0,0c-1.9-1.9-3.8-2.9-4.9-2.6l0,0
		c-0.1,0-0.3,0.1-0.5,0.1c-0.5,0.1-1.1,0.2-1.7,0.6c-0.4,0.2-1.3,0.7-1.7,1.3c-0.3,0.4-0.6,1.4-1.2,3.3c-0.3,1.1-0.7,2.2-1,3
		c-0.6,1.6-0.7,5.9-0.8,9c0,1.1,0,2.3-0.1,2.5c-0.2,0.5-0.3,1.6-0.3,1.9c0,0.1-0.1,1.1-0.1,2.2c-0.1,2.1,0.1,2.6,0.2,2.9
		c0.3,0.7,1.1,1.3,2.4,1.9c2,0.8,5.3,1.5,9.7,2.1c10,1.4,18.2,2.8,20.8,3.4c0.4,0.1,4,0.9,9.9,1.3c1.4,0.1,2.9,0.1,4.3,0.1
		c4.7,0,9.2-0.4,13.5-1.3c5.7-1.1,12.3-3.6,13.7-4.9C78,51.9,78.5,50.6,77.5,47.2z M76.6,47.5L76.6,47.5L76.6,47.5
		C76.6,47.4,76.6,47.4,76.6,47.5L76.6,47.5z M63.6,40.5L63.6,40.5c5.2,1.5,8.8,2.8,10.7,4.1c1.4,1,1.5,1.6,1.6,2.1
		c0,0.1,0,0.2,0.1,0.4c-0.8,0.7-2.9,2.2-6.7,3.2c-2.8,0.8-7.1,1.6-11.1,2.2c0-0.1,0-0.3-0.1-0.4c-0.3-1.6-1.1-5.8-2.2-8.6
		c-0.3-0.9-0.9-1.7-1.7-2.4l5.2-3.4C61.4,39.1,62.9,40.1,63.6,40.5L63.6,40.5z M44.3,28.4L41,28.8l1.1-1.7
		C42.8,27.5,43.6,27.9,44.3,28.4z M47.6,30.3l-2.8,0.5l0.9-1.6C46.3,29.5,47,29.9,47.6,30.3z M51.8,32.9l-4,0.5l0.9-2.4
		C49.8,31.6,50.8,32.3,51.8,32.9z M55.2,35c-0.1,0-0.3,0-0.5,0.1c-0.7,0.1-1.7,0.2-2.8,0.4l1-1.9C53.6,34,54.4,34.5,55.2,35z
		 M40.6,29.6L45,29l-1.1,1.9l-4.8,0.8L40.6,29.6z M40.1,28.9L35,29.6c0.2-0.4,0.4-1.1,0.7-1.8l5.6-0.7L40.1,28.9z M44.4,31.5
		l3.7-0.6l-1,2.5l-4,0.5L44.4,31.5z M47.5,34.1l4.5-0.5l-1,2c-1.7,0.2-3.5,0.5-4.3,0.6L47.5,34.1z M51.5,36.2
		c1.9-0.3,3.6-0.5,4.4-0.5c-0.2,0.4-0.5,1.1-0.9,1.9l-4.5,0.6L51.5,36.2z M55.3,38.4c0-0.1,0.1-0.2,0.1-0.2l2.6-0.4l-3.5,2.3
		C54.7,39.7,55,39,55.3,38.4z M55.8,37.4c0.4-0.8,0.6-1.3,0.8-1.6c0.6,0.4,1.3,0.8,1.9,1.2L55.8,37.4z M36,27c0.3-0.8,0.6-1.5,0.8-2
		c0.1-0.2,0.2-0.4,0.2-0.6c1.1,0.5,2.4,1.1,4,2L36,27z M35.2,27.1l-3,0.4c1.4-1,3-2.1,3.9-2.7C35.9,25.4,35.6,26.2,35.2,27.1z
		 M34.9,27.9c-0.2,0.5-0.4,1.1-0.6,1.6c-0.9-0.5-1.6-0.9-2-1.2c0,0-0.1,0-0.1-0.1L34.9,27.9z M39.7,29.7l-1.3,2
		c-0.9-0.5-1.9-1.1-2.7-1.5L39.7,29.7z M43.5,31.7l-1.2,2.2c-0.9-0.5-1.8-1-2.7-1.5L43.5,31.7z M46.8,34.2L46,36
		c-0.8-0.4-1.6-0.9-2.5-1.4L46.8,34.2z M50.7,36.3L49.8,38c-0.2-0.1-0.4-0.2-0.5-0.3c-0.2-0.1-0.5-0.2-0.6-0.3l0,0
		c-0.2-0.1-0.6-0.3-1.2-0.7C48.4,36.6,49.6,36.4,50.7,36.3z M54.6,38.3c-0.4,0.7-0.7,1.5-1.1,2.2c-0.8-0.6-1.6-1.2-2.4-1.7
		L54.6,38.3z M22.7,25.7c0.9-1.4,2.3-2.6,4.4-3.4c1.9-0.7,3.5-0.9,3.9-0.9c0.6-0.1,1.1,0.6,1.7,1.1c0.4,0.5,0.8,0.9,1.3,1.1
		c0.1,0,0.2,0.1,0.3,0.1c0.5,0.2,0.8,0.3,1.5,0.4c-0.7,0.5-2.1,1.5-4.8,3.3c-2.4-1.1-4.2-0.6-5.8,0c-1.3,0.5-2,0.9-2.7,1.4
		C21.9,28,22.2,26.6,22.7,25.7z M9.1,24.8c0.2,0,0.4-0.1,0.5-0.1c0.6-0.2,2.2,0.5,4.1,2.4c2.1,2.4,5.1,3.4,6.6,3.8
		c-1.7,1.3-4.4,3.3-7.2,4.1c-1,0.3-1.9,0.2-2.7-0.2c-1.9-1.1-2.7-4.1-3-5.4v-0.1c-0.6-1.6-0.7-2.8-0.3-3.5
		C7.5,25.1,8.4,24.9,9.1,24.8z M4.1,32.4L4.1,32.4c0.3-0.9,0.7-2,1-3.1c0.3-1,0.7-2.1,0.9-2.7c0,0.8,0.1,1.8,0.6,2.9
		c0.4,1.4,1.2,4.6,3.4,5.9c1,0.6,2.1,0.7,3.3,0.3c3.2-0.9,6.2-3.3,7.8-4.5c0.1-0.1,0.2-0.2,0.4-0.3l0,0c0.2-0.2,0.4-0.3,0.5-0.5
		c1.2-1.1,1.7-1.6,3.5-2.2c2.2-0.8,3.9-0.9,6.3,0.7l0,0c2.6,1.6,15,8.5,16.3,9.2c0.2,0.1,0.4,0.2,0.6,0.3c1.7,0.9,5.3,2.8,6.2,5.4
		l0,0c1.1,2.7,1.9,6.9,2.2,8.4c0,0.2,0.1,0.3,0.1,0.4c-1.9,0.3-3.8,0.5-5.4,0.6c-5,0.4-15.4-1.3-17.2-1.8c-1.6-0.4-10.1-2.7-12-3.1
		c-1-0.2-4.2-0.8-7.7-1.4c-3.2-0.6-6.5-1.2-8-1.5c-2.1-0.5-3.2-1.4-3.6-1.8c0-0.3,0.1-1,0.1-2.6C3.4,38.4,3.5,33.8,4.1,32.4z
		 M76,52.6c-1.1,1.1-7.5,3.6-13.2,4.7c-5.6,1.1-11.5,1.5-17.6,1.1c-4.7-0.3-8.3-0.9-9.7-1.2c-2.7-0.7-10.9-2.1-20.9-3.4
		C5.2,52.5,3.3,51.1,3,50.3l0,0l0,0c-0.2-0.4-0.1-2.7,0-4.7l0,0c0-0.3,0-0.7,0.1-1c0.6,0.5,1.8,1.2,3.6,1.7l0,0
		c1.6,0.3,4.9,0.9,8,1.5c3.4,0.6,6.7,1.2,7.6,1.4c1.9,0.4,10.4,2.7,12.2,3.2c1.6,0.5,10.2,1.9,15.7,1.9c0.6,0,1.2,0,1.8-0.1
		c5-0.4,13-1.8,17.4-3c4.2-1.2,6.4-2.8,7.2-3.5C77.5,50.5,77.2,51.5,76,52.6z"/>
	<path class="st0" d="M28.2,44c0.1,0.1,0.4,0.2,0.6,0.3c0.1,0,0.3,0,0.4-0.1c0.2-0.1,0.5,0,0.6,0.1c0,0,0.1,0.1,0.1,0.2
		c0.1,0.1,0.1,0.3,0.2,0.4l0,0c0.3,0.1,0.7,0,0.9-0.1l0,0l0.1-0.1c0.1-0.1,0.3-0.2,0.4-0.2s0.1,0.1,0.2,0.1c0.1,0.1,0.3,0.1,0.4,0.2
		c0.1,0,0.2,0,0.3,0s0.3,0,0.5,0.1c0.3,0.1,0.5,0.1,0.7,0.1c0.1,0,0.2,0,0.3-0.1s0.1-0.2,0.1-0.3s-0.1-0.2-0.3-0.2h-0.1
		c-0.3,0-1-0.2-1.1-0.3c0-0.1-0.1-0.1-0.1-0.2l-0.1-0.1c0,0,0,0,0.1,0s0.3,0,0.5,0s0.5,0,0.7,0l0,0c0.4-0.1,0.8-0.3,0.8-0.5
		c0-0.1-0.2-0.2-0.6-0.3l0,0l-0.6,0.1L33,42.8c0,0,0,0-0.1,0L32.5,43l-0.2-0.2h-0.1C32,42.9,31.8,43,31.8,43s0,0-0.1,0
		c-0.2-0.1-0.9-0.5-1.8-0.4c-0.2,0-0.4-0.1-0.4-0.2c0,0,0.1-0.1,0.3-0.2c0.1,0,0.1,0,0.2,0c0.7-0.1,1.6-0.1,1.8-0.5
		c0.1-0.1,0.1-0.1,0-0.2c-0.1-0.1-0.3-0.2-0.6-0.1c-0.1,0-0.2,0-0.4,0c-0.8,0-2.2,0-2.3,0.8c0,0.1-0.1,0.1-0.1,0.2l0,0
		c-0.1,0.1-0.2,0.3-0.2,0.4C28.2,43,28,43.8,28.2,44z M28.3,42.8c0-0.1,0-0.1,0.1-0.2l0,0l0,0h0.3l0.1,0.4l0,0c0,0,0,0,0.1,0
		l0.3-0.2l0.3,0.2l0,0l0.3,0.2l0,0h0.4l0.1,0.3l0,0l0,0l0.4-0.2l0.1,0.2l0,0l0,0l0.5-0.2c0,0,0,0,0-0.1c0,0,0,0-0.1,0l-0.5,0.2
		l-0.1-0.2c0,0,0,0-0.1,0l-0.4,0.2L30,43.1c0,0,0,0-0.1,0h-0.4l0-0.1l-0.3-0.2c0,0,0,0-0.1,0l-0.2,0.1v-0.4c0,0,0-0.1-0.1-0.1l0,0
		h-0.3l0,0c0-0.1,0.1-0.1,0.2-0.2l0,0c0.1-0.7,1.5-0.7,2.2-0.7c0.2,0,0.3,0,0.4,0c0.3,0,0.4,0,0.4,0.1c0,0,0,0,0,0.1l0,0
		C31.5,42,30.6,42,30,42.1c-0.1,0-0.1,0-0.2,0l0,0c-0.3,0.1-0.4,0.2-0.4,0.3c0,0.2,0.3,0.3,0.5,0.3l0,0c0.8-0.1,1.5,0.3,1.7,0.4
		c0.1,0,0.1,0.1,0.1,0.1s0.1,0,0.5-0.3l0.2,0.2c0,0,0,0,0.1,0l0.4-0.2l0.3,0.3c0,0,0,0,0.1,0l0.6-0.1c0.4,0.1,0.5,0.2,0.5,0.2
		c0,0.1-0.3,0.2-0.8,0.3l0,0c-0.2,0.1-0.5,0.1-0.7,0c-0.2,0-0.3,0-0.5,0c-0.1,0-0.2,0-0.2,0.1s0,0.1,0.1,0.2c0,0,0.1,0.1,0.1,0.2
		l0,0c0.1,0.2,0.7,0.3,1.2,0.4h0.1c0.1,0,0.2,0.1,0.2,0.1c0,0.1,0,0.1,0,0.2c-0.1,0.1-0.2,0.1-0.8-0.1c-0.2-0.1-0.4-0.1-0.5-0.1
		s-0.2,0-0.3,0s-0.3-0.1-0.4-0.2c-0.1,0-0.2-0.1-0.3-0.1h-0.1c-0.1,0-0.3,0.1-0.4,0.2L31,44.6c-0.2,0.1-0.6,0.1-0.8,0.1
		c-0.1-0.1-0.1-0.2-0.2-0.3c0-0.1-0.1-0.2-0.1-0.3l0,0c-0.2-0.1-0.5-0.2-0.7-0.1l0,0c0,0-0.1,0.1-0.3,0.1c-0.2,0-0.5-0.1-0.5-0.2
		l0,0C28.2,43.8,28.3,43.1,28.3,42.8C28.3,42.9,28.3,42.8,28.3,42.8z"/>
</g>
</svg>
