<?xml version="1.0" encoding="utf-8"?>
<!-- Generator: Adobe Illustrator 22.1.0, SVG Export Plug-In . SVG Version: 6.00 Build 0)  -->
<svg version="1.0" id="Calque_1" xmlns="http://www.w3.org/2000/svg" xmlns:xlink="http://www.w3.org/1999/xlink" x="0px" y="0px"
	 viewBox="0 0 40 40" style="enable-background:new 0 0 40 40;" xml:space="preserve">
<style type="text/css">
	.st0{fill:#231F20;}
</style>
<path class="st0" d="M20,33.8c7.6,0,13.8-6.2,13.8-13.8c0-7.6-6.2-13.8-13.8-13.8C12.4,6.2,6.2,12.4,6.2,20
	C6.2,27.6,12.4,33.8,20,33.8z M20,7.5c6.9,0,12.5,5.6,12.5,12.5S26.9,32.5,20,32.5S7.5,26.9,7.5,20S13.1,7.5,20,7.5z M19.6,22.5
	c0.2,0,0.3,0,0.5,0c1.8,0,3-1.1,3-3.7c0-2.2-1.1-3.6-3.1-3.6h-2.6v10.6h2.2V22.5z M19.6,17.3h0.4c0.6,0,0.9,0.5,0.9,1.7
	c0,1.1-0.3,1.7-0.9,1.7c-0.1,0-0.3,0-0.4,0V17.3z"/>
</svg>
