<?xml version="1.0" encoding="utf-8"?>
<!-- Generator: Adobe Illustrator 22.1.0, SVG Export Plug-In . SVG Version: 6.00 Build 0)  -->
<svg version="1.0" id="Calque_1" xmlns="http://www.w3.org/2000/svg" xmlns:xlink="http://www.w3.org/1999/xlink" x="0px" y="0px"
	 viewBox="0 0 40 40" style="enable-background:new 0 0 40 40;" xml:space="preserve">
<style type="text/css">
	.st0{fill:#231F20;}
</style>
<path class="st0" d="M30.2,29.3c2.2-2.5,3.6-5.7,3.6-9.3c0-3.6-1.4-6.8-3.6-9.3l3.6-3.6c0.3-0.3,0.3-0.7,0-0.9
	c-0.3-0.3-0.7-0.3-0.9,0l-3.6,3.6c-2.5-2.2-5.7-3.6-9.3-3.6s-6.8,1.4-9.3,3.6L7.1,6.2c-0.3-0.3-0.7-0.3-0.9,0
	c-0.3,0.3-0.3,0.7,0,0.9l3.6,3.6c-2.2,2.5-3.6,5.7-3.6,9.3s1.4,6.8,3.6,9.3l-3.6,3.6c-0.3,0.3-0.3,0.7,0,0.9C6.3,33.9,6.5,34,6.7,34
	s0.3-0.1,0.5-0.2l3.6-3.6c2.5,2.2,5.7,3.6,9.3,3.6s6.8-1.4,9.3-3.6l3.6,3.6c0.1,0.1,0.3,0.2,0.5,0.2s0.3-0.1,0.5-0.2
	c0.3-0.3,0.3-0.7,0-0.9L30.2,29.3z M32.5,20c0,3.2-1.2,6.1-3.2,8.4L20.9,20l8.4-8.4C31.3,13.9,32.5,16.8,32.5,20z M20,7.5
	c3.2,0,6.1,1.2,8.4,3.2L20,19.1l-8.4-8.4C13.9,8.7,16.8,7.5,20,7.5z M7.5,20c0-3.2,1.2-6.1,3.2-8.4l8.4,8.4l-8.4,8.4
	C8.7,26.1,7.5,23.2,7.5,20z M20,32.5c-3.2,0-6.1-1.2-8.4-3.2l8.4-8.4l8.4,8.4C26.1,31.3,23.2,32.5,20,32.5z"/>
</svg>
