<?xml version="1.0" encoding="utf-8"?>
<!-- Generator: Adobe Illustrator 22.1.0, SVG Export Plug-In . SVG Version: 6.00 Build 0)  -->
<svg version="1.1" id="Calque_1" xmlns="http://www.w3.org/2000/svg" xmlns:xlink="http://www.w3.org/1999/xlink" x="0px" y="0px"
	 viewBox="0 0 40 40" style="enable-background:new 0 0 40 40;" xml:space="preserve">
<style type="text/css">
	.st0{fill:#292929;}
</style>
<path class="st0" d="M20,6.1C12.3,6.1,6.1,12.3,6.1,20c0,5.9,3.7,10.9,8.8,12.9c-0.1-1.1-0.2-2.8,0.1-4c0.2-1.1,1.6-6.9,1.6-6.9
	s-0.4-0.8-0.4-2.1c0-1.9,1.1-3.4,2.5-3.4c1.2,0,1.8,0.9,1.8,1.9c0,1.2-0.8,3-1.1,4.6c-0.3,1.4,0.7,2.5,2,2.5c2.5,0,4.4-2.6,4.4-6.4
	c0-3.3-2.4-5.6-5.8-5.6c-3.9,0-6.3,3-6.3,6c0,1.2,0.5,2.5,1,3.2c0.1,0.1,0.1,0.3,0.1,0.4c-0.1,0.4-0.3,1.4-0.4,1.6
	c-0.1,0.3-0.2,0.3-0.5,0.2c-1.7-0.8-2.8-3.3-2.8-5.4c0-4.4,3.2-8.4,9.2-8.4c4.8,0,8.5,3.4,8.5,8c0,4.8-3,8.6-7.2,8.6
	c-1.4,0-2.7-0.7-3.2-1.6c0,0-0.7,2.6-0.9,3.3c-0.3,1.2-1.2,2.7-1.7,3.6c1.3,0.4,2.7,0.6,4.1,0.6c7.7,0,13.9-6.2,13.9-13.9
	C33.9,12.3,27.7,6.1,20,6.1L20,6.1z"/>
</svg>
