<?xml version="1.0" encoding="utf-8"?>
<!-- Generator: Adobe Illustrator 22.1.0, SVG Export Plug-In . SVG Version: 6.00 Build 0)  -->
<svg version="1.0" id="Calque_1" xmlns="http://www.w3.org/2000/svg" xmlns:xlink="http://www.w3.org/1999/xlink" x="0px" y="0px"
	 viewBox="0 0 40 40" style="enable-background:new 0 0 40 40;" xml:space="preserve">
<style type="text/css">
	.st0{fill:#231F20;}
</style>
<path class="st0" d="M35.1,33.6L33.2,6.2c0-0.4-0.3-0.7-0.7-0.7c0,0,0,0-0.1,0H13.9c-0.4,0-0.7,0.3-0.7,0.7c0,0.4,0.3,0.7,0.7,0.7
	h18l0.7,10.5H20.8c0,0,0,0,0,0C12,17.6,4.9,24.9,4.9,33.8c0,0.4,0.3,0.7,0.7,0.7h28.9c0.2,0,0.4-0.1,0.5-0.2
	c0.1-0.1,0.2-0.3,0.2-0.5V33.6C35.1,33.6,35.1,33.6,35.1,33.6z M6.3,33.1C6.7,25.3,13,19,20.8,18.9h11.9l1,14.2H6.3z M17.5,26.3
	c0,1.2-1,2.1-2.1,2.1s-2.1-1-2.1-2.1s1-2.1,2.1-2.1S17.5,25.2,17.5,26.3z M23.8,26.3c0,1.2-1,2.1-2.1,2.1c-1.2,0-2.1-1-2.1-2.1
	s1-2.1,2.1-2.1C22.8,24.2,23.8,25.2,23.8,26.3z M30,26.3c0,1.2-1,2.1-2.1,2.1s-2.1-1-2.1-2.1s1-2.1,2.1-2.1S30,25.2,30,26.3z"/>
</svg>
