<?xml version="1.0" encoding="utf-8"?>
<!-- Generator: Adobe Illustrator 22.1.0, SVG Export Plug-In . SVG Version: 6.00 Build 0)  -->
<svg version="1.0" id="Calque_1" xmlns="http://www.w3.org/2000/svg" xmlns:xlink="http://www.w3.org/1999/xlink" x="0px" y="0px"
	 viewBox="0 0 40 40" style="enable-background:new 0 0 40 40;" xml:space="preserve">
<style type="text/css">
	.st0{fill:#231F20;}
</style>
<path class="st0" d="M36.5,31.8L35,31.1l-0.8-11.8l2.4-1.1c0.4-0.2,0.6-0.7,0.4-1.1c-0.2-0.4-0.7-0.6-1.1-0.4L34,17.6L33.2,6.2
	c0-0.4-0.3-0.7-0.7-0.7c0,0,0,0-0.1,0H13.9c-0.4,0-0.7,0.3-0.7,0.7s0.3,0.7,0.7,0.7h18l0.7,10.5H20.8c0,0,0,0,0,0
	c-3.3,0.1-6.4,1.1-8.9,2.9l-7.8-3.6c-0.4-0.2-0.9,0-1.1,0.4c-0.2,0.4,0,0.9,0.4,1.1l7,3.3c-2.8,2.4-4.8,5.8-5.4,9.6l-1.7,0.8
	c-0.4,0.2-0.6,0.7-0.4,1.1c0.1,0.3,0.4,0.5,0.7,0.5c0.1,0,0.2,0,0.3-0.1l0.8-0.4c0,0.3,0,0.6,0,0.9c0,0.4,0.3,0.7,0.7,0.7h28.9
	c0.2,0,0.4-0.1,0.5-0.2c0.1-0.1,0.2-0.3,0.2-0.5l0-0.1c0,0,0,0,0-0.1l0-0.7l0.8,0.4c0.1,0.1,0.2,0.1,0.3,0.1c0.3,0,0.6-0.2,0.7-0.5
	C37.1,32.5,36.9,32,36.5,31.8z M33.5,30.4L21.9,25l10.9-5.1L33.5,30.4z M20.8,18.9h10.4L20,24.1l-6.6-3.1
	C15.6,19.7,18.1,18.9,20.8,18.9z M11.9,22.1l6.2,2.9L6.7,30.3C7.5,27,9.4,24.2,11.9,22.1z M33.7,33.1H6.3c0-0.3,0.1-0.6,0.1-0.9
	L20,25.9l13.6,6.3L33.7,33.1z"/>
</svg>
