<?xml version="1.0" encoding="utf-8"?>
<!-- Generator: Adobe Illustrator 22.1.0, SVG Export Plug-In . SVG Version: 6.00 Build 0)  -->
<svg version="1.0" id="Calque_1" xmlns="http://www.w3.org/2000/svg" xmlns:xlink="http://www.w3.org/1999/xlink" x="0px" y="0px"
	 viewBox="0 0 40 40" style="enable-background:new 0 0 40 40;" xml:space="preserve">
<style type="text/css">
	.st0{fill:#231F20;}
</style>
<path class="st0" d="M5.9,5.9v28.2h28.2V5.9H5.9z M12,10.9l-4.8,4.6V7.9C8.3,8.6,10,9.8,12,10.9z M8.6,7.2h7.2L13,9.9
	C11.3,9,9.7,8,8.6,7.2z M7.2,17.3l6-5.8c0.9,0.5,1.9,0.9,2.8,1.2l-8.8,8.5V17.3z M14.2,10.6l3.4-3.3c0,0,0-0.1,0.1-0.1h4.2l-4.7,4.5
	C16.2,11.5,15.2,11,14.2,10.6z M23.6,7.4c0.1-0.1,0.1-0.1,0.1-0.2h7.7C28.8,9,23.5,12.3,20,12.3c-0.4,0-0.9-0.1-1.4-0.2L23.6,7.4z
	 M7.2,32.8v-9.7l10.3-9.9c0.9,0.2,1.7,0.4,2.5,0.4c4.2,0,10.3-4,12.8-5.8v24.9H7.2z"/>
</svg>
