<?xml version="1.0" encoding="utf-8"?>
<!-- Generator: Adobe Illustrator 22.1.0, SVG Export Plug-In . SVG Version: 6.00 Build 0)  -->
<svg version="1.0" id="Calque_1" xmlns="http://www.w3.org/2000/svg" xmlns:xlink="http://www.w3.org/1999/xlink" x="0px" y="0px"
	 viewBox="0 0 40 40" style="enable-background:new 0 0 40 40;" xml:space="preserve">
<style type="text/css">
	.st0{fill:#231F20;}
</style>
<path class="st0" d="M5.9,5.9v28.2h28.2V5.9H5.9z M19.1,20l-8.3,8.3c-2-2.2-3.2-5.1-3.2-8.3c0-3.2,1.2-6.1,3.2-8.3L19.1,20z
	 M11.7,10.7c2.2-2,5.1-3.2,8.3-3.2c3.2,0,6.1,1.2,8.3,3.2L20,19.1L11.7,10.7z M20,20.9l8.3,8.3c-2.2,2-5.1,3.2-8.3,3.2
	c-3.2,0-6.1-1.2-8.3-3.2L20,20.9z M20.9,20l8.3-8.3c2,2.2,3.2,5.1,3.2,8.3c0,3.2-1.2,6.1-3.2,8.3L20.9,20z M29.3,9.8
	c-1.2-1.1-2.6-2-4.1-2.6h6.6L29.3,9.8z M10.7,9.8L8.2,7.2h6.6C13.3,7.8,11.9,8.7,10.7,9.8z M9.8,10.7c-1.1,1.2-2,2.6-2.6,4.1V8.2
	L9.8,10.7z M7.2,25.2c0.6,1.5,1.5,2.9,2.6,4.1l-2.6,2.6V25.2z M10.7,30.2c1.2,1.1,2.6,2,4.1,2.6H8.2L10.7,30.2z M29.3,30.2l2.6,2.6
	h-6.6C26.7,32.2,28.1,31.3,29.3,30.2z M30.2,29.3c1.1-1.2,2-2.6,2.6-4.1v6.6L30.2,29.3z M32.8,14.8c-0.6-1.5-1.5-2.9-2.6-4.1
	l2.6-2.6V14.8z"/>
</svg>
