<?xml version="1.0" encoding="utf-8"?>
<!-- Generator: Adobe Illustrator 23.0.1, SVG Export Plug-In . SVG Version: 6.00 Build 0)  -->
<svg version="1.1" id="Calque_1" xmlns="http://www.w3.org/2000/svg" xmlns:xlink="http://www.w3.org/1999/xlink" x="0px" y="0px"
	 viewBox="0 0 80 80" style="enable-background:new 0 0 80 80;" xml:space="preserve">
<style type="text/css">
	.st0{fill:#FFFFFF;}
</style>
<path class="st0" d="M76.4,47C76.3,47,76.3,47,76.4,47c-0.3-0.5-1-1.2-4.3-2.9c-2-1-4.1-1.9-5.2-2.3c-0.8-1.1-3.4-2.9-7.7-5.1
	c-3.1-1.7-6.1-3-6.3-3.1c-2.7-1.6-6.5-4.1-9.9-6.4c-5.4-3.6-6.9-4.6-7.4-4.6l0,0c-0.7,0-1.7,0.2-2.3,0.3c-0.6-0.5-2.3-1.9-2.7-2.1
	h-0.1c-0.1,0-2-0.6-4,0.4c-1.7,0.9-2.9,2.6-3.7,5.1c-0.4,0.2-0.7,0.4-0.9,0.4c-1.1-0.6-7.7-4.1-9.9-4.2c-0.1,0-0.3,0-0.5-0.1
	c-1.1-0.2-2.7-0.4-3.3,0.7c0,0,0,0,0,0.1c-0.1,0.1-0.3,0.2-1.5,2.9c-0.6,1.4-1.3,2.8-1.6,3.5c-0.4,0.4-0.8,1.3-1.2,2.6
	c-0.3,1-0.6,2.4-0.8,4c-0.4,2.5-0.6,4.9-0.6,5.3c-0.1,0.5-1.1,4,1,7.3l0.1,0.1c0.6,0.5,5.4,1.8,8.2,2.6c3.7,1,8.3,2.2,10.4,2.6
	c2.3,0.6,5,1.6,7.2,2.3c1.6,0.5,2.9,1,3.8,1.2c1,0.3,5.3,1.2,11.6,1.7c2,0.1,4.4,0.3,7,0.3c4.4,0,9.5-0.3,14.8-1.3l0,0
	c2.3-0.4,7.8-1.5,10.4-3.5l0.1-0.1c0.3-0.4,0.9-1.4,1-2.9C78.1,50,77.6,48.5,76.4,47z M66.2,42.4c0,0.1,0.1,0.1,0.2,0.2
	c4.6,1.9,7.9,3.6,9,4.5c-3.3,2.3-9.1,3.3-14.8,4c-1.6,0.2-3.2,0.3-4.8,0.3c0-0.8,0-2.4-0.1-4.1c-0.3-3.3-0.9-5.2-1.9-5.9
	c0,0,0,0-0.1,0c-0.3-0.2-0.8-0.4-1.3-0.8l6.3-3.3C62,39.2,65.4,41.2,66.2,42.4z M40.7,26.7h-4.5l0.8-2.4
	C38,24.9,39.3,25.8,40.7,26.7z M41.1,27.1L40,29.2l-4.7-0.1l0,0l0.7-2H41.1z M49.6,32.6l-4.4-0.3l0.4-2.3
	C47,30.9,48.4,31.8,49.6,32.6z M57.7,36.9l-3.8,0.4l1.1-1.8C55.8,35.9,56.7,36.4,57.7,36.9z M57.9,37.3l-5.8,3l1.5-2.5L57.9,37.3z
	 M54.6,35.3l-1.2,2.1l-5,0.6l1.4-2.4L54.6,35.3C54.5,35.3,54.5,35.3,54.6,35.3z M49.5,35.2l-4.8,0.3c0,0-0.1,0-0.1-0.1l0.5-2.7
	l5.2,0.4c0.1,0,0.2,0.1,0.2,0.1L49.5,35.2z M45.3,29.8l-0.5,2.5l-5.2-0.4c-0.1-0.1-0.2-0.1-0.3-0.2l1-2L45.3,29.8
	C45.2,29.7,45.2,29.8,45.3,29.8z M35,28.9c-1.2-0.7-2.3-1.3-3.3-1.8h3.9L35,28.9z M39.9,29.6L39,31.4c-1-0.7-2-1.3-2.9-1.9
	L39.9,29.6z M44.7,32.7l-0.5,2.5c-0.4-0.3-0.9-0.6-1.3-0.9c-1-0.7-1.9-1.3-2.7-1.9L44.7,32.7z M49.2,35.6L48,37.8
	c-0.9-0.6-1.8-1.3-2.8-1.9L49.2,35.6z M53.1,37.8l-1.4,2.4c-0.8-0.5-1.8-1.2-2.9-1.9L53.1,37.8z M52.4,34.3c0.4,0.2,0.8,0.4,1.3,0.6
	l-3.8,0.2l1-1.7C51.4,33.8,51.9,34,52.4,34.3L52.4,34.3z M44.5,29.3l-4-0.1l1-2c0.3,0.2,0.6,0.4,0.9,0.6
	C43.1,28.3,43.8,28.8,44.5,29.3z M26.9,21.9c1.5-0.8,3-0.4,3.3-0.4c0.3,0.2,1.8,1.4,2.7,2.2c0.1,0.1,0.3,0.1,0.5,0.1
	c0.3-0.1,1.3-0.3,2.2-0.4c0.2,0,0.6,0.3,1.2,0.6l-0.9,2.7H31c-0.3-0.1-0.6-0.2-0.8-0.3c-2.4-0.9-3.7-0.9-4.3-0.8h-0.2
	c-0.5,0.1-1.1,0.3-1.8,0.5C24.4,24,25.5,22.6,26.9,21.9z M25.7,26.5h0.2c0.4-0.1,1.4-0.2,3.8,0.7c2.6,1,5.9,2.9,9.9,5.7
	c0.8,0.6,1.8,1.3,2.9,2.1c4,2.8,9,6.4,10.8,7.3c1,0.7,1.3,3.5,1.5,5.2c0.1,1.7,0.1,3.3,0.1,4c-2.6,0.1-5.2,0-7.5-0.1
	c0.8-7.2-2-8.7-3.4-9.4c-0.2-0.1-0.3-0.2-0.5-0.3l0,0c-1.1-0.6-19.2-12.4-21.5-14C23.7,27,24.8,26.7,25.7,26.5z M10.6,30L10.6,30
	c0.7,0.9,1.8,1.7,4.4,1l2.9,10.8c-0.3-0.1-0.5-0.2-0.7-0.3c-1.4-0.6-4.7-1.7-5.3-1.9c-0.3-1-0.7-1.8-1.2-2.6c-1-1.7-2-2.7-2.7-3.3
	c-0.1-0.1-0.3-0.2-0.3-0.3c-0.6-0.6-1.6-2.3-2-3C6,30.6,6.5,31,7.1,31h0.1c0.6,0,1.2-0.3,1.8-0.9c0.5-0.5,0.8-0.8,1-1.1
	C10.2,29.3,10.4,29.6,10.6,30z M18.2,29.7c0.2,1,0.9,3.7,1.6,6.4c1.1,4.3,1.6,6,1.9,6.7c-1.3-0.3-2.5-0.6-3.4-0.9l-3-11.1
	C16.2,30.6,17.1,30.3,18.2,29.7z M17,41.9c0.7,0.3,2.7,0.9,4.9,1.4l0,0l0,0c2.6,0.6,5.6,1.3,7.4,1.7c0.7,0.1,1.5,0.3,2.3,0.5
	c3.7,0.8,7.8,1.6,8.6,1.7c1,0.1,6.3,0.2,6.7,0.2v-0.1c0.1,1.2,0.1,2.5,0,4.1c-1.9-0.1-3.6-0.2-5.1-0.4c-5.5-0.5-9.4-1.3-10.3-1.6
	c-1.8-0.6-15.1-3.6-19-4.5h0.3c-0.2-1.7-0.5-3.3-0.9-4.7C13.1,40.4,15.9,41.3,17,41.9z M38,38.7c-1.2,1.2-5.8,5.5-6.3,6.4
	c-0.8-0.2-1.6-0.3-2.3-0.5c-0.3-0.1-0.7-0.2-1.2-0.2c2.3-3,5.8-7.3,6.6-7.7C36,37.4,37.1,38,38,38.7z M43.3,42
	c0.1,0.1,0.3,0.2,0.5,0.3c0.7,0.3,1.7,0.8,2.4,2.1c0.4,0.7,0.7,1.5,0.8,2.5c-0.7,0-5.7-0.1-6.6-0.2c-0.8-0.1-4.8-0.9-8.2-1.6
	c0.3-0.5,2.2-2.5,6.2-6.2C41,40.6,42.9,41.8,43.3,42z M21.5,27.9c0.6,0.4,7.3,4.8,13,8.5c-1.4,1.1-6,6.9-6.7,7.8
	c-1.7-0.4-3.8-0.8-5.6-1.3c-0.5-1-2.4-8.4-3.6-13.4c0.8-0.4,1.6-0.9,2.5-1.4C21.2,28,21.4,27.9,21.5,27.9z M11.3,23.3
	c0.2,0,0.4,0.1,0.6,0.1l0,0c1.6,0.1,6.6,2.6,9.1,3.8c-0.1,0-0.2,0.1-0.3,0.1c0,0,0,0-0.1,0c-7.3,4.6-8.8,2.8-9.3,2.1
	c-2.8-4.1-2.8-5.5-2.5-5.9C9.2,23,10.5,23.1,11.3,23.3z M8,25c0.3,1,0.9,2.2,1.8,3.7c-0.1,0.2-0.4,0.5-1.1,1.1
	c-0.5,0.5-1.1,0.8-1.6,0.8c-0.8-0.1-1.3-0.7-1.3-0.7l0,0C6.2,28.7,7.3,26.4,8,25z M5.3,30.5c0.4,0.7,1.4,2.5,2.1,3.2
	c0.1,0.1,0.2,0.2,0.4,0.3c0.6,0.6,1.6,1.5,2.6,3.2c1.1,2,1.9,4.6,2.1,7.6c-0.4-0.1-0.7-0.2-0.9-0.2l0,0c-1.3-0.1-6.4-2.3-8.4-3.2
	C3.5,37.9,4.3,32.1,5.3,30.5z M76.3,54c-2.5,1.9-7.9,2.9-10,3.3l0,0c-8.4,1.5-16.4,1.4-21.6,1c-6.3-0.5-10.5-1.4-11.4-1.7l0,0
	c-0.8-0.2-2.2-0.7-3.7-1.2c-2.2-0.8-5-1.7-7.3-2.4l0,0c-4.2-0.8-17-4.3-18.2-5c-1.4-2.2-1.2-4.6-1-5.8c1.3,0.6,6.9,3,8.5,3.2
	c1.9,0.4,17.9,4,19.9,4.7l0,0c2,0.6,10.9,2.2,20.9,2.2c0.9,0,1.9,0,2.9,0c0.1,0,0.1,0,0.2,0l0,0c0.1,0,0.1,0,0.2-0.1
	c1.7-0.1,3.4-0.2,5.2-0.4l0,0c5.8-0.7,11.7-1.7,15.2-4.1C78.2,50.7,76.7,53.4,76.3,54z M23.8,39.7c0.1,0,0.3-0.1,0.3-0.2
	c0.2,0.1,0.5,0.2,0.6,0.2v-0.1c-0.1,0-0.5-0.1-0.5-0.2l0,0c0.1-0.2,0-0.5-0.3-0.7l-0.1,0.1c0.3,0.3,0.3,0.5,0.2,0.6
	c-0.1,0.1-0.2,0.2-0.2,0.2c-0.2,0-0.4,0-0.6-0.3s-0.1-1.3,0-1.6l0,0l0.5,0.3l-0.2,0.4H24l0.1,0.2h0.4l0.1,0.3l0.3-0.2L25,39l0.4-0.1
	l0.2,0.3l0.5-0.2v-0.1l-0.4,0.2l-0.2-0.3l-0.4,0.1L25,38.5l-0.3,0.2l-0.1-0.3h-0.4l-0.1-0.2h-0.4l0.2-0.3l-0.6-0.3
	c0.2-0.3,0.7-0.7,1.1-0.7c0.2,0,0.5,0,0.7-0.1c0.2,0,0.4,0,0.7-0.1c0.4,0,0.6,0.1,0.7,0.1l0,0c-0.1,0.1-0.3,0.3-1,0.4
	c-0.6,0.1-0.9,0.4-0.9,0.4l-0.1,0.1h0.1c0,0,0.4,0.1,0.5,0.1l0,0l0,0c0.1,0,0.8,0,0.9,0.2l0,0l0,0c0.2,0.1,0.3,0.1,0.6,0.3h0.1v-0.1
	C26.8,38,27,38,27.3,38c0,0.1-0.1,0.2-0.2,0.3L27,38.2l-0.3,0.3l0.3,0.2l0.3-0.2l-0.3,0c0.1-0.1,0.2-0.2,0.2-0.4c0.1,0,0.1,0,0.1,0
	c0.1,0,0.2,0,0.3,0c0.1,0.1,0.3,0.1,0.7,0.1c0.3,0,0.3,0.1,0.3,0.1c0,0.1-0.1,0.2-0.3,0.2c-1.3,0.3-1.5,0.5-1.4,0.6l0,0
	c0.1,0.2,0.5,0.4,0.9,0.5c0.2,0.1,0.3,0.1,0.4,0.2l0,0l-0.1,0.1c0,0,0,0-0.1,0c-0.2,0.1-1.8-0.2-2-0.3v-0.1v0.2
	c-0.1,0.2-0.5,0.6-0.8,0.5c-0.1,0-0.2-0.1-0.3-0.2c-0.1-0.2-0.1-0.4,0-0.5c0.1-0.2,0.5-0.2,0.5-0.2v-0.1c0,0-0.4,0-0.6,0.3
	c-0.1,0.1-0.1,0.3,0,0.6c0.1,0.2,0.2,0.3,0.4,0.3l0,0c0.3,0,0.7-0.4,0.8-0.6c0,0,0,0,0.1,0c0.2,0,1.8,0.4,2,0.3l0,0
	c0.1-0.1,0.2-0.1,0.2-0.2c0,0,0-0.1-0.1-0.1c-0.1-0.1-0.3-0.1-0.4-0.2c-0.3-0.1-0.8-0.3-0.9-0.5c0-0.1,0.1-0.3,1.3-0.5
	c0.2,0,0.4-0.2,0.4-0.3s-0.2-0.2-0.5-0.2S27.6,38,27.5,38s-0.2-0.1-0.3-0.1c-0.1,0-0.1,0-0.2,0c-0.2,0-0.5,0-0.6,0.2
	c-0.2-0.1-0.4-0.2-0.5-0.3c-0.2-0.2-0.9-0.2-1-0.2s-0.2,0-0.3,0c0.1-0.1,0.4-0.3,0.7-0.3l0,0c0.7-0.2,1-0.4,1.1-0.5
	c0,0,0.1-0.1,0-0.2c-0.1-0.1-0.3-0.2-0.8-0.2c-0.2,0-0.5,0-0.7,0.1c-0.2,0-0.5,0-0.7,0.1c-0.4,0.1-1.1,0.6-1.2,0.9
	c0,0.2-0.2,1.4,0,1.7C23.3,39.7,23.5,39.7,23.8,39.7z M26.9,38.6l-0.1,0.1l-0.1-0.1l0.1-0.1L26.9,38.6
	C26.8,38.6,26.9,38.5,26.9,38.6L26.9,38.6z"/>
</svg>
