<?xml version="1.0" encoding="utf-8"?>
<!-- Generator: Adobe Illustrator 23.0.1, SVG Export Plug-In . SVG Version: 6.00 Build 0)  -->
<svg version="1.1" id="Calque_1" xmlns="http://www.w3.org/2000/svg" xmlns:xlink="http://www.w3.org/1999/xlink" x="0px" y="0px"
	 viewBox="0 0 80 80" style="enable-background:new 0 0 80 80;" xml:space="preserve">
<style type="text/css">
	.st0{fill:#FFFFFF;}
</style>
<path class="st0" d="M77.7,48.3L77.7,48.3c0-0.1-0.1-0.2-0.1-0.3c-0.1-0.4-0.2-0.6-0.6-0.7c-0.2-0.4-0.5-1.2-1.3-2
	c-1.1-1.1-2.7-2-4.8-2.6c-2.9-1-6.5-2.4-10.7-4H60l0,0c-0.8-0.2-4.8-2.3-5.8-2.9c-1.2-1.1-3.8-2.5-6-3.6c-0.4-0.2-0.8-0.4-1.1-0.6
	c-1.4-0.9-3.4-1.8-6.1-3c-0.9-0.4-1.7-0.7-2.7-1.2l0,0c-3.6-1.4-6.4-2.4-7.5-2.8l0,0l0,0c-0.4-0.1-1.2-0.3-2-0.6
	c-1.3-0.4-2.7-0.9-3.5-1h-0.1h-0.1c0,0-1.3,0.4-2.4,1.8c-1.5,1.8-1.6,4-1.4,5.6c-0.3,0.3-1,0.6-3.5-0.5c-0.8-0.5-3.1-3.9-3.9-5.2
	c-0.4-0.6-1.4-1.1-2.2-1.3c-0.5-0.1-1.5-0.3-2.4-0.1c0.2-1,0.4-2.3-0.2-2.9C8.5,20.1,8,20,7.4,20.1l0,0l0,0
	c-1.3,0.5-3.7,1.5-2.4,5.6c0.4,1.4,0.6,2.5,0.4,3l0,0c0,0.1-1.7,6.8-2,11.3c-0.6,0.6-1.5,2.3-1.2,4.8c0,0.1,0,0.2,0,0.3
	c0.2,1.5,0.4,4.1,2.4,6.2c1.1,1.1,2.6,2,4.4,2.5c2.1,0.6,4.8,0.9,8,0.7l0,0c0.8-0.1,1.2-0.1,1.7-0.4c0.1,0,0.1-0.1,0.2-0.1
	c0.3-0.2,0.7-0.4,2.4,0.3c1.4,0.5,3.5,0.7,5.4,0.9c1.2,0.1,2.3,0.2,3,0.4c0.8,0.2,2.4,0.5,4.1,0.9c2.9,0.7,6.1,1.4,6.9,1.6l0,0
	c1.5,0.2,2.2,0,3.3-0.4l0,0c0.2-0.1,0.3-0.2,0.3-0.2l0,0c0.1,0,0.3,0.2,0.9,0.7c0.7,0.6,4.1,1.8,10.2,1.8c0.7,0,1.5,0,2.3,0
	c6.7-0.3,9.1-1.2,11.9-2.3c0.4-0.1,0.7-0.3,1.1-0.4c3.1-1.2,5.2-3,6.4-4.1c0.2-0.1,0.3-0.3,0.4-0.4l0,0
	C78.3,51.9,77.9,49.1,77.7,48.3z M76.3,47.7c-0.5,0.4-2.1,1.7-2.6,2.1l0,0c-0.3,0.3-0.5,0.6-0.6,0.8s-0.2,0.4-0.3,0.5l0,0
	c-0.2,0.2-0.3,0.2-1.3,0.4c-0.5,0.1-1.4,0.3-2.6,0.6c-3.3,0.7-4.5,0.9-6.8,1c-2.9,0.2-10.3,0.3-17.4-2.2c-7.4-3.1-10-3.2-12.7-3.4
	c-0.2,0-0.3,0-0.5,0c-0.5,0-1,0-1.6,0c-1.7,0-3.7,0-6-0.6c-0.3-0.6-0.7-1.2-1.2-1.8c1.1-0.4,3.1-1.3,4.9-2c2-0.8,5.5-2.3,6.2-2.8
	c1-0.7,2.7-1.8,1.9-3.1c-0.6-1-1-1.5-6.1-3.8c-4.1-1.8-4.8-3.6-4.9-4c1-0.2,2.1-0.1,3.2,0.3c1.6,0.6,2.9,1.7,2.9,1.7l0,0l0,0
	c0.1,0.1,9.6,5.6,12,6.8c2.2,1.2,4.5,1.9,6.9,2c0.2,0,0.3,0,0.5,0c0.9,0,2-0.2,2.9-0.6c1.1-0.5,2.1-1.2,2.8-2c1,0.5,2.1,1.1,2.9,1.4
	c-0.4,0.3-1.1,0.8-1.9,1.3c-1.7,1.1-3.1,1.8-4,2c-0.7,0-1.3-0.1-1.9-0.2c-1.2-0.2-2.5-0.4-3.9,0.6c-1.2,0.9-2.2,1.8-2,2.7
	c0.2,0.8,1.3,1.1,1.7,1.2c2,0.5,11.7,1.1,17.1,1.1c1.1,0,2.1,0,2.7-0.1l0,0c3.6-0.5,5.9-0.9,7.3-2.6C75,45.7,75.8,46.5,76.3,47.7z
	 M19.3,41.7c-1.3-1-5.5-2.8-9-4.3c-0.2-0.1-0.4-0.2-0.5-0.2C9.6,37.1,9.5,37,9.4,37c-1.4-0.6-2.6-1.1-2.9-2.5
	c-0.2-1.1,1.8-2.3,2.7-2.7c0.2,0.4,0.4,0.7,0.7,1.1c1.1,1.6,2.4,2.4,3.8,2.4l0,0l0,0c1.4,0,3-0.5,4.6-1.5c1.4-0.8,2.9-1.9,4-3
	c0.4-0.4,0.9-0.7,1.4-0.9c0.1,0.3,0.3,0.7,0.7,1.3c0.9,1.2,2.5,2.3,4.7,3.3c5.1,2.3,5.3,2.6,5.7,3.4c0.3,0.5-0.5,1.1-1.7,1.9
	c-1,0.7-9,4-11.1,4.8C21.1,43.3,20.1,42.3,19.3,41.7z M35.6,29.6L35.6,29.6c-1.1,0.3-2.3,0.7-3.2,0.9c-0.1,0-0.3,0.1-0.4,0.1
	c0.4-0.3,0.9-0.8,1.6-1.3c1.3-1,2-1.4,2.2-1.4C35.8,28.1,35.7,28.9,35.6,29.6z M39.6,29.1c0.1,0,0.1,0.1,0.2,0.1
	c0,0.1,0.1,0.3-0.1,1c-0.2,0.7-0.5,1.5-0.7,2.3c0,0.1-0.1,0.2-0.1,0.3c-1.2,0.3-2.4,0.6-3.1,0.7c-0.1-0.1-0.2-0.1-0.4-0.2
	c0-0.5,0.2-1.8,0.3-2.6c0-0.3,0.1-0.5,0.1-0.7c0.9-0.3,1.8-0.5,2.5-0.7C39.1,29.1,39.5,29.1,39.6,29.1z M39.8,35.7
	c0.7-0.1,1.9-0.3,3.6-0.8c-0.6,1.1-0.9,1.8-1,2.3C41.7,36.8,40.8,36.3,39.8,35.7z M43.6,37.8c0.6-0.2,1.6-0.5,3.2-1
	c-0.4,0.9-0.6,1.6-0.7,2.1C45.3,38.6,44.4,38.3,43.6,37.8z M46.5,39c-0.1-0.5,0.3-1.5,0.8-2.4c1.1-0.4,2.4-0.9,3.9-1.5
	c-0.4,0.5-1.1,1.3-1.8,2c-1.2,1.3-1.9,1.8-2.3,2C46.9,39.1,46.7,39.1,46.5,39z M47.6,36.1c0.1-0.2,0.2-0.4,0.3-0.7
	c0.4-0.9,0.7-1.5,0.9-1.9c0.8,0.4,1.5,0.8,2.3,1.2C49.7,35.2,48.5,35.7,47.6,36.1z M47.5,35.2c-0.2,0.4-0.3,0.7-0.5,1
	c-2.2,0.8-3.4,1.2-4,1.3c-0.1,0-0.2-0.1-0.3-0.1c0-0.2,0.1-0.5,0.4-1c0.2-0.5,0.5-1.1,0.8-1.6c1.9-0.5,3.6-1.1,4.4-1.4
	C48.2,33.9,47.9,34.5,47.5,35.2z M43.7,34.4L43.7,34.4c-2.6,0.7-3.8,0.9-4.4,0.9c-0.2-0.1-0.4-0.2-0.6-0.3c0-0.1,0.1-0.3,0.1-0.6
	c0.1-0.4,0.3-0.9,0.4-1.4c0.5-0.1,1-0.3,1.6-0.4c1.6-0.4,3.7-1,4.2-1c-0.1,0.4-0.7,1.6-1.2,2.5C43.8,34.2,43.7,34.3,43.7,34.4z
	 M38.3,34.9c-0.6-0.4-1.3-0.7-1.9-1.1c0.5-0.1,1.3-0.3,2.4-0.6C38.5,33.9,38.4,34.5,38.3,34.9z M35.5,30.1c0,0.2-0.1,0.4-0.1,0.5
	c-0.2,1.2-0.3,1.9-0.3,2.4c-1.5-0.9-2.8-1.6-3.4-2C32.6,30.9,33.9,30.6,35.5,30.1z M70.7,43.7L70.7,43.7c0.5,0.2,1.5,0.4,2.6,1
	c-1.1,1.4-3,1.8-6.6,2.2c-3.6,0.3-17.2-0.4-19.5-1l0,0c-0.7-0.2-1-0.4-1-0.5s0.1-0.6,1.7-1.8c1.1-0.8,2-0.6,3.2-0.4
	c0.6,0.1,1.3,0.2,2.1,0.2l0,0l0,0c2.3-0.3,6-3.2,6.7-3.8l0.1,0.1C64.2,41.3,67.8,42.6,70.7,43.7z M53.6,36.5L53.6,36.5
	c0.3,0.2,0.9,0.5,1.6,0.9c-0.6,0.7-1.4,1.2-2.4,1.6c-1,0.4-2.1,0.6-3.1,0.5l0,0c-0.7,0-1.4-0.1-2.1-0.3c0.5-0.3,1.1-0.9,2-1.9
	c0.9-0.9,1.7-1.9,2-2.3C52.5,35.6,53.2,36.1,53.6,36.5L53.6,36.5z M46.7,32.4c0.3,0.2,0.7,0.4,1.1,0.6c0.1,0,0.2,0.1,0.2,0.1
	c-0.7,0.3-2.2,0.7-3.8,1.2l0,0c0.4-0.7,0.7-1.4,0.9-1.9c0.1-0.3,0.2-0.6,0.3-0.7C45.9,31.9,46.3,32.2,46.7,32.4L46.7,32.4z
	 M44.6,31.3c-0.6,0.1-1.8,0.4-3.9,1c-0.4,0.1-0.9,0.2-1.3,0.4l0,0c0.5-1.5,0.9-2.6,0.9-3.2c0.1,0.1,0.2,0.1,0.3,0.2
	C42.2,30.2,43.5,30.7,44.6,31.3z M38.9,28.7c-0.2,0-0.4,0.1-0.6,0.1c-0.7,0.2-1.5,0.4-2.3,0.6c0.2-1.1,0.2-1.7,0.1-1.9
	c0.6,0.2,1.2,0.5,1.9,0.7C38.3,28.5,38.6,28.6,38.9,28.7z M23.2,25.5c0.7-0.9,1.6-1.4,1.9-1.5c0.7,0.1,2.1,0.6,3.2,1
	c0.9,0.3,1.6,0.5,2,0.6c0.9,0.3,2.7,1,5.2,1.9c-0.3,0.1-0.8,0.3-1.9,1.2c-0.9,0.6-1.8,1.5-2.3,1.9c-0.1,0.1-0.1,0.1-0.2,0.2
	c-0.1,0-0.1,0-0.2,0c-0.4-0.3-1.5-1.2-3-1.7c-2.4-0.9-4.5-0.6-6.2,0.9C21.8,28.1,22.3,26.6,23.2,25.5z M11.3,24.3
	c0.9,0.2,1.5,0.6,1.7,0.9l0,0c0,0,2.9,4.8,4.2,5.5l0,0c1.1,0.5,2,0.7,2.6,0.8c-1.9,1.4-4.2,2.6-6.2,2.6c-1.3,0-3.6-0.9-5.4-7.2l0,0
	c-0.6-1.7,0.1-2.4,0.4-2.6l0,0l0,0C9.4,24.1,10.4,24.1,11.3,24.3z M6.1,29c0.3-0.9-0.1-2.4-0.4-3.5C5.3,24,5.3,23,5.8,22.2
	c0.4-0.6,1.1-0.9,1.8-1.2c0.2-0.1,0.5-0.1,0.6,0.1c0.4,0.4,0.1,1.8-0.1,2.4c0,0.1-0.1,0.3-0.1,0.4l0,0c-0.3,0.3-1.3,1.3-0.6,3.5
	C7.8,28.8,8.2,30,8.7,31c-0.3,0.2-1,0.5-1.6,1c-1.2,0.9-1.8,1.8-1.6,2.7c0.4,1.9,2,2.6,3.4,3.2C9,37.9,9.1,38,9.2,38
	c0.4,0,0.5,0,0.7,0.1c2,0.9,7.5,3.2,8.8,4.2c0.9,0.7,2,1.8,3,3l0,0l0,0c0.3,0.4,0.5,0.7,0.8,1.1c-0.9-0.3-1.9-0.7-2.9-1.2
	C16.1,43.1,12,41.7,9.2,41c-2.4-0.6-4.3-0.9-5-1C4.5,35.7,6.1,29.3,6.1,29z M77,52c-0.1,0.1-0.3,0.2-0.4,0.4
	c-1.3,1.1-3.2,2.8-6.1,3.9c-0.4,0.1-0.8,0.3-1.1,0.4c-2.8,1.1-5.1,2-11.6,2.3c-8,0.3-11.5-1.2-11.9-1.5l0,0
	c-0.7-0.6-1.1-0.9-1.5-0.9c-0.2,0-0.4,0.1-0.5,0.2c-0.1,0-0.1,0.1-0.2,0.1c-0.9,0.4-1.6,0.5-2.8,0.3c-0.8-0.1-4-0.9-6.8-1.5
	c-1.7-0.4-3.3-0.8-4.1-0.9l0,0c-0.8-0.2-1.9-0.3-3.1-0.4c-1.8-0.2-3.9-0.4-5.2-0.8c-1.9-0.7-2.6-0.5-3.1-0.2c-0.1,0-0.1,0-0.1,0.1
	l0,0l0,0c-0.3,0.2-0.6,0.2-1.3,0.3c-5.6,0.3-9.6-0.7-11.7-3c-1.8-1.8-2-4.1-2.2-5.7c0-0.1,0-0.2,0-0.3c-0.2-2.2,0.5-3.5,0.8-4
	c0.6,0.1,9.1,1.2,15.5,5.2l0,0c1.4,0.7,2.7,1.2,4,1.6l0,0l0,0c2.5,0.7,4.7,0.7,6.5,0.7c0.6,0,1.1,0,1.6,0c0.2,0,0.3,0,0.5,0
	c2.7,0.1,5.2,0.2,12.5,3.3l0,0c5.5,2,11.2,2.4,14.9,2.4c1.2,0,2.1,0,2.8-0.1l0,0c2.3-0.2,3.6-0.3,6.9-1.1c1.2-0.3,2-0.4,2.5-0.6
	c1-0.2,1.3-0.3,1.7-0.5c0.4-0.2,0.5-0.5,0.6-0.8c0.1-0.2,0.2-0.4,0.4-0.5c0.6-0.4,2.2-1.8,2.7-2.2c0,0.1,0,0.1,0.1,0.2
	c0.1,0.5,0.2,1.3,0.2,2C77.1,51.5,77,51.9,77,52z"/>
</svg>
