<?xml version="1.0" encoding="utf-8"?>
<!-- Generator: Adobe Illustrator 22.1.0, SVG Export Plug-In . SVG Version: 6.00 Build 0)  -->
<svg version="1.1" id="Calque_1" xmlns="http://www.w3.org/2000/svg" xmlns:xlink="http://www.w3.org/1999/xlink" x="0px" y="0px"
	 viewBox="0 0 40 40" style="enable-background:new 0 0 40 40;" xml:space="preserve">
<style type="text/css">
	.st0{fill:#292929;}
</style>
<path class="st0" d="M35.7,13.6c0,0-0.3-2.2-1.3-3.2c-1.2-1.3-2.6-1.3-3.2-1.4C26.7,8.7,20,8.7,20,8.7l0,0c0,0-6.7,0-11.2,0.3
	c-0.6,0.1-2,0.1-3.2,1.4c-1,1-1.3,3.2-1.3,3.2S4,16.2,4,18.8v2.4c0,2.6,0.3,5.2,0.3,5.2s0.3,2.2,1.3,3.2c1.2,1.3,2.8,1.2,3.5,1.4
	c2.6,0.2,10.9,0.3,10.9,0.3s6.7,0,11.2-0.3c0.6-0.1,2-0.1,3.2-1.4c1-1,1.3-3.2,1.3-3.2s0.3-2.6,0.3-5.2v-2.4
	C36,16.2,35.7,13.6,35.7,13.6L35.7,13.6z M16.7,24.1v-9l8.6,4.5C25.3,19.7,16.7,24.1,16.7,24.1z"/>
</svg>
